SplineFontDB: 1.0
FontName: Samyak
FullName: Samyak_Multilingual
FamilyName: Samyak
Weight: Medium
Copyright: Created by:\nRahul Bhalerao <b.rahul.pm@gmail.com>,\nSandeep Shedmake <surgs2k47@yahoo.co.in>,\nBageshri Salvi <sbageshri@yahoo.co.in>,\nPravin Satpute <pravin_ind21@hotmail.com>\n\nGNU GPL V.2, Copyright © 2005-2006 by  H.B.C.S.E., T.I.F.R.,\nHomi Bhabha Centre For Science Education,\nTata Institute Of Fundamental Research,\nV.N. Purav Marg, Mankhurd,\nMumbai 400 088, INDIA.\n\nFor detailed license see\nwww.gnu.org\nFurther info :www.gnowledge.org\n\nCONTACTS:\nNagarjuna G.\nEmail:nagarjun@gnowledge.org\n\n
Version: 1.0
ItalicAngle: 0
UnderlinePosition: -100
UnderlineWidth: 50
Ascent: 819
Descent: 205
Order2: 1
NeedsXUIDChange: 1
FSType: 0
PfmFamily: 17
TTFWeight: 500
TTFWidth: 5
Panose: 2 0 6 3 0 0 0 0 0 0
LineGap: 0
VLineGap: 0
OS2TypoAscent: 819
OS2TypoDescent: -205
OS2TypoLinegap: 0
OS2WinAscent: -75
OS2WinAOffset: 1
OS2WinDescent: 0
OS2WinDOffset: 1
HheadAscent: 0
HheadAOffset: 1
HheadDescent: 0
HheadDOffset: 1
OS2SubXSize: 665
OS2SubYSize: 716
OS2SubXOff: 0
OS2SubYOff: 143
OS2SupXSize: 665
OS2SupYSize: 716
OS2SupXOff: 0
OS2SupYOff: 491
OS2StrikeYSize: 51
OS2StrikeYPos: 265
OS2FamilyClass: 0
OS2Vendor: 'PfEd'
ScriptLang: 6
 1 orya 1 dflt 
 1 latn 1 dflt 
 1 deva 1 dflt 
 1 gujr 1 dflt 
 1 mlym 1 dflt 
 1 taml 1 dflt 
TableOrder: GPOS 5
	'dist'
	'blwm'
	'abvm'
	'rtbd'
	'lfbd'
TableOrder: GSUB 13
	'ccmp'
	'nukt'
	'akhn'
	'rphf'
	'blwf'
	'half'
	'pstf'
	'vatu'
	'pres'
	'blws'
	'abvs'
	'psts'
	'haln'
TtfTable: cvt  4
!$VK#
EndTtf
TtfTable: maxp 32
!!*'""FC/4!!rW*!!!!#!!!!"!!*'"!'gMaz
EndTtf
LangName: 1033 "" "" "" "FontForge : Samyak_Multilingual : 15-5-2005" 
LangName: 1081 "" "Samyak" "" "" "" "" "" "" "" "Rahul Bhalerao+AAoA-Sandeep Shedmake+AAoA-Bageshri Salvi+AAoA-Pravin Satpute" "" "" "" "GNU GPL" "http://www.gnu.org/licenses/gpl.html" 

StartChar: .notdef
Encoding: 0 -1 0
Width: 886
Flags: W
Fore
68 0 m 1,0,-1
 68 1365 l 1,1,-1
 750 1365 l 1,2,-1
 750 0 l 1,3,-1
 68 0 l 1,0,-1
136 68 m 1,4,-1
 682 68 l 1,5,-1
 682 1297 l 1,6,-1
 136 1297 l 1,7,-1
 136 68 l 1,4,-1
EndSplineSet
EndChar
StartChar: oe
Encoding: 339 339 4
Width: 277
GlyphClass: 2
Flags: W
Fore
-210 538 m 1,0,1
 -408 545 -408 545 -414 668 c 0,2,3
 -415 707 -415 707 -400 737 c 0,4,5
 -392 753 -392 753 -379 767 c 0,6,7
 -361 787 -361 787 -331 804 c 0,8,9
 -277 833 -277 833 -198 836 c 0,10,11
 -42 842 -42 842 30 767 c 0,12,13
 87 707 87 707 87 570 c 2,14,-1
 87 103 l 2,15,16
 87 65 87 65 121 65 c 1,17,-1
 135 68 l 1,18,-1
 164 103 l 1,19,20
 178 116 178 116 158 61 c 0,21,22
 137 0 137 0 80 0 c 0,23,24
 9 0 9 0 9 89 c 2,25,-1
 9 561 l 2,26,27
 9 654 9 654 -12 689 c 0,28,29
 -76 792 -76 792 -183 782 c 0,30,31
 -333 769 -333 769 -329 679 c 1,32,-1
 -328 672 l 2,33,34
 -319 615 -319 615 -262 600 c 2,35,-1
 -183 580 l 1,36,37
 -164 571 -164 571 -167 558 c 1,38,-1
 -169 554 l 1,39,40
 -180 539 -180 539 -210 538 c 1,0,1
EndSplineSet
EndChar
StartChar: uni0901
Encoding: 2305 2305 5
Width: 15
GlyphClass: 4
Flags: W
AnchorPoint: "Anchor-3" -185 635 mark 0
AnchorPoint: "Anchor-2" -185 635 mark 0
Fore
-131 939 m 1,0,1
 -158 912 -158 912 -190 913 c 0,2,3
 -202 914 -202 914 -211 911 c 0,4,5
 -215 910 -215 910 -219 908 c 128,-1,6
 -223 906 -223 906 -229 900 c 0,7,8
 -242 887 -242 887 -240 871 c 0,9,10
 -240 868 -240 868 -239 866 c 0,11,12
 -239 864 -239 864 -231 849 c 0,13,14
 -216 822 -216 822 -187 825 c 0,15,16
 -184 825 -184 825 -182 826 c 0,17,18
 -165 830 -165 830 -148 850 c 0,19,20
 -126 878 -126 878 -128 920 c 0,21,22
 -128 925 -128 925 -129 928 c 1,23,-1
 -131 939 l 1,0,1
-368 827 m 1,24,25
 -378 865 -378 865 -377 887 c 0,26,27
 -377 891 -377 891 -376 892 c 0,28,29
 -375 895 -375 895 -371 891 c 1,30,31
 -366 882 -366 882 -366 881 c 1,32,-1
 -357 860 l 2,33,34
 -311 748 -311 748 -209 740 c 0,35,36
 -151 735 -151 735 -97 764 c 0,37,38
 -69 779 -69 779 -43 802 c 0,39,40
 -18 824 -18 824 2 853 c 1,41,-1
 19 887 l 1,42,-1
 20 885 l 1,43,44
 22 874 22 874 17 857 c 0,45,46
 16 851 16 851 13 844 c 2,47,-1
 6 827 l 2,48,49
 -39 718 -39 718 -129 684 c 0,50,51
 -186 663 -186 663 -237 678 c 0,52,53
 -261 685 -261 685 -287 705 c 1,54,55
 -342 744 -342 744 -368 827 c 1,24,25
EndSplineSet
EndChar
StartChar: uni0902
Encoding: 2306 2306 6
Width: 0
GlyphClass: 4
Flags: W
AnchorPoint: "Anchor-3" -75 671 mark 0
AnchorPoint: "Anchor-2" -75 671 mark 0
Fore
-11 839 m 1,0,1
 -38 812 -38 812 -71 813 c 0,2,3
 -82 814 -82 814 -91 811 c 0,4,5
 -95 810 -95 810 -99 808 c 0,6,7
 -100 808 -100 808 -110 800 c 1,8,9
 -122 787 -122 787 -120 770 c 0,10,11
 -120 768 -120 768 -119 766 c 0,12,13
 -118 761 -118 761 -112 749 c 1,14,15
 -95 722 -95 722 -68 725 c 0,16,17
 -65 725 -65 725 -62 726 c 0,18,19
 -43 731 -43 731 -29 750 c 1,20,21
 -5 778 -5 778 -8 819 c 0,22,23
 -8 823 -8 823 -9 827 c 1,24,-1
 -11 839 l 1,0,1
EndSplineSet
EndChar
StartChar: uni0903
Encoding: 2307 2307 7
Width: 286
GlyphClass: 2
Flags: W
Fore
73 227 m 1,0,1
 45 201 45 201 13 202 c 0,2,3
 2 203 2 203 -7 200 c 0,4,5
 -11 199 -11 199 -15 197 c 128,-1,6
 -19 195 -19 195 -26 188 c 0,7,8
 -40 173 -40 173 -35 155 c 0,9,10
 -34 148 -34 148 -28 137 c 0,11,12
 -11 111 -11 111 16 114 c 0,13,14
 19 114 19 114 22 115 c 0,15,16
 41 120 41 120 55 138 c 0,17,18
 78 167 78 167 76 208 c 0,19,20
 76 213 76 213 75 216 c 1,21,-1
 73 227 l 1,0,1
73 575 m 1,22,23
 46 549 46 549 13 550 c 0,24,25
 2 551 2 551 -7 548 c 0,26,27
 -11 547 -11 547 -15 545 c 0,28,29
 -21 542 -21 542 -26 537 c 0,30,31
 -39 522 -39 522 -35 504 c 1,32,-1
 -28 485 l 1,33,34
 -11 459 -11 459 16 462 c 0,35,36
 20 462 20 462 22 463 c 0,37,38
 41 468 41 468 55 486 c 0,39,40
 79 515 79 515 76 556 c 0,41,42
 76 560 76 560 75 564 c 1,43,-1
 73 575 l 1,22,23
EndSplineSet
EndChar
StartChar: uni0904
Encoding: 2308 2308 8
Width: 863
GlyphClass: 2
Flags: W
Fore
420 828 m 0,0,1
 456 783 456 783 527 783 c 0,2,3
 562 783 562 783 652 799 c 1,4,5
 724 810 724 810 753 758 c 0,6,7
 768 731 768 731 772 686 c 1,8,-1
 774 657 l 1,9,-1
 696 657 l 1,10,-1
 694 701 l 1,11,12
 687 748 687 748 647 744 c 0,13,14
 548 733 548 733 486 747 c 0,15,16
 454 755 454 755 432 769 c 0,17,18
 405 785 405 785 393 804 c 0,19,20
 375 832 375 832 381 870 c 0,21,22
 383 884 383 884 388 899 c 0,23,24
 388 901 388 901 392 908 c 0,25,26
 404 931 404 931 410 934 c 0,27,28
 412 934 412 934 412 923 c 1,29,-1
 411 912 l 1,30,-1
 409 865 l 1,31,32
 411 840 411 840 420 828 c 0,0,1
649 564 m 2,33,34
 649 607 649 607 678 614 c 1,35,-1
 497 614 l 1,36,37
 510 623 510 623 515 646 c 0,38,39
 518 662 518 662 527 666 c 1,40,-1
 892 666 l 1,41,42
 883 662 883 662 880 641 c 1,43,-1
 873 625 l 1,44,-1
 863 615 l 1,45,-1
 862 614 l 1,46,-1
 763 614 l 2,47,48
 731 614 731 614 730 564 c 1,49,-1
 730 105 l 2,50,51
 730 67 730 67 764 67 c 0,52,53
 795 67 795 67 805 98 c 0,54,55
 807 102 807 102 808 105 c 1,56,57
 809 71 809 71 797 47 c 0,58,59
 790 33 790 33 779 23 c 2,60,-1
 763 10 l 1,61,-1
 740 2 l 2,62,63
 734 0 734 0 722 0 c 0,64,65
 682 -1 682 -1 664 27 c 0,66,67
 655 41 655 41 651 62 c 0,68,69
 649 82 649 82 649 91 c 2,70,-1
 649 299 l 1,71,72
 594 251 594 251 502 262 c 0,73,74
 486 263 486 263 469 267 c 2,75,-1
 455 270 l 1,76,77
 513 220 513 220 501 150 c 0,78,79
 499 139 499 139 496 128 c 0,80,81
 473 58 473 58 410 23 c 1,82,83
 373 0 373 0 329 0 c 0,84,85
 178 0 178 0 95 85 c 1,86,87
 47 136 47 136 6 233 c 1,88,-1
 -1 272 l 1,89,90
 -2 286 -2 286 8 268 c 0,91,92
 13 259 13 259 22 241 c 0,93,94
 83 102 83 102 207 75 c 0,95,96
 266 61 266 61 318 76 c 0,97,98
 344 84 344 84 368 98 c 0,99,100
 422 132 422 132 423 177 c 0,101,102
 424 211 424 211 396 242 c 1,103,-1
 372 265 l 1,104,105
 366 269 366 269 359 274 c 0,106,107
 305 313 305 313 226 324 c 0,108,109
 179 330 179 330 183 342 c 1,110,111
 186 346 186 346 195 351 c 0,112,113
 351 420 351 420 375 494 c 0,114,115
 382 516 382 516 376 534 c 0,116,117
 372 544 372 544 364 553 c 1,118,119
 318 617 318 617 235 612 c 2,120,-1
 229 612 l 2,121,122
 130 604 130 604 28 501 c 1,123,-1
 42 535 l 1,124,125
 119 625 119 625 246 665 c 0,126,127
 290 678 290 678 336 664 c 0,128,129
 359 658 359 658 383 644 c 0,130,131
 453 603 453 603 463 539 c 0,132,133
 472 476 472 476 411 417 c 0,134,135
 393 400 393 400 369 383 c 0,136,137
 352 370 352 370 332 358 c 0,138,139
 318 350 318 350 299 341 c 1,140,141
 337 341 337 341 398 310 c 0,142,143
 415 302 415 302 461 304 c 0,144,145
 470 304 470 304 479 305 c 0,146,147
 613 313 613 313 642 393 c 0,148,149
 648 410 648 410 649 424 c 1,150,-1
 649 564 l 2,33,34
EndSplineSet
EndChar
StartChar: LetterA
Encoding: 2309 2309 9
Width: 866
GlyphClass: 2
Flags: W
AnchorPoint: "Anchor-2" 691 667 basechar 0
Fore
652 564 m 2,0,1
 652 606 652 606 681 614 c 1,2,-1
 499 614 l 1,3,4
 512 623 512 623 517 646 c 0,5,6
 520 662 520 662 529 666 c 1,7,-1
 895 666 l 1,8,9
 886 662 886 662 883 641 c 1,10,-1
 877 625 l 1,11,-1
 866 615 l 1,12,-1
 865 614 l 1,13,-1
 766 614 l 2,14,15
 734 614 734 614 733 564 c 1,16,-1
 733 105 l 2,17,18
 733 67 733 67 767 67 c 0,19,20
 798 67 798 67 808 98 c 0,21,22
 810 102 810 102 811 105 c 1,23,24
 812 71 812 71 800 47 c 0,25,26
 793 33 793 33 782 23 c 2,27,-1
 766 10 l 1,28,-1
 743 2 l 2,29,30
 735 0 735 0 725 0 c 0,31,32
 686 -1 686 -1 667 27 c 0,33,34
 658 41 658 41 654 62 c 0,35,36
 652 82 652 82 652 91 c 2,37,-1
 652 299 l 1,38,39
 597 251 597 251 505 262 c 0,40,41
 489 263 489 263 472 267 c 2,42,-1
 458 270 l 1,43,44
 516 220 516 220 504 150 c 0,45,46
 502 139 502 139 499 128 c 0,47,48
 476 58 476 58 413 23 c 1,49,50
 376 0 376 0 332 0 c 0,51,52
 181 0 181 0 98 85 c 1,53,54
 49 139 49 139 9 233 c 1,55,-1
 2 272 l 1,56,57
 1 286 1 286 11 268 c 0,58,59
 16 259 16 259 25 241 c 0,60,61
 88 102 88 102 210 75 c 0,62,63
 269 61 269 61 321 76 c 0,64,65
 347 83 347 83 371 98 c 0,66,67
 425 131 425 131 426 177 c 0,68,69
 427 211 427 211 400 241 c 1,70,-1
 377 263 l 1,71,-1
 362 274 l 2,72,73
 308 313 308 313 229 324 c 0,74,75
 182 330 182 330 186 342 c 0,76,77
 188 345 188 345 198 351 c 1,78,79
 354 420 354 420 378 494 c 0,80,81
 385 516 385 516 379 534 c 0,82,83
 375 544 375 544 367 553 c 1,84,85
 321 617 321 617 238 612 c 2,86,-1
 232 612 l 2,87,88
 133 604 133 604 31 501 c 1,89,-1
 45 535 l 1,90,91
 122 625 122 625 249 665 c 0,92,93
 293 678 293 678 339 664 c 0,94,95
 362 658 362 658 386 644 c 0,96,97
 456 603 456 603 466 539 c 0,98,99
 475 476 475 476 414 417 c 0,100,101
 396 400 396 400 372 383 c 0,102,103
 355 370 355 370 335 358 c 0,104,105
 321 350 321 350 302 341 c 1,106,107
 340 341 340 341 401 310 c 0,108,109
 418 302 418 302 464 304 c 0,110,111
 473 304 473 304 482 305 c 0,112,113
 616 313 616 313 645 393 c 0,114,115
 651 410 651 410 652 424 c 1,116,-1
 652 564 l 2,0,1
EndSplineSet
EndChar
StartChar: LetterAA
Encoding: 2310 2310 10
Width: 1076
GlyphClass: 2
Flags: W
AnchorPoint: "Anchor-2" 896 666 basechar 0
Fore
769 614 m 2,0,1
 737 614 737 614 736 564 c 1,2,-1
 737 105 l 1,3,4
 737 67 737 67 771 67 c 0,5,6
 802 67 802 67 812 98 c 0,7,8
 814 102 814 102 815 105 c 1,9,10
 816 71 816 71 804 47 c 0,11,12
 797 33 797 33 786 23 c 2,13,-1
 770 10 l 1,14,-1
 748 2 l 1,15,16
 738 0 738 0 729 0 c 0,17,18
 690 -1 690 -1 671 27 c 0,19,20
 662 41 662 41 658 62 c 0,21,22
 656 82 656 82 656 91 c 2,23,-1
 656 299 l 1,24,25
 601 251 601 251 509 262 c 0,26,27
 493 263 493 263 476 267 c 2,28,-1
 462 270 l 1,29,30
 520 220 520 220 508 150 c 0,31,32
 506 139 506 139 503 128 c 0,33,34
 480 58 480 58 417 23 c 1,35,36
 380 0 380 0 336 0 c 0,37,38
 150 0 150 0 59 144 c 0,39,40
 38 178 38 178 13 233 c 1,41,-1
 6 272 l 1,42,43
 5 286 5 286 15 268 c 0,44,45
 20 259 20 259 29 241 c 0,46,47
 92 102 92 102 214 75 c 0,48,49
 273 61 273 61 325 76 c 0,50,51
 351 83 351 83 375 98 c 0,52,53
 429 131 429 131 430 177 c 0,54,55
 431 211 431 211 404 242 c 0,56,57
 389 258 389 258 367 274 c 0,58,59
 312 313 312 313 233 324 c 0,60,61
 186 330 186 330 190 342 c 1,62,63
 194 346 194 346 202 351 c 1,64,65
 360 421 360 421 382 494 c 0,66,67
 389 516 389 516 383 534 c 0,68,69
 379 544 379 544 371 553 c 1,70,71
 325 617 325 617 243 612 c 2,72,-1
 237 612 l 2,73,74
 137 604 137 604 35 501 c 1,75,-1
 49 535 l 1,76,77
 125 623 125 623 241 662 c 2,78,-1
 253 665 l 2,79,80
 294 674 294 674 340 658 c 0,81,82
 362 650 362 650 386 636 c 0,83,84
 461 591 461 591 468 527 c 0,85,86
 475 461 475 461 402 401 c 0,87,88
 364 370 364 370 306 341 c 1,89,90
 345 341 345 341 406 310 c 0,91,92
 422 302 422 302 468 304 c 0,93,94
 477 304 477 304 486 305 c 0,95,96
 620 313 620 313 649 393 c 1,97,98
 651 402 651 402 655 424 c 1,99,-1
 655 564 l 2,100,101
 655 605 655 605 684 614 c 1,102,-1
 501 614 l 1,103,104
 514 623 514 623 519 646 c 0,105,106
 522 662 522 662 531 666 c 1,107,-1
 1111 666 l 1,108,109
 1102 662 1102 662 1099 641 c 1,110,-1
 1093 625 l 1,111,112
 1088 618 1088 618 1081 614 c 1,113,-1
 982 614 l 2,114,115
 950 614 950 614 949 564 c 1,116,-1
 950 105 l 1,117,118
 950 67 950 67 984 67 c 0,119,120
 1015 67 1015 67 1025 98 c 0,121,122
 1027 102 1027 102 1028 105 c 1,123,124
 1029 71 1029 71 1017 47 c 0,125,126
 1010 33 1010 33 999 23 c 2,127,-1
 983 10 l 1,128,-1
 961 2 l 1,129,130
 951 0 951 0 942 0 c 0,131,132
 905 -1 905 -1 886 27 c 0,133,134
 876 41 876 41 871 62 c 0,135,136
 868 77 868 77 868 91 c 2,137,-1
 868 564 l 2,138,139
 868 605 868 605 897 614 c 1,140,-1
 769 614 l 2,0,1
EndSplineSet
EndChar
StartChar: LetterI
Encoding: 2311 2311 11
Width: 564
GlyphClass: 2
Flags: W
AnchorPoint: "Anchor-2" 348 667 basechar 0
Fore
571 614 m 1,0,-1
 415 614 l 1,1,2
 459 594 459 594 472 550 c 0,3,4
 476 537 476 537 475 525 c 0,5,6
 474 517 474 517 472 511 c 1,7,-1
 465 496 l 2,8,9
 453 471 453 471 401 466 c 1,10,-1
 373 466 l 1,11,-1
 246 487 l 1,12,13
 223 489 223 489 214 488 c 0,14,15
 182 486 182 486 163 455 c 0,16,17
 146 426 146 426 159 395 c 0,18,19
 165 381 165 381 178 366 c 1,20,21
 195 353 195 353 241 357 c 0,22,23
 258 358 258 358 279 362 c 0,24,25
 346 374 346 374 382 372 c 0,26,27
 389 371 389 371 395 370 c 0,28,29
 467 370 467 370 502 309 c 0,30,31
 534 252 534 252 505 195 c 0,32,33
 466 119 466 119 356 112 c 0,34,35
 323 110 323 110 287 115 c 0,36,37
 266 117 266 117 245 122 c 0,38,39
 229 125 229 125 233 111 c 1,40,-1
 245 89 l 1,41,-1
 246 88 l 2,42,43
 272 47 272 47 310 17 c 1,44,45
 335 -1 335 -1 364 6 c 0,46,47
 378 9 378 9 394 19 c 0,48,49
 400 24 400 24 407 29 c 0,50,51
 420 38 420 38 429 33 c 1,52,53
 430 30 430 30 419 16 c 0,54,55
 417 13 417 13 412 8 c 0,56,57
 357 -47 357 -47 300 -30 c 0,58,59
 282 -24 282 -24 264 -11 c 0,60,61
 223 18 223 18 183 92 c 0,62,63
 168 122 168 122 109 156 c 1,64,65
 63 180 63 180 56 195 c 0,66,67
 41 222 41 222 45 245 c 0,68,69
 47 252 47 252 50 259 c 0,70,71
 65 290 65 290 115 282 c 0,72,73
 128 280 128 280 143 275 c 0,74,75
 167 265 167 265 194 223 c 1,76,77
 220 178 220 178 243 167 c 1,78,79
 266 154 266 154 303 156 c 0,80,81
 308 156 308 156 314 157 c 0,82,83
 411 157 411 157 438 208 c 0,84,85
 454 236 454 236 442 263 c 0,86,87
 437 275 437 275 425 288 c 1,88,-1
 406 303 l 1,89,90
 377 322 377 322 341 328 c 0,91,92
 314 332 314 332 278 328 c 2,93,-1
 238 322 l 1,94,95
 204 315 204 315 173 319 c 0,96,97
 158 320 158 320 143 325 c 0,98,99
 96 339 96 339 76 390 c 0,100,101
 61 429 61 429 74 462 c 0,102,103
 80 478 80 478 92 493 c 0,104,105
 130 536 130 536 211 536 c 0,106,107
 233 536 233 536 301 516 c 0,108,109
 341 504 341 504 365 508 c 0,110,111
 371 509 371 509 377 511 c 0,112,113
 408 526 408 526 399 556 c 0,114,115
 398 562 398 562 394 569 c 0,116,117
 379 602 379 602 347 612 c 0,118,119
 339 614 339 614 336 614 c 2,120,-1
 0 614 l 1,121,122
 13 623 13 623 18 646 c 0,123,124
 21 661 21 661 31 666 c 1,125,-1
 601 666 l 1,126,127
 592 662 592 662 589 641 c 1,128,-1
 583 625 l 1,129,-1
 572 615 l 1,130,-1
 571 614 l 1,0,-1
EndSplineSet
EndChar
StartChar: LetterII
Encoding: 2312 2312 12
Width: 567
GlyphClass: 2
Flags: W
AnchorPoint: "Anchor-2" 420 678 basechar 0
Fore
571 614 m 1,0,-1
 415 614 l 1,1,2
 459 594 459 594 472 550 c 0,3,4
 476 537 476 537 475 525 c 0,5,6
 474 517 474 517 472 511 c 1,7,-1
 465 496 l 2,8,9
 453 471 453 471 401 466 c 1,10,-1
 373 466 l 1,11,-1
 246 487 l 1,12,13
 223 489 223 489 214 488 c 0,14,15
 182 486 182 486 163 455 c 0,16,17
 146 426 146 426 159 395 c 0,18,19
 165 381 165 381 178 366 c 1,20,21
 195 353 195 353 241 357 c 0,22,23
 258 358 258 358 279 362 c 0,24,25
 346 374 346 374 382 372 c 0,26,27
 389 371 389 371 395 370 c 0,28,29
 467 370 467 370 502 309 c 0,30,31
 534 252 534 252 505 195 c 0,32,33
 466 119 466 119 356 112 c 0,34,35
 323 110 323 110 287 115 c 0,36,37
 266 117 266 117 245 122 c 0,38,39
 229 125 229 125 233 111 c 1,40,-1
 245 89 l 1,41,-1
 246 88 l 2,42,43
 272 47 272 47 310 17 c 1,44,45
 335 -1 335 -1 364 6 c 0,46,47
 378 9 378 9 394 19 c 0,48,49
 400 24 400 24 407 29 c 0,50,51
 420 38 420 38 429 33 c 1,52,53
 430 30 430 30 419 16 c 0,54,55
 417 13 417 13 412 8 c 0,56,57
 357 -47 357 -47 300 -30 c 0,58,59
 282 -24 282 -24 264 -11 c 0,60,61
 223 18 223 18 183 92 c 0,62,63
 168 122 168 122 109 156 c 1,64,65
 63 180 63 180 56 195 c 0,66,67
 41 222 41 222 45 245 c 0,68,69
 47 252 47 252 50 259 c 0,70,71
 65 290 65 290 115 282 c 0,72,73
 128 280 128 280 143 275 c 0,74,75
 167 265 167 265 194 223 c 1,76,77
 220 178 220 178 243 167 c 1,78,79
 266 154 266 154 303 156 c 0,80,81
 308 156 308 156 314 157 c 0,82,83
 411 157 411 157 438 208 c 0,84,85
 454 236 454 236 442 263 c 0,86,87
 437 275 437 275 425 288 c 1,88,-1
 406 303 l 1,89,90
 377 322 377 322 341 328 c 0,91,92
 314 332 314 332 278 328 c 2,93,-1
 238 322 l 1,94,95
 204 315 204 315 173 319 c 0,96,97
 158 320 158 320 143 325 c 0,98,99
 96 339 96 339 76 390 c 0,100,101
 61 429 61 429 74 462 c 0,102,103
 80 478 80 478 92 493 c 0,104,105
 130 536 130 536 211 536 c 0,106,107
 233 536 233 536 301 516 c 0,108,109
 341 504 341 504 365 508 c 0,110,111
 371 509 371 509 377 511 c 0,112,113
 408 526 408 526 399 556 c 0,114,115
 398 562 398 562 394 569 c 0,116,117
 379 602 379 602 347 612 c 0,118,119
 339 614 339 614 336 614 c 2,120,-1
 0 614 l 1,121,122
 13 623 13 623 18 646 c 0,123,124
 21 661 21 661 31 666 c 1,125,-1
 601 666 l 1,126,127
 592 662 592 662 589 641 c 1,128,-1
 583 625 l 1,129,-1
 572 615 l 1,130,-1
 571 614 l 1,0,-1
350 663 m 1,131,132
 241 697 241 697 219 773 c 0,133,134
 214 791 214 791 214 807 c 1,135,136
 220 878 220 878 276 895 c 0,137,138
 308 904 308 904 352 888 c 0,139,140
 375 880 375 880 400 866 c 0,141,142
 481 823 481 823 516 823 c 0,143,144
 530 823 530 823 554 831 c 0,145,146
 558 833 558 833 560 831 c 1,147,-1
 559 825 l 1,148,149
 552 806 552 806 520 798 c 0,150,151
 501 793 501 793 481 797 c 0,152,153
 470 799 470 799 459 804 c 0,154,155
 374 840 374 840 342 839 c 0,156,157
 318 837 318 837 307 804 c 0,158,159
 296 766 296 766 323 733 c 0,160,161
 337 716 337 716 360 701 c 0,162,163
 401 675 401 675 445 663 c 1,164,-1
 350 663 l 1,131,132
EndSplineSet
EndChar
StartChar: LetterU
Encoding: 2313 2313 13
Width: 654
GlyphClass: 2
Flags: W
AnchorPoint: "Anchor-2" 377 665 basechar 0
Fore
273 614 m 2,0,-1
 0 614 l 1,1,2
 13 623 13 623 18 646 c 0,3,4
 21 661 21 661 31 666 c 1,5,-1
 690 666 l 1,6,7
 681 662 681 662 678 641 c 1,8,-1
 672 625 l 1,9,-1
 662 615 l 1,10,-1
 660 614 l 1,11,-1
 376 614 l 1,12,13
 424 610 424 610 477 568 c 1,14,15
 516 540 516 540 516 497 c 0,16,17
 516 447 516 447 416 396 c 1,18,-1
 407 393 l 1,19,20
 536 371 536 371 592 273 c 0,21,22
 610 241 610 241 606 187 c 0,23,24
 605 179 605 179 604 169 c 0,25,26
 598 129 598 129 561 86 c 1,27,28
 511 25 511 25 433 7 c 0,29,30
 400 -1 400 -1 359 0 c 2,31,-1
 353 0 l 1,32,-1
 334 -1 l 1,33,34
 227 1 227 1 141 109 c 1,35,36
 61 213 61 213 48 350 c 0,37,38
 48 358 48 358 47 362 c 0,39,40
 45 387 45 387 48 393 c 0,41,42
 49 397 49 397 52 395 c 1,43,-1
 59 384 l 1,44,-1
 68 354 l 1,45,46
 88 264 88 264 172 160 c 0,47,48
 241 73 241 73 338 61 c 0,49,50
 381 56 381 56 422 73 c 0,51,52
 440 81 440 81 459 94 c 0,53,54
 515 134 515 134 520 201 c 0,55,56
 521 218 521 218 514 235 c 0,57,58
 510 245 510 245 504 255 c 0,59,60
 492 275 492 275 479 286 c 0,61,62
 392 363 392 363 253 376 c 1,63,-1
 212 378 l 1,64,-1
 202 380 l 2,65,66
 193 383 193 383 193 387 c 0,67,68
 194 390 194 390 202 393 c 1,69,-1
 310 412 l 1,70,71
 411 435 411 435 419 496 c 0,72,73
 424 540 424 540 391 570 c 0,74,75
 374 585 374 585 347 597 c 0,76,77
 307 614 307 614 273 614 c 2,0,-1
EndSplineSet
EndChar
StartChar: LetterUU
Encoding: 2314 2314 14
Width: 908
GlyphClass: 2
Flags: W
AnchorPoint: "Anchor-2" 316 668 basechar 0
Fore
217 39 m 1,0,1
 137 97 137 97 104 164 c 0,2,3
 55 264 55 264 49 354 c 1,4,-1
 53 395 l 1,5,-1
 60 384 l 1,6,-1
 69 354 l 1,7,8
 111 221 111 221 178 145 c 0,9,10
 253 62 253 62 332 55 c 0,11,12
 380 50 380 50 418 61 c 0,13,14
 439 67 439 67 457 78 c 0,15,16
 525 119 525 119 526 178 c 0,17,18
 529 260 529 260 475 307 c 0,19,20
 392 377 392 377 254 376 c 1,21,-1
 213 378 l 1,22,-1
 203 380 l 2,23,24
 195 382 195 382 194 387 c 1,25,26
 196 390 196 390 203 393 c 1,27,-1
 311 413 l 1,28,29
 412 438 412 438 420 496 c 0,30,31
 425 539 425 539 392 570 c 0,32,33
 375 585 375 585 349 597 c 0,34,35
 310 614 310 614 274 614 c 2,36,-1
 0 614 l 1,37,38
 13 623 13 623 18 646 c 0,39,40
 21 661 21 661 31 666 c 1,41,-1
 946 666 l 1,42,43
 937 662 937 662 934 641 c 1,44,-1
 928 625 l 1,45,-1
 918 615 l 1,46,-1
 916 614 l 1,47,-1
 377 614 l 1,48,49
 447 593 447 593 470 574 c 2,50,-1
 478 568 l 2,51,52
 517 540 517 540 517 497 c 0,53,54
 517 447 517 447 417 396 c 1,55,-1
 408 393 l 1,56,57
 485 379 485 379 529 349 c 1,58,59
 598 429 598 429 713 429 c 0,60,61
 721 429 721 429 724 428 c 0,62,63
 797 420 797 420 829 384 c 1,64,65
 834 382 834 382 835 379 c 1,66,67
 878 323 878 323 864 243 c 0,68,69
 858 207 858 207 840 165 c 1,70,71
 812 106 812 106 777 55 c 0,72,73
 759 28 759 28 750 32 c 1,74,75
 746 37 746 37 755 55 c 0,76,77
 759 63 759 63 766 74 c 0,78,79
 815 154 815 154 815 246 c 2,80,-1
 815 251 l 1,81,82
 812 307 812 307 781 340 c 0,83,84
 753 371 753 371 687 368 c 2,85,-1
 680 368 l 1,86,-1
 641 361 l 1,87,88
 582 346 582 346 580 307 c 0,89,90
 580 293 580 293 587 280 c 0,91,92
 615 224 615 224 609 168 c 1,93,-1
 607 152 l 1,94,95
 603 126 603 126 580 93 c 1,96,97
 511 0 511 0 367 0 c 0,98,99
 274 0 274 0 217 39 c 1,0,1
EndSplineSet
EndChar
StartChar: LetterVocalicR
Encoding: 2315 2315 15
Width: 1016
GlyphClass: 2
Flags: W
AnchorPoint: "Anchor-2" 481 666 basechar 0
Fore
451 222 m 1,0,1
 437 225 437 225 409 209 c 0,2,3
 394 201 394 201 375 188 c 1,4,-1
 312 139 l 1,5,-1
 310 137 l 1,6,-1
 251 88 l 2,7,8
 206 52 206 52 135 49 c 1,9,-1
 97 50 l 1,10,11
 88 52 88 52 81 54 c 0,12,13
 54 61 54 61 61 66 c 0,14,15
 64 69 64 69 74 70 c 0,16,17
 79 71 79 71 88 71 c 0,18,19
 118 70 118 70 143 77 c 0,20,21
 156 80 156 80 168 86 c 0,22,23
 185 93 185 93 201 106 c 1,24,25
 233 135 233 135 280 193 c 0,26,27
 310 231 310 231 377 265 c 1,28,-1
 435 298 l 2,29,30
 451 308 451 308 447 321 c 0,31,32
 446 326 446 326 441 330 c 0,33,34
 436 335 436 335 430 338 c 0,35,36
 397 354 397 354 329 410 c 0,37,38
 260 467 260 467 217 474 c 1,39,-1
 188 475 l 1,40,-1
 184 475 l 2,41,42
 109 468 109 468 109 416 c 0,43,44
 110 381 110 381 139 352 c 1,45,46
 147 346 147 346 151 345 c 0,47,48
 174 336 174 336 175 311 c 0,49,50
 176 297 176 297 168 292 c 0,51,52
 164 289 164 289 157 289 c 1,53,-1
 138 293 l 2,54,55
 137 293 137 293 136 294 c 0,56,57
 82 317 82 317 56 382 c 0,58,59
 41 419 41 419 45 451 c 0,60,61
 46 459 46 459 48 467 c 0,62,63
 52 486 52 486 68 503 c 1,64,65
 100 544 100 544 176 549 c 0,66,67
 208 551 208 551 240 540 c 0,68,69
 258 534 258 534 275 524 c 1,70,71
 298 513 298 513 329 488 c 2,72,-1
 408 425 l 1,73,74
 430 409 430 409 451 400 c 1,75,-1
 451 564 l 2,76,77
 451 605 451 605 479 614 c 1,78,-1
 0 614 l 1,79,80
 13 623 13 623 18 646 c 0,81,82
 21 661 21 661 31 666 c 1,83,-1
 1047 666 l 1,84,85
 1037 662 1037 662 1034 641 c 1,86,-1
 1028 625 l 1,87,88
 1022 617 1022 617 1017 614 c 1,89,-1
 564 614 l 2,90,91
 532 614 532 614 531 564 c 1,92,-1
 531 367 l 1,93,-1
 574 366 l 1,94,-1
 578 366 l 2,95,96
 586 366 586 366 600 368 c 0,97,98
 643 377 643 377 642 388 c 0,99,100
 642 390 642 390 640 392 c 0,101,102
 609 422 609 422 614 462 c 0,103,104
 615 466 615 466 616 471 c 0,105,106
 628 517 628 517 671 526 c 1,107,-1
 700 527 l 2,108,109
 701 527 701 527 703 527 c 0,110,111
 765 519 765 519 777 470 c 1,112,-1
 780 442 l 1,113,114
 778 424 778 424 761 394 c 0,115,116
 752 380 752 380 753 364 c 0,117,118
 754 362 754 362 754 360 c 0,119,120
 756 350 756 350 761 344 c 0,121,122
 780 318 780 318 827 288 c 0,123,124
 844 277 844 277 840 260 c 0,125,126
 838 254 838 254 834 247 c 0,127,128
 821 229 821 229 794 218 c 0,129,130
 759 205 759 205 734 160 c 1,131,132
 715 122 715 122 724 95 c 0,133,134
 728 82 728 82 740 71 c 0,135,136
 768 46 768 46 798 49 c 2,137,-1
 802 49 l 2,138,139
 879 59 879 59 968 139 c 1,140,-1
 972 140 l 1,141,-1
 972 138 l 1,142,143
 971 137 971 137 969 131 c 1,144,145
 957 116 957 116 949 108 c 1,146,147
 895 44 895 44 849 20 c 1,148,149
 806 0 806 0 758 0 c 0,150,151
 699 0 699 0 662 46 c 0,152,153
 629 86 629 86 635 128 c 0,154,155
 635 132 635 132 636 136 c 0,156,157
 642 156 642 156 649 170 c 0,158,159
 666 202 666 202 700 230 c 1,160,-1
 732 253 l 1,161,162
 741 262 741 262 738 270 c 0,163,164
 738 273 738 273 736 275 c 0,165,166
 734 280 734 280 725 289 c 2,167,-1
 679 338 l 1,168,169
 646 316 646 316 589 317 c 1,170,-1
 562 322 l 1,171,-1
 532 327 l 1,172,-1
 532 105 l 2,173,174
 532 67 532 67 566 67 c 0,175,176
 591 67 591 67 607 98 c 0,177,178
 610 104 610 104 610 105 c 0,179,180
 612 83 612 83 606 64 c 0,181,182
 604 55 604 55 599 46 c 0,183,184
 593 34 593 34 582 23 c 1,185,-1
 565 10 l 1,186,-1
 543 2 l 1,187,188
 531 0 531 0 524 0 c 0,189,190
 485 -1 485 -1 467 26 c 0,191,192
 458 40 458 40 454 62 c 0,193,194
 452 82 452 82 452 91 c 0,195,196
 452 136 452 136 451 222 c 1,0,1
EndSplineSet
EndChar
StartChar: LetterVocalicL
Encoding: 2316 2316 16
Width: 898
GlyphClass: 2
Flags: W
AnchorPoint: "Anchor-2" 535 666 basechar 0
Fore
572 544 m 0,0,1
 570 579 570 579 539 603 c 1,2,3
 522 614 522 614 511 614 c 2,4,-1
 0 614 l 1,5,6
 13 623 13 623 18 646 c 0,7,8
 21 661 21 661 31 666 c 1,9,-1
 933 666 l 1,10,11
 924 662 924 662 921 641 c 1,12,-1
 914 625 l 1,13,-1
 904 615 l 1,14,-1
 903 614 l 1,15,-1
 588 614 l 1,16,17
 639 588 639 588 644 539 c 1,18,-1
 643 514 l 1,19,-1
 641 509 l 2,20,21
 638 502 638 502 634 495 c 0,22,23
 631 487 631 487 633 479 c 0,24,25
 634 475 634 475 637 470 c 0,26,27
 641 464 641 464 658 460 c 0,28,29
 716 445 716 445 752 391 c 0,30,31
 787 336 787 336 782 285 c 0,32,33
 781 280 781 280 780 274 c 0,34,35
 769 211 769 211 733 199 c 1,36,-1
 713 203 l 1,37,38
 681 216 681 216 644 208 c 0,39,40
 625 204 625 204 605 195 c 0,41,42
 551 168 551 168 548 119 c 0,43,44
 545 84 545 84 573 65 c 0,45,46
 588 55 588 55 612 50 c 0,47,48
 638 45 638 45 662 46 c 0,49,50
 738 49 738 49 796 95 c 1,51,-1
 806 105 l 1,52,-1
 842 146 l 2,53,54
 850 155 850 155 851 152 c 1,55,-1
 847 136 l 1,56,-1
 841 122 l 2,57,58
 794 15 794 15 662 0 c 0,59,60
 610 -6 610 -6 564 12 c 0,61,62
 541 21 541 21 519 37 c 0,63,64
 465 74 465 74 465 138 c 0,65,66
 465 142 465 142 466 143 c 0,67,68
 484 224 484 224 567 254 c 1,69,70
 618 270 618 270 666 260 c 1,71,72
 696 252 696 252 708 266 c 0,73,74
 714 274 714 274 714 288 c 0,75,76
 714 296 714 296 711 307 c 0,77,78
 686 400 686 400 583 403 c 1,79,-1
 545 401 l 1,80,-1
 544 401 l 2,81,82
 472 401 472 401 434 299 c 2,83,-1
 429 286 l 1,84,-1
 429 285 l 1,85,-1
 417 249 l 1,86,-1
 389 324 l 1,87,88
 360 387 360 387 315 398 c 0,89,90
 302 401 302 401 286 401 c 0,91,92
 207 400 207 400 164 331 c 0,93,94
 135 286 135 286 138 232 c 0,95,96
 139 228 139 228 139 224 c 0,97,98
 141 210 141 210 143 203 c 0,99,100
 165 122 165 122 226 65 c 1,101,102
 263 28 263 28 304 12 c 2,103,-1
 333 2 l 2,104,105
 336 2 336 2 333 1 c 2,106,-1
 323 0 l 1,107,-1
 303 1 l 2,108,109
 302 2 302 2 301 2 c 0,110,111
 300 3 300 3 296 3 c 0,112,113
 178 16 178 16 106 108 c 0,114,115
 78 144 78 144 61 214 c 1,116,117
 47 300 47 300 82 365 c 0,118,119
 99 396 99 396 127 422 c 0,120,121
 184 473 184 473 254 473 c 2,122,-1
 259 473 l 2,123,124
 320 473 320 473 361 449 c 1,125,126
 387 432 387 432 395 416 c 1,127,-1
 419 373 l 1,128,129
 460 454 460 454 514 472 c 0,130,131
 550 483 550 483 567 524 c 0,132,133
 572 537 572 537 572 544 c 0,0,1
EndSplineSet
EndChar
StartChar: LetterCandraE
Encoding: 2317 2317 17
Width: 607
GlyphClass: 2
Flags: W
AnchorPoint: "Anchor-2" 357 666 basechar 0
Fore
0 614 m 1,0,1
 13 623 13 623 18 646 c 0,2,3
 21 661 21 661 31 666 c 1,4,-1
 644 666 l 1,5,6
 635 662 635 662 632 641 c 1,7,-1
 626 625 l 1,8,-1
 615 615 l 1,9,-1
 614 614 l 1,10,-1
 390 614 l 1,11,-1
 437 574 l 1,12,13
 537 474 537 474 532 399 c 1,14,-1
 532 395 l 1,15,-1
 532 391 l 1,16,17
 521 291 521 291 416 243 c 0,18,19
 322 200 322 200 266 206 c 0,20,21
 260 207 260 207 255 208 c 0,22,23
 252 209 252 209 246 209 c 1,24,25
 438 263 438 263 450 374 c 0,26,27
 453 412 453 412 437 459 c 0,28,29
 430 481 430 481 419 505 c 1,30,31
 398 544 398 544 371 585 c 1,32,33
 339 621 339 621 309 614 c 0,34,35
 306 613 306 613 302 612 c 0,36,37
 289 608 289 608 274 594 c 1,38,-1
 266 585 l 1,39,-1
 265 584 l 2,40,41
 207 488 207 488 197 468 c 0,42,43
 147 366 147 366 156 298 c 0,44,45
 157 290 157 290 159 283 c 0,46,47
 163 260 163 260 176 238 c 0,48,49
 211 178 211 178 352 119 c 2,50,-1
 490 62 l 1,51,52
 560 31 560 31 563 0 c 0,53,54
 565 -19 565 -19 558 -35 c 0,55,56
 554 -44 554 -44 548 -52 c 0,57,58
 535 -67 535 -67 521 -77 c 1,59,-1
 494 -93 l 1,60,61
 440 -118 440 -118 400 -114 c 2,62,-1
 390 -112 l 2,63,64
 385 -111 385 -111 380 -111 c 1,65,66
 464 -94 464 -94 482 -53 c 0,67,68
 495 -25 495 -25 477 -2 c 1,69,-1
 462 13 l 2,70,71
 459 16 459 16 455 18 c 2,72,-1
 442 27 l 1,73,-1
 289 86 l 2,74,75
 128 149 128 149 88 215 c 0,76,77
 40 296 40 296 86 414 c 0,78,79
 108 473 108 473 155 542 c 1,80,-1
 206 614 l 1,81,-1
 0 614 l 1,0,1
71 888 m 0,82,83
 56 930 56 930 59 954 c 0,84,85
 59 958 59 958 60 961 c 0,86,87
 61 963 61 963 63 963 c 0,88,89
 66 962 66 962 68 958 c 0,90,91
 72 952 72 952 75 947 c 1,92,-1
 85 925 l 1,93,94
 146 798 146 798 268 790 c 0,95,96
 338 784 338 784 404 818 c 0,97,98
 436 834 436 834 468 860 c 1,99,100
 505 893 505 893 522 916 c 1,101,-1
 546 954 l 2,102,103
 547 955 547 955 547 952 c 1,104,-1
 545 931 l 1,105,-1
 543 925 l 1,106,107
 542 917 542 917 536 904 c 2,108,-1
 528 888 l 2,109,110
 469 765 469 765 362 726 c 0,111,112
 312 708 312 708 264 713 c 0,113,114
 248 715 248 715 233 719 c 0,115,116
 200 729 200 729 173 748 c 1,117,118
 103 793 103 793 71 888 c 0,82,83
EndSplineSet
EndChar
StartChar: LetterShortE
Encoding: 2318 2318 18
Width: 609
GlyphClass: 2
Flags: W
AnchorPoint: "Anchor-2" 430 667 basechar 0
Fore
0 614 m 1,0,1
 13 623 13 623 18 646 c 0,2,3
 21 661 21 661 31 666 c 1,4,-1
 644 666 l 1,5,6
 635 662 635 662 632 641 c 1,7,-1
 626 625 l 1,8,-1
 615 615 l 1,9,-1
 614 614 l 1,10,-1
 390 614 l 1,11,-1
 437 574 l 1,12,13
 537 474 537 474 532 399 c 1,14,-1
 532 395 l 1,15,-1
 532 391 l 1,16,17
 521 291 521 291 416 243 c 0,18,19
 322 200 322 200 266 206 c 0,20,21
 260 207 260 207 255 208 c 0,22,23
 252 209 252 209 246 209 c 1,24,25
 438 263 438 263 450 374 c 0,26,27
 453 412 453 412 437 459 c 0,28,29
 430 481 430 481 419 505 c 1,30,31
 398 544 398 544 371 585 c 1,32,33
 339 621 339 621 309 614 c 0,34,35
 306 613 306 613 302 612 c 0,36,37
 289 608 289 608 274 594 c 1,38,-1
 266 585 l 1,39,-1
 265 584 l 2,40,41
 207 488 207 488 197 468 c 0,42,43
 147 366 147 366 156 298 c 0,44,45
 157 290 157 290 159 283 c 0,46,47
 163 260 163 260 176 238 c 0,48,49
 211 178 211 178 352 119 c 2,50,-1
 490 62 l 1,51,52
 560 31 560 31 563 0 c 0,53,54
 565 -19 565 -19 558 -35 c 0,55,56
 554 -44 554 -44 548 -52 c 0,57,58
 535 -67 535 -67 521 -77 c 1,59,-1
 494 -93 l 1,60,61
 440 -118 440 -118 400 -114 c 2,62,-1
 390 -112 l 2,63,64
 385 -111 385 -111 380 -111 c 1,65,66
 464 -94 464 -94 482 -53 c 0,67,68
 495 -25 495 -25 477 -2 c 1,69,-1
 462 13 l 2,70,71
 459 16 459 16 455 18 c 2,72,-1
 442 27 l 1,73,-1
 289 86 l 2,74,75
 128 149 128 149 88 215 c 0,76,77
 40 296 40 296 86 414 c 0,78,79
 108 473 108 473 155 542 c 1,80,-1
 206 614 l 1,81,-1
 0 614 l 1,0,1
33 834 m 0,82,83
 68 788 68 788 140 788 c 0,84,85
 166 788 166 788 265 804 c 0,86,87
 313 811 313 811 341 791 c 0,88,89
 353 783 353 783 361 772 c 1,90,-1
 367 762 l 1,91,92
 381 733 381 733 385 691 c 1,93,-1
 387 663 l 1,94,-1
 309 663 l 1,95,-1
 307 707 l 1,96,97
 299 751 299 751 260 750 c 1,98,99
 164 738 164 738 101 753 c 0,100,101
 69 760 69 760 45 774 c 0,102,103
 18 790 18 790 6 809 c 0,104,105
 -12 838 -12 838 -6 875 c 0,106,107
 -4 889 -4 889 1 904 c 0,108,109
 2 906 2 906 5 913 c 0,110,111
 18 937 18 937 23 939 c 0,112,113
 25 939 25 939 25 928 c 1,114,-1
 24 918 l 1,115,-1
 22 870 l 1,116,117
 24 845 24 845 33 834 c 0,82,83
EndSplineSet
EndChar
StartChar: LetterE
Encoding: 2319 2319 19
Width: 607
GlyphClass: 2
Flags: W
AnchorPoint: "Anchor-2" 335 667 basechar 0
Fore
0 614 m 1,0,1
 13 623 13 623 18 646 c 0,2,3
 21 661 21 661 31 666 c 1,4,-1
 644 666 l 1,5,6
 635 662 635 662 632 641 c 1,7,-1
 626 625 l 1,8,-1
 615 615 l 1,9,-1
 614 614 l 1,10,-1
 390 614 l 1,11,-1
 437 574 l 1,12,13
 537 474 537 474 532 399 c 1,14,-1
 532 395 l 1,15,-1
 532 391 l 1,16,17
 521 291 521 291 416 243 c 0,18,19
 322 200 322 200 266 206 c 0,20,21
 260 207 260 207 255 208 c 0,22,23
 252 209 252 209 246 209 c 1,24,25
 438 263 438 263 450 374 c 0,26,27
 453 412 453 412 437 459 c 0,28,29
 430 481 430 481 419 505 c 1,30,31
 398 544 398 544 371 585 c 1,32,33
 339 621 339 621 309 614 c 0,34,35
 306 613 306 613 302 612 c 0,36,37
 289 608 289 608 274 594 c 1,38,-1
 266 585 l 1,39,-1
 265 584 l 2,40,41
 207 488 207 488 197 468 c 0,42,43
 147 366 147 366 156 298 c 0,44,45
 157 290 157 290 159 283 c 0,46,47
 163 260 163 260 176 238 c 0,48,49
 211 178 211 178 352 119 c 2,50,-1
 490 62 l 1,51,52
 560 31 560 31 563 0 c 0,53,54
 565 -19 565 -19 558 -35 c 0,55,56
 554 -44 554 -44 548 -52 c 0,57,58
 535 -67 535 -67 521 -77 c 1,59,-1
 494 -93 l 1,60,61
 440 -118 440 -118 400 -114 c 2,62,-1
 390 -112 l 2,63,64
 385 -111 385 -111 380 -111 c 1,65,66
 464 -94 464 -94 482 -53 c 0,67,68
 495 -25 495 -25 477 -2 c 1,69,-1
 462 13 l 2,70,71
 459 16 459 16 455 18 c 2,72,-1
 442 27 l 1,73,-1
 289 86 l 2,74,75
 128 149 128 149 88 215 c 0,76,77
 40 296 40 296 86 414 c 0,78,79
 108 473 108 473 155 542 c 1,80,-1
 206 614 l 1,81,-1
 0 614 l 1,0,1
EndSplineSet
EndChar
StartChar: LetterAI
Encoding: 2320 2320 20
Width: 609
GlyphClass: 2
Flags: W
AnchorPoint: "Anchor-2" 409 672 basechar 0
Fore
0 614 m 1,0,1
 13 623 13 623 18 646 c 0,2,3
 21 661 21 661 31 666 c 1,4,-1
 644 666 l 1,5,6
 635 662 635 662 632 641 c 1,7,-1
 626 625 l 1,8,-1
 615 615 l 1,9,-1
 614 614 l 1,10,-1
 390 614 l 1,11,-1
 437 574 l 1,12,13
 537 474 537 474 532 399 c 1,14,-1
 532 395 l 1,15,-1
 532 391 l 1,16,17
 521 291 521 291 416 243 c 0,18,19
 322 200 322 200 266 206 c 0,20,21
 260 207 260 207 255 208 c 0,22,23
 252 209 252 209 246 209 c 1,24,25
 438 263 438 263 450 374 c 0,26,27
 453 412 453 412 437 459 c 0,28,29
 430 481 430 481 419 505 c 1,30,31
 398 544 398 544 371 585 c 1,32,33
 339 621 339 621 309 614 c 0,34,35
 306 613 306 613 302 612 c 0,36,37
 289 608 289 608 274 594 c 1,38,-1
 266 585 l 1,39,-1
 265 584 l 2,40,41
 207 488 207 488 197 468 c 0,42,43
 147 366 147 366 156 298 c 0,44,45
 157 290 157 290 159 283 c 0,46,47
 163 260 163 260 176 238 c 0,48,49
 211 178 211 178 352 119 c 2,50,-1
 490 62 l 1,51,52
 560 31 560 31 563 0 c 0,53,54
 565 -19 565 -19 558 -35 c 0,55,56
 554 -44 554 -44 548 -52 c 0,57,58
 535 -67 535 -67 521 -77 c 1,59,-1
 494 -93 l 1,60,61
 440 -118 440 -118 400 -114 c 2,62,-1
 390 -112 l 2,63,64
 385 -111 385 -111 380 -111 c 1,65,66
 464 -94 464 -94 482 -53 c 0,67,68
 495 -25 495 -25 477 -2 c 1,69,-1
 462 13 l 2,70,71
 459 16 459 16 455 18 c 2,72,-1
 442 27 l 1,73,-1
 289 86 l 2,74,75
 128 149 128 149 88 215 c 0,76,77
 40 296 40 296 86 414 c 0,78,79
 108 473 108 473 155 542 c 1,80,-1
 206 614 l 1,81,-1
 0 614 l 1,0,1
262 659 m 1,82,83
 222 688 222 688 166 823 c 0,84,85
 126 918 126 918 71 910 c 0,86,87
 68 910 68 910 65 909 c 0,88,89
 58 908 58 908 53 906 c 2,90,-1
 34 899 l 2,91,92
 24 896 24 896 25 899 c 0,93,94
 25 900 25 900 30 904 c 0,95,96
 52 923 52 923 106 939 c 0,97,98
 126 944 126 944 136 943 c 0,99,100
 215 943 215 943 227 866 c 1,101,-1
 241 835 l 1,102,103
 290 714 290 714 364 667 c 0,104,105
 374 660 374 660 375 660 c 2,106,-1
 262 659 l 1,82,83
EndSplineSet
EndChar
StartChar: LetterCandraO
Encoding: 2321 2321 21
Width: 1120
GlyphClass: 2
Flags: W
Fore
811 614 m 2,0,1
 779 614 779 614 778 564 c 1,2,-1
 779 105 l 1,3,4
 779 67 779 67 813 67 c 0,5,6
 845 67 845 67 854 98 c 0,7,8
 856 106 856 106 857 105 c 0,9,10
 860 72 860 72 846 47 c 0,11,12
 839 34 839 34 828 23 c 1,13,-1
 812 10 l 1,14,-1
 790 2 l 1,15,16
 780 0 780 0 771 0 c 0,17,18
 732 -1 732 -1 713 27 c 0,19,20
 704 41 704 41 700 62 c 0,21,22
 698 82 698 82 698 91 c 2,23,-1
 698 299 l 1,24,25
 644 251 644 251 552 262 c 0,26,27
 535 263 535 263 518 267 c 2,28,-1
 504 270 l 1,29,30
 562 220 562 220 550 150 c 0,31,32
 548 139 548 139 545 128 c 0,33,34
 522 58 522 58 459 23 c 1,35,36
 422 0 422 0 378 0 c 0,37,38
 226 0 226 0 140 91 c 0,39,40
 95 140 95 140 55 233 c 1,41,-1
 48 272 l 1,42,43
 47 286 47 286 57 268 c 0,44,45
 62 259 62 259 71 241 c 0,46,47
 134 102 134 102 256 75 c 0,48,49
 315 61 315 61 367 76 c 0,50,51
 393 83 393 83 417 98 c 0,52,53
 471 131 471 131 472 177 c 0,54,55
 473 211 473 211 446 242 c 0,56,57
 431 258 431 258 409 274 c 0,58,59
 354 313 354 313 275 324 c 0,60,61
 228 330 228 330 232 342 c 0,62,63
 234 345 234 345 244 351 c 1,64,65
 402 421 402 421 424 494 c 0,66,67
 431 514 431 514 424 533 c 0,68,69
 420 543 420 543 413 553 c 0,70,71
 366 616 366 616 285 612 c 2,72,-1
 279 612 l 2,73,74
 179 604 179 604 77 501 c 1,75,-1
 91 535 l 1,76,77
 193 650 193 650 295 665 c 0,78,79
 337 671 337 671 384 653 c 0,80,81
 406 645 406 645 429 632 c 0,82,83
 504 587 504 587 510 519 c 0,84,85
 515 457 515 457 444 400 c 0,86,87
 406 370 406 370 348 341 c 0,88,89
 360 347 360 347 399 332 c 0,90,91
 419 324 419 324 447 310 c 0,92,93
 464 302 464 302 510 304 c 0,94,95
 519 304 519 304 528 305 c 0,96,97
 662 313 662 313 691 393 c 1,98,99
 693 402 693 402 697 424 c 1,100,-1
 697 564 l 2,101,102
 697 605 697 605 726 614 c 1,103,-1
 543 614 l 1,104,105
 556 623 556 623 561 646 c 0,106,107
 564 662 564 662 573 666 c 1,108,-1
 1153 666 l 1,109,110
 1144 662 1144 662 1141 641 c 1,111,-1
 1135 625 l 1,112,113
 1130 618 1130 618 1123 614 c 1,114,-1
 1024 614 l 2,115,116
 992 614 992 614 991 564 c 1,117,-1
 992 105 l 1,118,119
 992 67 992 67 1026 67 c 0,120,121
 1058 67 1058 67 1067 98 c 0,122,123
 1069 106 1069 106 1070 105 c 0,124,125
 1073 72 1073 72 1059 47 c 0,126,127
 1052 34 1052 34 1041 23 c 1,128,-1
 1025 10 l 1,129,-1
 1002 2 l 2,130,131
 994 0 994 0 984 0 c 0,132,133
 945 -1 945 -1 926 27 c 0,134,135
 917 41 917 41 913 62 c 0,136,137
 911 82 911 82 911 91 c 2,138,-1
 911 564 l 2,139,140
 911 605 911 605 939 614 c 1,141,-1
 811 614 l 2,0,1
655 885 m 0,142,143
 640 935 640 935 644 952 c 0,144,145
 644 955 644 955 645 957 c 0,146,147
 647 962 647 962 652 955 c 2,148,-1
 659 944 l 1,149,-1
 670 922 l 2,150,151
 731 795 731 795 853 786 c 0,152,153
 923 781 923 781 989 815 c 0,154,155
 1021 831 1021 831 1053 857 c 0,156,157
 1086 885 1086 885 1107 913 c 1,158,-1
 1129 951 l 1,159,-1
 1131 951 l 1,160,-1
 1132 949 l 1,161,162
 1134 932 1134 932 1120 901 c 2,163,-1
 1113 885 l 1,164,165
 1054 762 1054 762 947 723 c 0,166,167
 880 698 880 698 818 716 c 0,168,169
 787 725 787 725 758 744 c 0,170,171
 684 793 684 793 655 885 c 0,142,143
EndSplineSet
EndChar
StartChar: LetterShortO
Encoding: 2322 2322 22
Width: 1119
GlyphClass: 2
Flags: W
Fore
811 614 m 2,0,1
 779 614 779 614 778 564 c 1,2,-1
 779 105 l 1,3,4
 779 67 779 67 813 67 c 0,5,6
 844 67 844 67 854 98 c 0,7,8
 856 102 856 102 857 105 c 1,9,10
 858 71 858 71 846 47 c 0,11,12
 839 33 839 33 828 23 c 2,13,-1
 812 10 l 1,14,-1
 790 2 l 1,15,16
 780 0 780 0 771 0 c 0,17,18
 731 -1 731 -1 713 27 c 0,19,20
 704 41 704 41 700 62 c 0,21,22
 698 82 698 82 698 91 c 2,23,-1
 698 299 l 1,24,25
 644 251 644 251 552 262 c 0,26,27
 535 263 535 263 518 267 c 2,28,-1
 504 270 l 1,29,30
 562 220 562 220 550 150 c 0,31,32
 548 139 548 139 545 128 c 0,33,34
 522 58 522 58 459 23 c 1,35,36
 422 0 422 0 378 0 c 0,37,38
 231 0 231 0 148 86 c 1,39,40
 98 140 98 140 55 233 c 1,41,-1
 46 273 l 1,42,43
 45 286 45 286 54 272 c 0,44,45
 60 263 60 263 71 241 c 0,46,47
 134 102 134 102 256 75 c 0,48,49
 315 61 315 61 367 76 c 0,50,51
 393 83 393 83 417 98 c 0,52,53
 471 131 471 131 472 177 c 0,54,55
 473 211 473 211 446 242 c 0,56,57
 431 258 431 258 409 274 c 0,58,59
 354 313 354 313 275 324 c 0,60,61
 228 330 228 330 232 342 c 0,62,63
 234 345 234 345 244 351 c 1,64,65
 402 421 402 421 424 494 c 0,66,67
 431 516 431 516 425 534 c 0,68,69
 421 544 421 544 413 553 c 1,70,71
 367 617 367 617 285 612 c 2,72,-1
 279 612 l 2,73,74
 179 604 179 604 77 501 c 1,75,-1
 91 535 l 1,76,77
 193 650 193 650 295 665 c 0,78,79
 337 671 337 671 384 653 c 0,80,81
 406 645 406 645 429 632 c 0,82,83
 507 584 507 584 510 519 c 0,84,85
 513 456 513 456 441 398 c 0,86,87
 404 369 404 369 348 341 c 1,88,89
 388 341 388 341 447 310 c 0,90,91
 464 302 464 302 510 304 c 0,92,93
 519 304 519 304 528 305 c 0,94,95
 664 314 664 314 691 393 c 0,96,97
 694 400 694 400 697 424 c 1,98,-1
 697 564 l 2,99,100
 697 605 697 605 726 614 c 1,101,-1
 543 614 l 1,102,103
 556 623 556 623 561 646 c 0,104,105
 564 662 564 662 573 666 c 1,106,-1
 1153 666 l 1,107,108
 1144 662 1144 662 1141 641 c 1,109,-1
 1135 625 l 1,110,111
 1130 618 1130 618 1123 614 c 1,112,-1
 1024 614 l 2,113,114
 992 614 992 614 991 564 c 1,115,-1
 992 105 l 1,116,117
 992 67 992 67 1026 67 c 0,118,119
 1057 67 1057 67 1067 98 c 0,120,121
 1069 102 1069 102 1070 105 c 1,122,123
 1071 71 1071 71 1059 47 c 0,124,125
 1052 33 1052 33 1041 23 c 2,126,-1
 1025 10 l 1,127,-1
 1002 2 l 2,128,129
 994 0 994 0 984 0 c 0,130,131
 944 -1 944 -1 926 27 c 0,132,133
 917 41 917 41 913 62 c 0,134,135
 910 77 910 77 910 91 c 2,136,-1
 910 564 l 2,137,138
 910 605 910 605 939 614 c 1,139,-1
 811 614 l 2,0,1
603 851 m 0,140,141
 642 802 642 802 716 801 c 0,142,143
 746 801 746 801 859 818 c 0,144,145
 936 830 936 830 968 776 c 1,146,-1
 981 747 l 1,147,148
 987 728 987 728 990 703 c 1,149,-1
 993 663 l 1,150,-1
 907 663 l 1,151,-1
 905 710 l 1,152,153
 896 760 896 760 853 758 c 1,154,155
 743 746 743 746 672 763 c 1,156,-1
 633 776 l 1,157,-1
 616 784 l 1,158,159
 589 802 589 802 574 823 c 0,160,161
 554 854 554 854 560 894 c 0,162,163
 562 910 562 910 569 928 c 0,164,165
 570 931 570 931 573 938 c 1,166,167
 591 966 591 966 593 966 c 1,168,-1
 592 924 l 1,169,170
 589 890 589 890 595 868 c 0,171,172
 598 858 598 858 603 851 c 0,140,141
EndSplineSet
EndChar
StartChar: LetterO
Encoding: 2323 2323 23
Width: 1118
GlyphClass: 2
Flags: W
Fore
889 665 m 1,0,1
 848 692 848 692 793 828 c 1,2,3
 751 926 751 926 691 914 c 2,4,-1
 680 911 l 1,5,-1
 660 904 l 2,6,7
 650 901 650 901 651 904 c 0,8,9
 651 905 651 905 656 909 c 0,10,11
 687 934 687 934 733 944 c 0,12,13
 751 949 751 949 763 948 c 0,14,15
 822 943 822 943 865 845 c 0,16,17
 864 846 864 846 867 840 c 0,18,19
 929 700 929 700 979 671 c 1,20,21
 983 667 983 667 990 665 c 1,22,-1
 899 665 l 1,23,-1
 889 665 l 1,0,1
811 614 m 2,24,25
 779 614 779 614 778 564 c 1,26,-1
 778 105 l 2,27,28
 778 67 778 67 813 67 c 0,29,30
 844 67 844 67 854 98 c 0,31,32
 856 102 856 102 857 105 c 1,33,34
 858 71 858 71 846 47 c 0,35,36
 839 33 839 33 828 23 c 2,37,-1
 812 10 l 1,38,-1
 790 2 l 1,39,40
 780 0 780 0 771 0 c 0,41,42
 732 -1 732 -1 713 27 c 0,43,44
 704 41 704 41 700 62 c 0,45,46
 698 82 698 82 698 91 c 2,47,-1
 698 299 l 1,48,49
 643 251 643 251 551 262 c 0,50,51
 535 263 535 263 518 267 c 2,52,-1
 504 270 l 1,53,54
 562 220 562 220 550 150 c 0,55,56
 548 139 548 139 545 128 c 0,57,58
 522 58 522 58 459 23 c 1,59,60
 422 0 422 0 378 0 c 0,61,62
 239 0 239 0 165 65 c 1,63,64
 107 114 107 114 55 233 c 1,65,-1
 48 272 l 1,66,67
 47 286 47 286 57 268 c 0,68,69
 62 259 62 259 71 241 c 0,70,71
 134 102 134 102 256 75 c 0,72,73
 315 61 315 61 367 76 c 0,74,75
 393 83 393 83 417 98 c 0,76,77
 471 131 471 131 472 177 c 0,78,79
 473 211 473 211 446 242 c 0,80,81
 431 258 431 258 409 274 c 0,82,83
 354 313 354 313 275 324 c 0,84,85
 228 330 228 330 232 342 c 0,86,87
 234 345 234 345 244 351 c 1,88,89
 402 421 402 421 424 494 c 0,90,91
 431 516 431 516 425 534 c 0,92,93
 421 544 421 544 413 553 c 1,94,95
 367 617 367 617 285 612 c 2,96,-1
 279 612 l 2,97,98
 179 604 179 604 77 501 c 1,99,-1
 91 535 l 1,100,101
 193 650 193 650 295 665 c 0,102,103
 337 671 337 671 384 653 c 0,104,105
 406 645 406 645 429 632 c 0,106,107
 507 584 507 584 510 519 c 0,108,109
 513 456 513 456 441 398 c 0,110,111
 404 369 404 369 348 341 c 1,112,113
 388 341 388 341 447 310 c 0,114,115
 464 302 464 302 510 304 c 0,116,117
 519 304 519 304 528 305 c 0,118,119
 662 313 662 313 691 393 c 1,120,121
 693 402 693 402 697 424 c 1,122,-1
 697 564 l 2,123,124
 697 605 697 605 726 614 c 1,125,-1
 543 614 l 1,126,127
 556 623 556 623 561 646 c 0,128,129
 564 662 564 662 573 666 c 1,130,-1
 1153 666 l 1,131,132
 1144 662 1144 662 1141 641 c 1,133,-1
 1135 625 l 1,134,135
 1130 618 1130 618 1123 614 c 1,136,-1
 1024 614 l 2,137,138
 992 614 992 614 991 564 c 1,139,-1
 992 105 l 1,140,141
 992 67 992 67 1026 67 c 0,142,143
 1057 67 1057 67 1067 98 c 0,144,145
 1069 102 1069 102 1070 105 c 1,146,147
 1071 71 1071 71 1059 47 c 0,148,149
 1052 33 1052 33 1041 23 c 2,150,-1
 1025 10 l 1,151,-1
 1002 2 l 2,152,153
 994 0 994 0 984 0 c 0,154,155
 948 -1 948 -1 928 27 c 0,156,157
 919 41 919 41 913 62 c 0,158,159
 910 77 910 77 910 91 c 2,160,-1
 910 564 l 2,161,162
 910 605 910 605 939 614 c 1,163,-1
 811 614 l 2,24,25
EndSplineSet
EndChar
StartChar: LetterAU
Encoding: 2324 2324 24
Width: 1118
GlyphClass: 2
Flags: W
Fore
811 614 m 2,0,1
 779 614 779 614 778 564 c 1,2,-1
 779 105 l 1,3,4
 779 67 779 67 813 67 c 0,5,6
 844 67 844 67 854 98 c 0,7,8
 856 102 856 102 857 105 c 1,9,10
 858 71 858 71 846 47 c 0,11,12
 839 33 839 33 828 23 c 2,13,-1
 812 10 l 1,14,-1
 790 2 l 1,15,16
 780 0 780 0 771 0 c 0,17,18
 731 -1 731 -1 713 27 c 0,19,20
 704 41 704 41 700 62 c 0,21,22
 698 82 698 82 698 91 c 2,23,-1
 698 299 l 1,24,25
 644 251 644 251 552 262 c 0,26,27
 535 263 535 263 518 267 c 2,28,-1
 504 270 l 1,29,30
 562 220 562 220 550 150 c 0,31,32
 548 139 548 139 545 128 c 0,33,34
 522 58 522 58 459 23 c 1,35,36
 422 0 422 0 378 0 c 0,37,38
 195 0 195 0 106 131 c 0,39,40
 82 168 82 168 55 233 c 1,41,-1
 48 272 l 1,42,43
 47 286 47 286 57 268 c 0,44,45
 62 259 62 259 71 241 c 0,46,47
 134 102 134 102 256 75 c 0,48,49
 315 61 315 61 367 76 c 0,50,51
 393 83 393 83 417 98 c 0,52,53
 471 131 471 131 472 177 c 0,54,55
 473 211 473 211 446 242 c 0,56,57
 431 258 431 258 409 274 c 0,58,59
 354 313 354 313 275 324 c 0,60,61
 228 330 228 330 232 342 c 0,62,63
 234 345 234 345 244 351 c 1,64,65
 402 421 402 421 424 494 c 0,66,67
 431 516 431 516 425 534 c 0,68,69
 421 544 421 544 413 553 c 1,70,71
 367 617 367 617 285 612 c 2,72,-1
 279 612 l 2,73,74
 179 604 179 604 77 501 c 1,75,-1
 91 535 l 1,76,77
 193 650 193 650 295 665 c 0,78,79
 337 671 337 671 384 653 c 0,80,81
 406 645 406 645 429 632 c 0,82,83
 507 584 507 584 510 519 c 0,84,85
 513 456 513 456 441 398 c 0,86,87
 404 369 404 369 348 341 c 1,88,89
 388 341 388 341 447 310 c 0,90,91
 464 302 464 302 510 304 c 0,92,93
 519 304 519 304 528 305 c 0,94,95
 662 313 662 313 691 393 c 1,96,97
 693 402 693 402 697 424 c 1,98,-1
 697 564 l 2,99,100
 697 605 697 605 726 614 c 1,101,-1
 543 614 l 1,102,103
 556 623 556 623 561 646 c 0,104,105
 564 662 564 662 573 666 c 1,106,-1
 1153 666 l 1,107,108
 1144 662 1144 662 1141 641 c 1,109,-1
 1135 625 l 1,110,111
 1130 618 1130 618 1123 614 c 1,112,-1
 1024 614 l 2,113,114
 992 614 992 614 991 564 c 1,115,-1
 992 105 l 1,116,117
 992 67 992 67 1026 67 c 0,118,119
 1057 67 1057 67 1067 98 c 0,120,121
 1069 102 1069 102 1070 105 c 1,122,123
 1071 71 1071 71 1059 47 c 0,124,125
 1052 33 1052 33 1041 23 c 2,126,-1
 1025 10 l 1,127,-1
 1002 2 l 2,128,129
 994 0 994 0 984 0 c 0,130,131
 948 -1 948 -1 928 27 c 0,132,133
 919 41 919 41 913 62 c 0,134,135
 910 77 910 77 910 91 c 2,136,-1
 910 564 l 2,137,138
 910 605 910 605 939 614 c 1,139,-1
 811 614 l 2,0,1
820 939 m 0,140,141
 911 933 911 933 968 754 c 0,142,143
 983 707 983 707 989 666 c 1,144,-1
 847 666 l 1,145,146
 808 693 808 693 728 765 c 0,147,148
 665 822 665 822 621 833 c 0,149,150
 599 838 599 838 572 834 c 0,151,152
 557 831 557 831 541 826 c 0,153,154
 532 824 532 824 530 825 c 0,155,156
 529 826 529 826 535 831 c 1,157,158
 556 854 556 854 601 867 c 0,159,160
 619 873 619 873 633 872 c 0,161,162
 707 868 707 868 808 782 c 0,163,164
 862 736 862 736 884 722 c 0,165,166
 892 718 892 718 899 716 c 1,167,-1
 868 811 l 1,168,-1
 865 818 l 1,169,-1
 865 819 l 1,170,171
 822 928 822 928 739 900 c 2,172,-1
 724 895 l 2,173,174
 716 893 716 893 714 894 c 0,175,176
 713 895 713 895 718 900 c 0,177,178
 742 921 742 921 788 935 c 0,179,180
 809 940 809 940 820 939 c 0,140,141
EndSplineSet
EndChar
StartChar: LetterKA
Encoding: 2325 2325 25
Width: 911
GlyphClass: 2
Flags: W
AnchorPoint: "Anchor-2" 487 665 basechar 0
AnchorPoint: "Anchor-0" 505 -2 basechar 0
Fore
441 564 m 2,0,1
 441 605 441 605 470 614 c 1,2,-1
 0 614 l 1,3,4
 13 623 13 623 18 646 c 0,5,6
 21 661 21 661 31 666 c 1,7,-1
 946 666 l 1,8,9
 937 662 937 662 934 641 c 1,10,-1
 928 625 l 1,11,-1
 918 615 l 1,12,-1
 916 614 l 1,13,-1
 555 614 l 2,14,15
 523 614 523 614 522 564 c 1,16,-1
 522 369 l 1,17,18
 570 443 570 443 635 492 c 1,19,20
 675 520 675 520 732 519 c 1,21,22
 828 514 828 514 856 435 c 1,23,24
 877 381 877 381 860 315 c 0,25,26
 852 283 852 283 836 249 c 0,27,28
 795 166 795 166 741 128 c 1,29,30
 701 98 701 98 702 105 c 0,31,32
 702 107 702 107 705 110 c 0,33,34
 821 258 821 258 807 349 c 0,35,36
 807 355 807 355 805 361 c 0,37,38
 788 422 788 422 730 445 c 1,39,40
 710 455 710 455 692 454 c 1,41,42
 633 446 633 446 568 387 c 1,43,44
 532 352 532 352 522 337 c 1,45,-1
 522 105 l 2,46,47
 522 67 522 67 556 67 c 0,48,49
 581 67 581 67 597 98 c 0,50,51
 600 104 600 104 600 105 c 0,52,53
 602 83 602 83 596 64 c 0,54,55
 594 55 594 55 589 46 c 0,56,57
 583 33 583 33 571 23 c 2,58,-1
 555 10 l 1,59,-1
 532 2 l 1,60,61
 520 0 520 0 514 0 c 0,62,63
 475 -1 475 -1 456 27 c 0,64,65
 447 41 447 41 443 62 c 0,66,67
 441 82 441 82 441 91 c 2,68,-1
 441 225 l 1,69,70
 358 111 358 111 245 114 c 2,71,-1
 238 114 l 2,72,73
 148 122 148 122 92 197 c 0,74,75
 46 258 46 258 46 335 c 0,76,77
 46 416 46 416 109 473 c 1,78,79
 175 535 175 535 265 524 c 1,80,-1
 287 520 l 2,81,82
 366 503 366 503 441 434 c 1,83,-1
 441 564 l 2,0,1
305 169 m 0,84,85
 362 170 362 170 411 227 c 2,86,-1
 441 263 l 1,87,-1
 441 398 l 1,88,89
 366 478 366 478 271 477 c 0,90,91
 213 475 213 475 172 432 c 0,92,93
 133 392 133 392 134 327 c 1,94,-1
 134 322 l 1,95,96
 137 266 137 266 183 217 c 0,97,98
 230 168 230 168 305 169 c 0,84,85
EndSplineSet
EndChar
StartChar: LetterKHA
Encoding: 2326 2326 26
Width: 952
GlyphClass: 2
Flags: W
AnchorPoint: "Anchor-2" 770 667 basechar 0
AnchorPoint: "Anchor-0" 802 -2 basechar 0
Fore
823 564 m 1,0,-1
 823 105 l 2,1,2
 823 67 823 67 857 67 c 0,3,4
 888 67 888 67 898 98 c 0,5,6
 900 102 900 102 901 105 c 1,7,8
 902 71 902 71 890 47 c 0,9,10
 883 33 883 33 872 23 c 2,11,-1
 856 10 l 1,12,-1
 834 2 l 1,13,14
 824 0 824 0 815 0 c 0,15,16
 775 -1 775 -1 757 27 c 0,17,18
 748 41 748 41 744 62 c 0,19,20
 742 82 742 82 742 91 c 2,21,-1
 742 93 l 1,22,-1
 742 127 l 1,23,-1
 741 150 l 1,24,25
 739 155 739 155 732 154 c 2,26,-1
 722 151 l 1,27,-1
 700 141 l 1,28,-1
 653 98 l 1,29,30
 517 -1 517 -1 403 0 c 0,31,32
 247 3 247 3 172 170 c 0,33,34
 152 216 152 216 127 231 c 0,35,36
 82 258 82 258 82 261 c 1,37,38
 40 293 40 293 45 330 c 0,39,40
 45 333 45 333 46 336 c 2,41,-1
 50 348 l 1,42,43
 65 385 65 385 100 391 c 0,44,45
 104 392 104 392 125 390 c 0,46,47
 150 387 150 387 174 358 c 0,48,49
 193 336 193 336 211 336 c 0,50,51
 225 337 225 337 249 354 c 0,52,53
 316 405 316 405 314 468 c 0,54,55
 309 556 309 556 198 601 c 1,56,-1
 155 614 l 1,57,-1
 0 614 l 1,58,59
 13 623 13 623 18 646 c 0,60,61
 21 661 21 661 31 666 c 1,62,-1
 984 666 l 1,63,64
 975 662 975 662 972 641 c 1,65,-1
 966 625 l 1,66,-1
 955 615 l 1,67,-1
 954 614 l 1,68,-1
 856 614 l 2,69,70
 824 614 824 614 823 564 c 1,0,-1
594 481 m 2,71,72
 535 479 535 479 501 429 c 1,73,74
 478 400 478 400 478 360 c 0,75,76
 478 286 478 286 539 245 c 1,77,78
 573 220 573 220 616 218 c 0,79,80
 639 217 639 217 660 225 c 0,81,82
 672 230 672 230 683 238 c 0,83,84
 702 250 702 250 717 265 c 1,85,86
 734 285 734 285 742 302 c 1,87,-1
 742 400 l 1,88,89
 690 481 690 481 599 481 c 2,90,-1
 594 481 l 2,71,72
742 453 m 1,91,-1
 742 564 l 2,92,93
 742 605 742 605 771 614 c 1,94,-1
 251 613 l 1,95,96
 316 600 316 600 364 552 c 0,97,98
 408 508 408 508 404 467 c 1,99,-1
 404 463 l 1,100,101
 394 356 394 356 286 307 c 1,102,103
 238 288 238 288 213 289 c 1,104,105
 234 259 234 259 252 203 c 0,106,107
 294 82 294 82 387 68 c 0,108,109
 443 59 443 59 502 76 c 0,110,111
 529 84 529 84 557 98 c 0,112,113
 632 136 632 136 689 178 c 0,114,115
 738 215 738 215 742 223 c 1,116,-1
 742 249 l 1,117,118
 732 224 732 224 680 199 c 1,119,120
 634 175 634 175 585 176 c 1,121,122
 476 183 476 183 425 264 c 0,123,124
 396 312 396 312 398 369 c 1,125,-1
 398 373 l 1,126,127
 401 455 401 455 470 506 c 1,128,129
 517 539 517 539 580 539 c 2,130,-1
 587 539 l 2,131,132
 656 535 656 535 719 475 c 2,133,-1
 742 453 l 1,91,-1
EndSplineSet
EndChar
StartChar: LetterGA
Encoding: 2327 2327 27
Width: 700
GlyphClass: 2
Flags: W
Fore
137 144 m 0,0,1
 167 110 167 110 210 121 c 0,2,3
 229 126 229 126 250 139 c 0,4,5
 314 180 314 180 304 297 c 0,6,7
 303 309 303 309 301 322 c 1,8,9
 222 352 222 352 174 327 c 0,10,11
 150 315 150 315 132 288 c 0,12,13
 98 236 98 236 112 189 c 0,14,15
 118 166 118 166 137 144 c 0,0,1
215 73 m 0,16,17
 168 70 168 70 131 87 c 0,18,19
 113 96 113 96 96 110 c 0,20,21
 39 158 39 158 45 233 c 0,22,23
 49 293 49 293 95 340 c 0,24,25
 138 385 138 385 225 385 c 0,26,27
 259 385 259 385 298 364 c 1,28,29
 275 455 275 455 252 504 c 0,30,31
 224 562 224 562 182 614 c 1,32,-1
 0 614 l 1,33,34
 13 623 13 623 18 646 c 0,35,36
 21 661 21 661 31 666 c 1,37,-1
 731 666 l 1,38,39
 722 662 722 662 719 641 c 1,40,-1
 713 625 l 1,41,-1
 702 615 l 1,42,-1
 701 614 l 1,43,-1
 603 614 l 2,44,45
 571 614 571 614 570 564 c 1,46,-1
 570 105 l 2,47,48
 570 67 570 67 604 67 c 0,49,50
 635 67 635 67 645 98 c 0,51,52
 647 102 647 102 648 105 c 1,53,54
 649 72 649 72 637 47 c 0,55,56
 631 34 631 34 620 23 c 1,57,-1
 603 10 l 1,58,-1
 581 2 l 2,59,60
 573 0 573 0 562 0 c 0,61,62
 522 -1 522 -1 504 26 c 0,63,64
 495 40 495 40 492 62 c 0,65,66
 489 77 489 77 489 91 c 2,67,-1
 489 564 l 2,68,69
 489 605 489 605 518 614 c 1,70,-1
 238 614 l 1,71,72
 283 562 283 562 330 475 c 0,73,74
 375 390 375 390 379 313 c 0,75,76
 383 244 383 244 362 190 c 0,77,78
 351 162 351 162 334 139 c 0,79,80
 287 79 287 79 215 73 c 0,16,17
EndSplineSet
EndChar
StartChar: LetterGHA
Encoding: 2328 2328 28
Width: 676
GlyphClass: 2
Flags: W
AnchorPoint: "Anchor-2" 498 666 basechar 0
AnchorPoint: "Anchor-0" 539 -2 basechar 0
Fore
477 176 m 1,0,1
 350 18 350 18 219 46 c 0,2,3
 204 50 204 50 188 56 c 1,4,5
 138 79 138 79 109 116 c 0,6,7
 69 165 69 165 72 219 c 1,8,-1
 72 223 l 1,9,10
 74 243 74 243 82 261 c 0,11,12
 111 329 111 329 197 359 c 1,13,14
 55 386 55 386 60 470 c 0,15,16
 61 487 61 487 68 507 c 0,17,18
 83 548 83 548 191 614 c 1,19,-1
 0 614 l 1,20,21
 13 623 13 623 18 646 c 0,22,23
 21 661 21 661 31 666 c 1,24,-1
 718 666 l 1,25,26
 709 662 709 662 706 641 c 1,27,-1
 699 625 l 1,28,-1
 689 615 l 1,29,-1
 688 614 l 1,30,-1
 590 614 l 2,31,32
 558 614 558 614 557 565 c 1,33,-1
 557 105 l 2,34,35
 557 67 557 67 591 67 c 0,36,37
 622 67 622 67 632 98 c 0,38,39
 634 102 634 102 635 105 c 1,40,41
 636 71 636 71 624 47 c 0,42,43
 617 33 617 33 606 23 c 2,44,-1
 590 10 l 1,45,-1
 567 2 l 2,46,47
 559 0 559 0 549 0 c 0,48,49
 524 -1 524 -1 507 11 c 0,50,51
 498 18 498 18 492 28 c 0,52,53
 482 41 482 41 479 63 c 0,54,55
 477 83 477 83 477 91 c 2,56,-1
 477 176 l 1,0,1
477 565 m 2,57,58
 477 608 477 608 505 614 c 1,59,-1
 242 614 l 1,60,61
 150 554 150 554 145 484 c 0,62,63
 143 460 143 460 152 442 c 0,64,65
 157 432 157 432 165 424 c 0,66,67
 176 413 176 413 194 404 c 0,68,69
 226 389 226 389 269 394 c 0,70,71
 291 396 291 396 316 403 c 0,72,73
 341 411 341 411 353 409 c 0,74,75
 355 408 355 408 357 401 c 0,76,77
 357 396 357 396 351 392 c 0,78,79
 350 391 350 391 347 389 c 1,80,81
 259 361 259 361 232 346 c 0,82,83
 172 312 172 312 172 244 c 2,84,-1
 172 231 l 1,85,86
 176 153 176 153 237 117 c 1,87,88
 278 91 278 91 322 100 c 0,89,90
 345 104 345 104 368 117 c 0,91,92
 436 154 436 154 477 259 c 1,93,-1
 477 565 l 2,57,58
EndSplineSet
EndChar
StartChar: LetterNGA
Encoding: 2329 2329 29
Width: 809
GlyphClass: 2
Flags: W
Fore
414 614 m 1,0,-1
 0 614 l 1,1,2
 13 623 13 623 18 646 c 0,3,4
 21 661 21 661 31 666 c 1,5,-1
 848 666 l 1,6,7
 839 662 839 662 836 641 c 1,8,-1
 829 625 l 1,9,-1
 819 615 l 1,10,-1
 818 614 l 1,11,-1
 494 614 l 1,12,13
 538 595 538 595 551 551 c 0,14,15
 558 529 558 529 553 513 c 0,16,17
 551 504 551 504 545 496 c 1,18,19
 532 468 532 468 489 460 c 1,20,-1
 461 459 l 2,21,22
 455 459 455 459 372 475 c 0,23,24
 332 482 332 482 304 481 c 0,25,26
 300 480 300 480 297 480 c 2,27,-1
 274 477 l 2,28,29
 208 467 208 467 190 416 c 0,30,31
 184 396 184 396 187 381 c 0,32,33
 189 373 189 373 194 365 c 2,34,-1
 205 348 l 2,35,36
 207 345 207 345 210 343 c 0,37,38
 231 324 231 324 266 322 c 0,39,40
 435 308 435 308 481 294 c 0,41,42
 567 266 567 266 590 190 c 0,43,44
 603 145 603 145 584 107 c 0,45,46
 574 86 574 86 555 68 c 0,47,48
 488 4 488 4 389 -2 c 0,49,50
 244 -11 244 -11 104 139 c 1,51,-1
 54 197 l 1,52,53
 46 210 46 210 48 215 c 0,54,55
 49 217 49 217 51 216 c 0,56,57
 52 216 52 216 55 214 c 2,58,-1
 62 207 l 1,59,-1
 67 203 l 1,60,61
 169 99 169 99 257 70 c 2,62,-1
 262 68 l 2,63,64
 315 48 315 48 370 53 c 0,65,66
 386 55 386 55 403 59 c 0,67,68
 481 78 481 78 502 137 c 0,69,70
 507 152 507 152 505 167 c 0,71,72
 505 175 505 175 502 183 c 0,73,74
 484 246 484 246 366 261 c 1,75,-1
 246 272 l 1,76,77
 176 286 176 286 145 313 c 0,78,79
 100 351 100 351 110 417 c 0,80,81
 112 427 112 427 115 438 c 0,82,83
 142 536 142 536 282 536 c 2,84,-1
 287 536 l 2,85,86
 327 535 327 535 397 519 c 0,87,88
 464 502 464 502 478 537 c 0,89,90
 483 549 483 549 480 560 c 0,91,92
 479 566 479 566 475 572 c 0,93,94
 470 582 470 582 458 592 c 0,95,96
 441 608 441 608 414 614 c 1,0,-1
760 399 m 1,97,98
 764 380 764 380 763 363 c 0,99,100
 762 360 762 360 762 356 c 0,101,102
 760 344 760 344 756 334 c 0,103,104
 752 321 752 321 742 310 c 0,105,106
 717 279 717 279 689 286 c 0,107,108
 682 288 682 288 676 292 c 0,109,110
 651 308 651 308 652 339 c 1,111,112
 654 352 654 352 662 360 c 0,113,114
 675 375 675 375 700 374 c 0,115,116
 722 373 722 373 741 384 c 0,117,118
 750 390 750 390 760 399 c 1,97,98
EndSplineSet
EndChar
StartChar: LetterCA
Encoding: 2330 2330 30
Width: 815
GlyphClass: 2
Flags: W
AnchorPoint: "Anchor-2" 645 667 basechar 0
AnchorPoint: "Anchor-0" 659 -2 basechar 0
Fore
601 91 m 2,0,-1
 601 240 l 1,1,2
 561 165 561 165 526 130 c 0,3,4
 454 58 454 58 382 61 c 0,5,6
 291 67 291 67 242 129 c 0,7,8
 209 171 209 171 209 238 c 1,9,10
 225 383 225 383 356 422 c 0,11,12
 403 436 403 436 454 434 c 0,13,14
 460 434 460 434 467 433 c 0,15,16
 417 442 417 442 365 438 c 0,17,18
 340 436 340 436 314 431 c 0,19,20
 246 418 246 418 206 416 c 0,21,22
 161 415 161 415 120 427 c 0,23,24
 98 434 98 434 77 444 c 0,25,26
 51 458 51 458 47 466 c 0,27,28
 44 472 44 472 50 474 c 0,29,30
 53 476 53 476 60 475 c 0,31,32
 78 473 78 473 88 470 c 0,33,34
 132 460 132 460 187 462 c 2,35,-1
 197 462 l 2,36,37
 225 464 225 464 238 466 c 0,38,39
 248 468 248 468 266 472 c 2,40,-1
 362 498 l 1,41,42
 412 506 412 506 447 505 c 0,43,44
 559 504 559 504 574 450 c 0,45,46
 579 435 579 435 569 423 c 0,47,48
 564 417 564 417 556 412 c 2,49,-1
 539 401 l 1,50,-1
 523 398 l 2,51,52
 464 386 464 386 454 389 c 0,53,54
 451 390 451 390 443 390 c 0,55,56
 370 388 370 388 332 348 c 0,57,58
 286 298 286 298 293 219 c 0,59,60
 298 165 298 165 348 135 c 1,61,62
 386 114 386 114 417 117 c 0,63,64
 420 117 420 117 422 117 c 0,65,66
 498 128 498 128 568 243 c 0,67,68
 586 271 586 271 601 332 c 1,69,-1
 601 565 l 2,70,71
 601 607 601 607 630 614 c 1,72,-1
 0 614 l 1,73,74
 13 623 13 623 18 646 c 0,75,76
 21 661 21 661 31 666 c 1,77,-1
 843 666 l 1,78,79
 835 662 835 662 830 641 c 1,80,-1
 824 625 l 1,81,-1
 814 615 l 1,82,-1
 813 614 l 1,83,-1
 715 614 l 2,84,85
 683 614 683 614 682 565 c 1,86,-1
 682 105 l 2,87,88
 682 67 682 67 716 67 c 0,89,90
 747 67 747 67 757 98 c 0,91,92
 759 102 759 102 760 105 c 1,93,94
 761 71 761 71 749 47 c 0,95,96
 742 33 742 33 731 23 c 2,97,-1
 715 10 l 1,98,-1
 692 2 l 2,99,100
 684 0 684 0 674 0 c 0,101,102
 633 -1 633 -1 615 27 c 0,103,104
 606 41 606 41 603 62 c 0,105,106
 601 82 601 82 601 91 c 2,0,-1
EndSplineSet
EndChar
StartChar: LetterCHA
Encoding: 2331 2331 31
Width: 685
GlyphClass: 2
Flags: W
Fore
51 152 m 0,0,1
 40 207 40 207 72 252 c 0,2,3
 88 276 88 276 115 297 c 0,4,5
 145 321 145 321 168 324 c 0,6,7
 216 329 216 329 208 330 c 1,8,9
 184 329 184 329 165 335 c 0,10,11
 153 338 153 338 143 344 c 0,12,13
 127 353 127 353 115 370 c 1,14,15
 77 414 77 414 86 467 c 0,16,17
 88 478 88 478 92 490 c 0,18,19
 120 565 120 565 222 614 c 1,20,21
 224 616 224 616 126 614 c 1,22,-1
 0 614 l 1,23,24
 13 623 13 623 18 646 c 0,25,26
 21 661 21 661 31 666 c 1,27,-1
 725 666 l 1,28,29
 716 662 716 662 713 641 c 1,30,-1
 707 625 l 1,31,-1
 696 615 l 1,32,-1
 695 614 l 1,33,-1
 538 614 l 1,34,35
 590 587 590 587 589 537 c 0,36,37
 588 506 588 506 547 485 c 1,38,-1
 590 473 l 1,39,40
 620 459 620 459 637 424 c 1,41,42
 647 399 647 399 644 354 c 0,43,44
 642 336 642 336 639 315 c 0,45,46
 627 244 627 244 547 145 c 0,47,48
 480 64 480 64 383 25 c 0,49,50
 296 -10 296 -10 221 0 c 0,51,52
 200 3 200 3 180 10 c 0,53,54
 72 48 72 48 51 152 c 0,0,1
467 344 m 0,55,56
 476 317 476 317 513 318 c 1,57,58
 486 294 486 294 457 302 c 0,59,60
 444 305 444 305 431 314 c 0,61,62
 393 343 393 343 392 388 c 0,63,64
 391 414 391 414 405 434 c 0,65,66
 411 444 411 444 421 452 c 0,67,68
 435 464 435 464 458 473 c 0,69,70
 498 488 498 488 513 522 c 0,71,72
 518 533 518 533 517 544 c 0,73,74
 515 582 515 582 485 604 c 0,75,76
 472 614 472 614 461 614 c 2,77,-1
 300 614 l 1,78,79
 231 587 231 587 190 526 c 1,80,81
 144 454 144 454 187 406 c 0,82,83
 227 363 227 363 279 361 c 0,84,85
 328 359 328 359 334 343 c 0,86,87
 338 332 338 332 329 325 c 0,88,89
 324 321 324 321 316 317 c 0,90,91
 312 315 312 315 287 309 c 0,92,93
 217 292 217 292 174 250 c 0,94,95
 134 211 134 211 144 151 c 0,96,97
 160 63 160 63 268 51 c 0,98,99
 305 47 305 47 352 64 c 0,100,101
 376 73 376 73 403 88 c 0,102,103
 464 121 464 121 520 197 c 1,104,105
 585 282 585 282 580 351 c 0,106,107
 580 353 580 353 580 356 c 0,108,109
 573 419 573 419 518 420 c 0,110,111
 467 421 467 421 461 387 c 1,112,-1
 461 365 l 1,113,114
 463 355 463 355 467 344 c 0,55,56
EndSplineSet
EndChar
StartChar: LetterJA
Encoding: 2332 2332 32
Width: 873
GlyphClass: 2
Flags: W
AnchorPoint: "Anchor-2" 716 667 basechar 0
AnchorPoint: "Anchor-0" 720 -2 basechar 0
Fore
414 414 m 0,0,1
 465 389 465 389 535 389 c 0,2,3
 573 389 573 389 606 401 c 0,4,5
 660 420 660 420 660 455 c 2,6,-1
 660 564 l 2,7,8
 660 605 660 605 689 614 c 1,9,-1
 0 614 l 1,10,11
 13 623 13 623 18 646 c 0,12,13
 21 661 21 661 31 666 c 1,14,-1
 902 666 l 1,15,16
 893 662 893 662 890 641 c 1,17,-1
 884 625 l 1,18,-1
 873 615 l 1,19,-1
 872 614 l 1,20,-1
 774 614 l 2,21,22
 742 614 742 614 741 564 c 1,23,-1
 741 105 l 2,24,25
 741 67 741 67 775 67 c 0,26,27
 806 67 806 67 816 98 c 0,28,29
 818 102 818 102 819 105 c 1,30,31
 820 72 820 72 808 47 c 0,32,33
 802 34 802 34 791 23 c 1,34,-1
 774 10 l 1,35,-1
 752 2 l 2,36,37
 744 0 744 0 733 0 c 0,38,39
 695 -1 695 -1 678 22 c 0,40,41
 669 33 669 33 666 52 c 0,42,43
 664 66 664 66 664 79 c 2,44,-1
 664 379 l 1,45,46
 615 334 615 334 523 336 c 2,47,-1
 518 336 l 2,48,49
 457 337 457 337 397 375 c 1,50,51
 531 301 531 301 541 187 c 0,52,53
 546 137 546 137 522 96 c 0,54,55
 510 77 510 77 492 59 c 0,56,57
 429 0 429 0 340 0 c 0,58,59
 193 0 193 0 127 158 c 0,60,61
 90 244 90 244 90 365 c 0,62,63
 91 399 91 399 104 401 c 1,64,-1
 117 381 l 1,65,66
 139 220 139 220 188 141 c 0,67,68
 235 65 235 65 313 59 c 0,69,70
 380 54 380 54 420 88 c 0,71,72
 440 106 440 106 453 135 c 0,73,74
 472 180 472 180 457 223 c 0,75,76
 450 247 450 247 432 270 c 1,77,78
 406 307 406 307 330 352 c 0,79,80
 288 378 288 378 299 408 c 0,81,82
 302 415 302 415 307 422 c 0,83,84
 323 442 323 442 363 432 c 0,85,86
 385 427 385 427 414 414 c 0,0,1
EndSplineSet
EndChar
StartChar: LetterJHA
Encoding: 2333 2333 33
Width: 851
GlyphClass: 2
Flags: W
AnchorPoint: "Anchor-2" 665 667 basechar 0
AnchorPoint: "Anchor-0" 699 1 basechar 0
Fore
368 614 m 2,0,-1
 1 614 l 1,1,2
 14 623 14 623 19 646 c 0,3,4
 24 662 24 662 32 666 c 1,5,-1
 885 666 l 1,6,7
 875 661 875 661 872 641 c 1,8,-1
 866 625 l 1,9,-1
 856 615 l 1,10,-1
 855 614 l 1,11,-1
 754 614 l 2,12,13
 722 614 722 614 721 564 c 1,14,-1
 721 105 l 2,15,16
 721 67 721 67 755 67 c 0,17,18
 778 67 778 67 796 98 c 0,19,20
 798 102 798 102 799 105 c 1,21,22
 800 71 800 71 788 47 c 0,23,24
 781 33 781 33 770 23 c 2,25,-1
 754 10 l 1,26,-1
 731 2 l 1,27,28
 719 0 719 0 713 0 c 0,29,30
 673 -1 673 -1 655 27 c 0,31,32
 646 41 646 41 642 62 c 0,33,34
 640 82 640 82 640 91 c 2,35,-1
 640 234 l 1,36,37
 556 188 556 188 502 219 c 2,38,-1
 496 223 l 1,39,40
 458 108 458 108 300 109 c 1,41,42
 253 111 253 111 219 119 c 1,43,-1
 218 110 l 1,44,45
 222 87 222 87 271 32 c 2,46,-1
 287 14 l 1,47,48
 308 -3 308 -3 331 1 c 0,49,50
 336 2 336 2 341 4 c 0,51,52
 356 11 356 11 372 24 c 2,53,-1
 376 27 l 1,54,-1
 393 33 l 1,55,56
 394 32 394 32 395 30 c 128,-1,57
 396 28 396 28 391 19 c 0,58,59
 391 18 391 18 384 9 c 2,60,-1
 380 5 l 2,61,62
 333 -48 333 -48 284 -34 c 0,63,64
 272 -31 272 -31 261 -25 c 0,65,66
 213 2 213 2 171 89 c 0,67,68
 157 119 157 119 103 153 c 0,69,70
 62 178 62 178 55 191 c 0,71,72
 42 217 42 217 44 237 c 0,73,74
 45 240 45 240 45 242 c 0,75,76
 46 247 46 247 50 257 c 1,77,78
 66 286 66 286 111 278 c 0,79,80
 122 276 122 276 135 272 c 1,81,82
 159 261 159 261 177 217 c 0,83,84
 196 174 196 174 216 162 c 0,85,86
 233 152 233 152 265 153 c 0,87,88
 272 153 272 153 275 154 c 0,89,90
 366 154 366 154 411 208 c 1,91,92
 436 241 436 241 428 270 c 0,93,94
 426 279 426 279 420 289 c 0,95,96
 411 302 411 302 400 308 c 0,97,98
 381 321 381 321 356 325 c 0,99,100
 333 329 333 329 295 325 c 0,101,102
 273 323 273 323 247 318 c 0,103,104
 213 313 213 313 187 314 c 0,105,106
 181 314 181 314 176 315 c 0,107,108
 161 317 161 317 147 322 c 0,109,110
 102 336 102 336 87 389 c 0,111,112
 75 429 75 429 88 462 c 0,113,114
 95 478 95 478 108 493 c 0,115,116
 142 531 142 531 213 534 c 0,117,118
 229 534 229 534 318 515 c 0,119,120
 365 505 365 505 388 507 c 0,121,122
 391 508 391 508 394 508 c 2,123,-1
 409 511 l 1,124,125
 439 526 439 526 431 555 c 0,126,127
 430 562 430 562 426 569 c 0,128,129
 411 601 411 601 379 612 c 0,130,131
 371 614 371 614 368 614 c 2,0,-1
446 614 m 1,132,133
 491 595 491 595 504 550 c 0,134,135
 508 537 508 537 507 525 c 0,136,137
 506 517 506 517 504 511 c 1,138,-1
 497 496 l 1,139,140
 484 472 484 472 440 462 c 0,141,142
 425 459 425 459 411 459 c 0,143,144
 409 460 409 460 404 460 c 2,145,-1
 262 475 l 1,146,-1
 225 476 l 1,147,148
 191 474 191 474 171 444 c 0,149,150
 156 423 156 423 160 401 c 0,151,152
 160 396 160 396 162 391 c 0,153,154
 166 378 166 378 179 362 c 1,155,156
 193 351 193 351 233 353 c 0,157,158
 239 353 239 353 245 354 c 0,159,160
 273 356 273 356 288 359 c 0,161,162
 356 370 356 370 389 368 c 2,163,-1
 395 368 l 2,164,165
 402 368 402 368 406 367 c 0,166,167
 479 363 479 363 497 300 c 1,168,-1
 500 285 l 1,169,-1
 542 276 l 1,170,171
 581 271 581 271 606 283 c 0,172,173
 617 288 617 288 625 296 c 0,174,175
 637 308 637 308 640 330 c 1,176,-1
 640 564 l 2,177,178
 640 605 640 605 669 614 c 1,179,-1
 446 614 l 1,132,133
EndSplineSet
EndChar
StartChar: LetterNYA
Encoding: 2334 2334 34
Width: 830
GlyphClass: 2
Flags: W
AnchorPoint: "Anchor-2" 675 668 basechar 0
AnchorPoint: "Anchor-0" 679 0 basechar 0
Fore
620 91 m 2,0,-1
 620 373 l 1,1,2
 573 335 573 335 493 336 c 2,3,-1
 488 336 l 1,4,5
 486 270 486 270 436 205 c 1,6,7
 373 120 373 120 279 123 c 2,8,-1
 272 123 l 2,9,10
 265 123 265 123 261 124 c 0,11,12
 185 137 185 137 121 220 c 0,13,14
 47 318 47 318 47 413 c 1,15,16
 52 433 52 433 55 428 c 1,17,-1
 60 404 l 2,18,19
 90 262 90 262 184 206 c 0,20,21
 221 185 221 185 262 183 c 0,22,23
 298 182 298 182 331 207 c 0,24,25
 348 220 348 220 364 239 c 0,26,27
 407 292 407 292 403 350 c 0,28,29
 403 352 403 352 403 355 c 0,30,31
 395 444 395 444 341 482 c 0,32,33
 304 508 304 508 252 505 c 0,34,35
 247 504 247 504 242 504 c 0,36,37
 241 503 241 503 237 503 c 2,38,-1
 189 499 l 1,39,-1
 188 499 l 2,40,41
 186 500 186 500 188 501 c 0,42,43
 189 502 189 502 193 503 c 0,44,45
 204 508 204 508 224 513 c 0,46,47
 278 525 278 525 323 521 c 0,48,49
 347 519 347 519 369 512 c 0,50,51
 405 500 405 500 428 482 c 0,52,53
 453 463 453 463 465 444 c 0,54,55
 482 420 482 420 487 388 c 0,56,57
 488 380 488 380 518 378 c 0,58,59
 544 377 544 377 564 387 c 0,60,61
 574 391 574 391 583 399 c 0,62,63
 596 410 596 410 605 429 c 0,64,65
 615 450 615 450 620 479 c 1,66,-1
 620 564 l 2,67,68
 620 605 620 605 648 614 c 1,69,-1
 1 614 l 1,70,71
 14 623 14 623 19 646 c 0,72,73
 24 662 24 662 32 666 c 1,74,-1
 864 666 l 1,75,76
 855 662 855 662 852 641 c 1,77,-1
 846 625 l 1,78,-1
 836 615 l 1,79,-1
 835 614 l 1,80,-1
 733 614 l 2,81,82
 701 614 701 614 700 564 c 1,83,-1
 700 105 l 2,84,85
 700 67 700 67 734 67 c 0,86,87
 759 67 759 67 775 98 c 0,88,89
 778 104 778 104 778 105 c 0,90,91
 780 83 780 83 774 64 c 0,92,93
 772 55 772 55 767 46 c 0,94,95
 761 34 761 34 750 23 c 1,96,-1
 733 10 l 1,97,-1
 711 2 l 1,98,99
 699 0 699 0 692 0 c 0,100,101
 654 -1 654 -1 636 25 c 0,102,103
 626 39 626 39 622 62 c 0,104,105
 620 82 620 82 620 91 c 2,0,-1
EndSplineSet
EndChar
StartChar: LetterTTA
Encoding: 2335 2335 35
Width: 580
GlyphClass: 2
Flags: W
AnchorPoint: "Anchor-2" 363 667 basechar 0
AnchorPoint: "Anchor-0" 282 0 basechar 0
Fore
1 614 m 1,0,1
 14 623 14 623 19 646 c 0,2,3
 24 662 24 662 32 666 c 1,4,-1
 620 666 l 1,5,6
 610 662 610 662 607 641 c 1,7,-1
 601 625 l 1,8,-1
 591 615 l 1,9,-1
 590 614 l 1,10,-1
 421 614 l 1,11,12
 466 594 466 594 469 547 c 0,13,14
 471 528 471 528 465 513 c 0,15,16
 462 505 462 505 457 498 c 1,17,18
 433 446 433 446 343 451 c 0,19,20
 338 451 338 451 332 452 c 0,21,22
 323 452 323 452 309 454 c 2,23,-1
 283 457 l 2,24,25
 247 460 247 460 217 446 c 0,26,27
 202 439 202 439 189 427 c 0,28,29
 171 412 171 412 156 383 c 0,30,31
 125 327 125 327 129 261 c 0,32,33
 129 255 129 255 130 249 c 0,34,35
 131 238 131 238 135 219 c 0,36,37
 136 212 136 212 140 203 c 0,38,39
 168 123 168 123 236 84 c 0,40,41
 323 33 323 33 413 93 c 0,42,43
 461 125 461 125 499 184 c 0,44,45
 524 225 524 225 532 219 c 0,46,47
 534 218 534 218 534 210 c 1,48,-1
 531 197 l 1,49,50
 512 99 512 99 424 41 c 0,51,52
 349 -9 349 -9 265 2 c 0,53,54
 250 4 250 4 234 8 c 0,55,56
 181 21 181 21 136 65 c 1,57,58
 60 127 60 127 47 242 c 0,59,60
 39 318 39 318 61 379 c 0,61,62
 73 410 73 410 92 437 c 0,63,64
 154 523 154 523 270 515 c 0,65,66
 276 515 276 515 283 514 c 0,67,68
 299 512 299 512 309 510 c 128,-1,69
 319 508 319 508 341 502 c 0,70,71
 359 497 359 497 374 506 c 0,72,73
 382 512 382 512 389 521 c 0,74,75
 406 544 406 544 400 566 c 0,76,77
 398 577 398 577 389 589 c 0,78,79
 379 601 379 601 372 606 c 0,80,81
 369 609 369 609 359 614 c 1,82,-1
 1 614 l 1,0,1
EndSplineSet
EndChar
StartChar: LetterTTHA
Encoding: 2336 2336 36
Width: 652
GlyphClass: 2
Flags: W
AnchorPoint: "Anchor-2" 314 667 basechar 0
AnchorPoint: "Anchor-0" 309 -1 basechar 0
Fore
300 614 m 1,0,-1
 0 614 l 1,1,2
 13 623 13 623 18 646 c 0,3,4
 21 661 21 661 31 666 c 1,5,-1
 687 666 l 1,6,7
 678 662 678 662 675 641 c 1,8,-1
 669 625 l 1,9,-1
 658 615 l 1,10,-1
 657 614 l 1,11,-1
 377 614 l 1,12,13
 428 588 428 588 433 539 c 0,14,15
 434 522 434 522 430 509 c 0,16,17
 427 502 427 502 423 495 c 0,18,19
 416 477 416 477 420 471 c 0,20,21
 421 468 421 468 426 469 c 0,22,23
 437 470 437 470 446 466 c 0,24,25
 452 463 452 463 458 458 c 1,26,27
 603 386 603 386 601 245 c 0,28,29
 599 150 599 150 511 75 c 0,30,31
 421 -2 421 -2 306 -1 c 0,32,33
 265 -1 265 -1 221 13 c 0,34,35
 131 44 131 44 83 130 c 0,36,37
 41 204 41 204 53 274 c 0,38,39
 58 297 58 297 66 316 c 0,40,41
 112 434 112 434 300 473 c 0,42,43
 301 474 301 474 305 474 c 0,44,45
 337 480 337 480 356 522 c 0,46,47
 362 535 362 535 361 544 c 0,48,49
 359 579 359 579 328 603 c 0,50,51
 315 612 315 612 300 614 c 1,0,-1
168 151 m 0,52,53
 194 95 194 95 268 74 c 0,54,55
 328 57 328 57 379 73 c 0,56,57
 405 81 405 81 428 97 c 0,58,59
 481 136 481 136 504 214 c 0,60,61
 520 274 520 274 507 322 c 0,62,63
 501 346 501 346 485 367 c 0,64,65
 469 389 469 389 449 402 c 0,66,67
 413 426 413 426 341 426 c 2,68,-1
 331 425 l 1,69,-1
 330 425 l 2,70,71
 226 415 226 415 175 332 c 1,72,73
 142 275 142 275 148 221 c 0,74,75
 149 214 149 214 150 208 c 0,76,77
 154 185 154 185 160 169 c 0,78,79
 162 163 162 163 168 151 c 0,52,53
EndSplineSet
EndChar
StartChar: LetterDDA
Encoding: 2337 2337 37
Width: 652
GlyphClass: 2
Flags: W
AnchorPoint: "Anchor-2" 407 667 basechar 0
AnchorPoint: "Anchor-0" 378 -4 basechar 0
Fore
414 614 m 1,0,-1
 0 614 l 1,1,2
 13 623 13 623 18 646 c 0,3,4
 21 661 21 661 31 666 c 1,5,-1
 693 666 l 1,6,7
 684 662 684 662 681 641 c 1,8,-1
 675 625 l 1,9,-1
 665 615 l 1,10,-1
 664 614 l 1,11,-1
 494 614 l 1,12,13
 538 595 538 595 551 551 c 0,14,15
 558 529 558 529 553 513 c 0,16,17
 551 504 551 504 545 496 c 1,18,19
 532 468 532 468 489 460 c 1,20,-1
 461 459 l 2,21,22
 455 459 455 459 372 475 c 0,23,24
 332 482 332 482 304 481 c 0,25,26
 300 480 300 480 297 480 c 2,27,-1
 274 477 l 2,28,29
 208 467 208 467 190 416 c 0,30,31
 184 396 184 396 187 381 c 0,32,33
 189 373 189 373 194 365 c 2,34,-1
 205 348 l 2,35,36
 207 345 207 345 210 343 c 0,37,38
 231 324 231 324 266 322 c 0,39,40
 361 314 361 314 481 294 c 0,41,42
 559 281 559 281 582 213 c 0,43,44
 596 168 596 168 578 122 c 0,45,46
 569 98 569 98 551 74 c 0,47,48
 498 4 498 4 389 -2 c 0,49,50
 244 -11 244 -11 104 139 c 1,51,-1
 54 197 l 1,52,53
 46 210 46 210 48 215 c 0,54,55
 49 217 49 217 51 216 c 0,56,57
 52 216 52 216 55 214 c 2,58,-1
 62 207 l 1,59,-1
 67 203 l 1,60,61
 169 99 169 99 257 70 c 2,62,-1
 262 68 l 2,63,64
 310 49 310 49 365 55 c 0,65,66
 385 57 385 57 406 63 c 0,67,68
 483 85 483 85 502 137 c 0,69,70
 507 152 507 152 505 167 c 0,71,72
 505 175 505 175 502 183 c 0,73,74
 484 246 484 246 366 261 c 1,75,-1
 246 272 l 1,76,77
 128 291 128 291 104 371 c 0,78,79
 100 385 100 385 101 403 c 0,80,81
 101 407 101 407 102 411 c 0,82,83
 119 536 119 536 282 536 c 2,84,-1
 287 536 l 2,85,86
 327 535 327 535 397 519 c 0,87,88
 464 502 464 502 478 537 c 0,89,90
 483 549 483 549 480 560 c 0,91,92
 479 566 479 566 475 572 c 0,93,94
 470 582 470 582 458 592 c 0,95,96
 441 608 441 608 414 614 c 1,0,-1
EndSplineSet
EndChar
StartChar: LetterDDHA
Encoding: 2338 2338 38
Width: 606
GlyphClass: 2
Flags: W
AnchorPoint: "Anchor-2" 389 669 basechar 0
AnchorPoint: "Anchor-0" 329 -4 basechar 0
Fore
256 74 m 0,0,1
 302 49 302 49 349 53 c 2,2,-1
 361 55 l 1,3,-1
 371 56 l 1,4,-1
 380 58 l 2,5,6
 444 70 444 70 473 114 c 0,7,8
 484 130 484 130 484 160 c 0,9,10
 484 176 484 176 479 188 c 0,11,12
 469 210 469 210 444 216 c 0,13,14
 424 221 424 221 403 209 c 0,15,16
 392 203 392 203 381 193 c 0,17,18
 368 180 368 180 362 160 c 0,19,20
 357 142 357 142 359 126 c 0,21,22
 359 118 359 118 362 110 c 0,23,24
 368 96 368 96 373 86 c 0,25,26
 382 70 382 70 387 65 c 0,27,28
 389 63 389 63 386 64 c 2,29,-1
 380 68 l 2,30,31
 339 94 339 94 330 135 c 0,32,33
 318 183 318 183 333 217 c 0,34,35
 340 233 340 233 353 246 c 0,36,37
 389 282 389 282 437 286 c 0,38,39
 475 289 475 289 500 278 c 0,40,41
 514 272 514 272 525 262 c 0,42,43
 542 248 542 248 551 222 c 0,44,45
 562 192 562 192 559 158 c 0,46,47
 558 151 558 151 557 143 c 0,48,49
 552 121 552 121 544 101 c 1,50,-1
 530 80 l 1,51,52
 481 13 481 13 384 1 c 0,53,54
 319 -7 319 -7 264 4 c 0,55,56
 235 9 235 9 209 20 c 0,57,58
 155 43 155 43 106 106 c 1,59,60
 52 182 52 182 56 294 c 0,61,62
 57 300 57 300 57 305 c 0,63,64
 62 385 62 385 124 447 c 1,65,66
 193 521 193 521 340 508 c 0,67,68
 359 506 359 506 379 503 c 0,69,70
 408 498 408 498 424 512 c 0,71,72
 432 520 432 520 436 534 c 0,73,74
 444 557 444 557 436 577 c 0,75,76
 432 587 432 587 424 596 c 0,77,78
 408 615 408 615 380 615 c 2,79,-1
 0 614 l 1,80,81
 13 623 13 623 18 646 c 0,82,83
 21 661 21 661 31 666 c 1,84,-1
 642 666 l 1,85,86
 633 662 633 662 630 641 c 1,87,-1
 624 625 l 1,88,-1
 613 615 l 1,89,-1
 612 614 l 1,90,-1
 459 615 l 1,91,92
 517 578 517 578 519 526 c 0,93,94
 520 506 520 506 510 491 c 0,95,96
 505 483 505 483 497 476 c 1,97,-1
 476 464 l 1,98,-1
 467 461 l 2,99,100
 438 452 438 452 400 454 c 2,101,-1
 384 456 l 2,102,103
 314 464 314 464 273 457 c 1,104,-1
 244 448 l 1,105,-1
 236 444 l 2,106,107
 177 411 177 411 156 338 c 0,108,109
 140 286 140 286 150 227 c 0,110,111
 155 198 155 198 166 168 c 0,112,113
 186 111 186 111 256 74 c 0,0,1
EndSplineSet
EndChar
StartChar: LetterNNA
Encoding: 2339 2339 39
Width: 739
GlyphClass: 2
Flags: W
AnchorPoint: "Anchor-2" 526 667 basechar 0
AnchorPoint: "Anchor-0" 606 -2 basechar 0
Fore
326 614 m 1,0,-1
 205 613 l 1,1,2
 112 483 112 483 123 383 c 0,3,4
 124 375 124 375 125 368 c 0,5,6
 126 358 126 358 132 340 c 0,7,8
 155 272 155 272 224 252 c 1,9,10
 247 247 247 247 263 247 c 0,11,12
 293 246 293 246 318 259 c 0,13,14
 329 266 329 266 340 275 c 1,15,16
 360 295 360 295 372 313 c 0,17,18
 409 374 409 374 403 443 c 1,19,-1
 401 457 l 1,20,21
 400 474 400 474 395 490 c 0,22,23
 379 556 379 556 326 614 c 1,0,-1
167 614 m 1,24,-1
 0 614 l 1,25,26
 13 623 13 623 18 646 c 0,27,28
 21 661 21 661 31 666 c 1,29,-1
 785 666 l 1,30,31
 776 662 776 662 773 641 c 1,32,-1
 767 625 l 1,33,-1
 757 615 l 1,34,-1
 756 614 l 1,35,-1
 654 614 l 2,36,37
 623 614 623 614 622 564 c 1,38,-1
 622 105 l 2,39,40
 622 67 622 67 655 67 c 0,41,42
 686 67 686 67 696 98 c 0,43,44
 698 102 698 102 699 105 c 1,45,46
 700 72 700 72 688 47 c 0,47,48
 682 34 682 34 671 23 c 1,49,-1
 654 10 l 1,50,-1
 632 2 l 2,51,52
 624 0 624 0 613 0 c 0,53,54
 573 -1 573 -1 555 26 c 0,55,56
 546 40 546 40 543 62 c 0,57,58
 541 82 541 82 541 91 c 2,59,-1
 541 564 l 2,60,61
 541 605 541 605 569 614 c 1,62,-1
 366 615 l 1,63,64
 494 517 494 517 484 396 c 0,65,66
 484 391 484 391 483 385 c 0,67,68
 472 294 472 294 393 233 c 1,69,70
 329 186 329 186 262 186 c 0,71,72
 193 186 193 186 129 231 c 0,73,74
 33 300 33 300 40 403 c 0,75,76
 40 408 40 408 41 413 c 0,77,78
 53 512 53 512 167 614 c 1,24,-1
EndSplineSet
EndChar
StartChar: LetterTA
Encoding: 2340 2340 40
Width: 686
GlyphClass: 2
Flags: W
AnchorPoint: "Anchor-2" 512 665 basechar 0
AnchorPoint: "Anchor-0" 536 -2 basechar 0
Fore
470 316 m 1,0,1
 458 354 458 354 391 375 c 0,2,3
 341 391 341 391 292 387 c 0,4,5
 281 387 281 387 271 385 c 0,6,7
 241 380 241 380 213 367 c 0,8,9
 186 353 186 353 171 341 c 0,10,11
 110 293 110 293 115 200 c 0,12,13
 116 194 116 194 116 189 c 0,14,15
 121 126 121 126 156 52 c 1,16,-1
 172 8 l 2,17,18
 175 0 175 0 172 -1 c 1,19,-1
 168 0 l 1,20,21
 117 36 117 36 79 127 c 1,22,23
 39 217 39 217 46 288 c 1,24,-1
 48 304 l 1,25,26
 53 328 53 328 60 346 c 0,27,28
 84 400 84 400 135 424 c 0,29,30
 202 457 202 457 295 455 c 2,31,-1
 301 455 l 1,32,-1
 312 455 l 2,33,34
 398 451 398 451 471 414 c 1,35,-1
 471 564 l 2,36,37
 471 605 471 605 500 614 c 1,38,-1
 0 614 l 1,39,40
 13 623 13 623 18 646 c 0,41,42
 21 661 21 661 31 666 c 1,43,-1
 718 666 l 1,44,45
 709 662 709 662 706 641 c 1,46,-1
 699 625 l 1,47,-1
 689 615 l 1,48,-1
 688 614 l 1,49,-1
 585 614 l 2,50,51
 553 614 553 614 552 564 c 1,52,-1
 552 105 l 2,53,54
 552 67 552 67 586 67 c 0,55,56
 609 67 609 67 627 98 c 0,57,58
 629 102 629 102 630 105 c 1,59,60
 631 71 631 71 619 47 c 0,61,62
 612 33 612 33 601 23 c 2,63,-1
 585 10 l 1,64,-1
 562 2 l 1,65,66
 550 0 550 0 544 0 c 0,67,68
 504 -1 504 -1 486 27 c 0,69,70
 477 41 477 41 473 62 c 0,71,72
 471 82 471 82 471 91 c 1,73,-1
 470 316 l 1,0,1
EndSplineSet
EndChar
StartChar: LetterTHA
Encoding: 2341 2341 41
Width: 798
GlyphClass: 2
Flags: W
AnchorPoint: "Anchor-2" 628 665 basechar 0
AnchorPoint: "Anchor-0" 653 0 basechar 0
Fore
213 358 m 0,0,1
 265 355 265 355 301 373 c 0,2,3
 318 382 318 382 332 395 c 1,4,5
 383 449 383 449 371 515 c 0,6,7
 361 576 361 576 306 600 c 0,8,9
 293 606 293 606 275 605 c 0,10,11
 212 600 212 600 203 557 c 0,12,13
 200 542 200 542 204 529 c 0,14,15
 206 521 206 521 210 515 c 0,16,17
 217 504 217 504 226 498 c 0,18,19
 250 479 250 479 278 485 c 0,20,21
 293 488 293 488 308 497 c 2,22,-1
 327 509 l 2,23,24
 332 512 332 512 333 506 c 1,25,-1
 333 497 l 1,26,27
 328 477 328 477 306 459 c 0,28,29
 265 425 265 425 212 432 c 0,30,31
 203 434 203 434 193 436 c 0,32,33
 149 447 149 447 125 492 c 0,34,35
 112 514 112 514 111 546 c 0,36,37
 110 570 110 570 119 592 c 0,38,39
 124 604 124 604 132 615 c 0,40,41
 145 634 145 634 168 649 c 0,42,43
 212 678 212 678 279 678 c 1,44,45
 338 673 338 673 385 641 c 0,46,47
 428 613 428 613 449 551 c 1,48,49
 461 510 461 510 456 470 c 0,50,51
 454 447 454 447 446 424 c 0,52,53
 437 393 437 393 416 369 c 0,54,55
 384 331 384 331 302 311 c 0,56,57
 266 303 266 303 224 305 c 0,58,59
 204 307 204 307 183 310 c 0,60,61
 149 315 149 315 122 328 c 0,62,63
 119 329 119 329 119 325 c 1,64,-1
 118 316 l 1,65,-1
 118 306 l 1,66,67
 126 224 126 224 180 170 c 0,68,69
 222 128 222 128 281 117 c 0,70,71
 316 111 316 111 383 129 c 0,72,73
 417 138 417 138 453 159 c 0,74,75
 537 205 537 205 571 278 c 1,76,77
 587 309 587 309 587 338 c 2,78,-1
 587 563 l 2,79,80
 587 605 587 605 615 614 c 1,81,-1
 466 614 l 1,82,83
 479 623 479 623 484 646 c 0,84,85
 487 662 487 662 497 666 c 1,86,-1
 831 666 l 1,87,88
 822 662 822 662 819 641 c 1,89,-1
 813 625 l 1,90,-1
 803 615 l 1,91,-1
 802 614 l 1,92,-1
 700 614 l 2,93,94
 670 614 670 614 668 563 c 1,95,-1
 668 105 l 2,96,97
 668 67 668 67 701 67 c 0,98,99
 732 67 732 67 742 98 c 0,100,101
 744 102 744 102 745 105 c 1,102,103
 746 72 746 72 734 47 c 0,104,105
 728 34 728 34 717 23 c 1,106,-1
 700 10 l 1,107,-1
 678 2 l 2,108,109
 670 0 670 0 659 0 c 0,110,111
 619 -1 619 -1 601 26 c 0,112,113
 592 40 592 40 589 62 c 0,114,115
 587 82 587 82 587 91 c 2,116,-1
 587 237 l 1,117,118
 555 160 555 160 471 110 c 0,119,120
 397 65 397 65 307 58 c 0,121,122
 299 57 299 57 283 59 c 0,123,124
 153 74 153 74 82 178 c 0,125,126
 55 218 55 218 47 268 c 0,127,128
 41 308 41 308 47 337 c 0,129,130
 50 351 50 351 55 362 c 0,131,132
 74 402 74 402 98 394 c 0,133,134
 102 393 102 393 106 391 c 0,135,136
 156 362 156 362 213 358 c 0,0,1
EndSplineSet
EndChar
StartChar: LetterDA
Encoding: 2342 2342 42
Width: 619
GlyphClass: 2
Flags: W
AnchorPoint: "Anchor-2" 333 665 basechar 0
AnchorPoint: "Anchor-0" 482 -52 basechar 0
Fore
326 459 m 0,0,1
 298 463 298 463 268 455 c 0,2,3
 251 450 251 450 233 442 c 0,4,5
 166 413 166 413 146 357 c 2,6,-1
 142 346 l 2,7,8
 129 310 129 310 133 274 c 0,9,10
 135 259 135 259 140 244 c 0,11,12
 145 225 145 225 166 193 c 0,13,14
 211 125 211 125 278 113 c 0,15,16
 295 110 295 110 311 111 c 0,17,18
 320 111 320 111 328 113 c 128,-1,19
 336 115 336 115 352 121 c 1,20,21
 330 145 330 145 332 188 c 0,22,23
 333 191 333 191 333 195 c 0,24,25
 338 248 338 248 379 252 c 1,26,-1
 397 252 l 2,27,28
 408 252 408 252 416 248 c 1,29,30
 451 236 451 236 453 183 c 0,31,32
 454 162 454 162 449 145 c 0,33,34
 446 136 446 136 442 129 c 0,35,36
 434 117 434 117 427 111 c 2,37,-1
 421 106 l 1,38,39
 421 77 421 77 440 42 c 0,40,41
 469 -11 469 -11 521 -1 c 0,42,43
 528 0 528 0 535 2 c 1,44,-1
 578 22 l 2,45,46
 581 23 581 23 581 16 c 1,47,-1
 577 10 l 2,48,49
 529 -58 529 -58 478 -50 c 2,50,-1
 470 -48 l 2,51,52
 465 -47 465 -47 455 -43 c 0,53,54
 395 -17 395 -17 362 84 c 1,55,56
 300 58 300 58 239 68 c 0,57,58
 207 74 207 74 175 89 c 0,59,60
 86 131 86 131 56 222 c 1,61,62
 44 263 44 263 46 308 c 0,63,64
 46 313 46 313 47 319 c 0,65,66
 56 411 56 411 145 468 c 0,67,68
 222 517 222 517 303 509 c 2,69,-1
 321 507 l 2,70,71
 342 504 342 504 355 509 c 0,72,73
 362 511 362 511 368 516 c 0,74,75
 376 524 376 524 379 537 c 0,76,77
 382 551 382 551 380 563 c 0,78,79
 378 570 378 570 375 578 c 0,80,81
 371 587 371 587 361 597 c 0,82,83
 344 614 344 614 322 614 c 2,84,-1
 0 614 l 1,85,86
 13 623 13 623 18 646 c 0,87,88
 21 661 21 661 31 666 c 1,89,-1
 652 666 l 1,90,91
 643 662 643 662 640 641 c 1,92,-1
 634 625 l 1,93,-1
 624 615 l 1,94,-1
 623 614 l 1,95,-1
 400 615 l 1,96,97
 461 577 461 577 461 526 c 1,98,-1
 457 505 l 1,99,-1
 447 488 l 1,100,-1
 432 474 l 1,101,102
 401 452 401 452 345 457 c 0,103,104
 336 458 336 458 326 459 c 0,0,1
EndSplineSet
EndChar
StartChar: LetterDHA
Encoding: 2343 2343 43
Width: 735
GlyphClass: 2
Flags: W
AnchorPoint: "Anchor-2" 586 666 basechar 0
AnchorPoint: "Anchor-0" 609 0 basechar 0
Fore
110 229 m 0,0,1
 137 283 137 283 198 313 c 0,2,3
 218 324 218 324 250 326 c 1,4,5
 178 326 178 326 115 356 c 0,6,7
 80 374 80 374 62 406 c 1,8,9
 39 453 39 453 47 504 c 0,10,11
 50 524 50 524 57 544 c 0,12,13
 78 600 78 600 128 632 c 0,14,15
 192 675 192 675 271 673 c 2,16,-1
 275 673 l 1,17,-1
 294 671 l 1,18,19
 374 657 374 657 403 606 c 1,20,21
 423 574 423 574 417 539 c 0,22,23
 414 524 414 524 406 508 c 0,24,25
 376 445 376 445 283 444 c 0,26,27
 250 443 250 443 219 451 c 0,28,29
 208 454 208 454 197 458 c 0,30,31
 174 466 174 466 164 476 c 2,32,-1
 154 485 l 1,33,34
 143 497 143 497 144 501 c 1,35,-1
 158 495 l 1,36,-1
 165 490 l 2,37,38
 172 486 172 486 179 483 c 0,39,40
 207 471 207 471 240 477 c 0,41,42
 258 480 258 480 278 488 c 0,43,44
 322 508 322 508 331 530 c 0,45,46
 343 561 343 561 327 583 c 0,47,48
 319 595 319 595 302 605 c 0,49,50
 272 620 272 620 234 610 c 0,51,52
 216 605 216 605 194 594 c 0,53,54
 170 582 170 582 144 545 c 1,55,56
 127 505 127 505 131 470 c 0,57,58
 132 462 132 462 134 455 c 0,59,60
 137 445 137 445 142 432 c 1,61,62
 160 400 160 400 195 381 c 0,63,64
 237 357 237 357 365 360 c 0,65,66
 376 361 376 361 387 361 c 0,67,68
 403 362 403 362 420 362 c 0,69,70
 452 364 452 364 464 357 c 0,71,72
 469 354 469 354 470 350 c 0,73,74
 472 336 472 336 453 330 c 1,75,-1
 427 326 l 1,76,-1
 353 315 l 1,77,78
 185 274 185 274 179 197 c 0,79,80
 174 131 174 131 204 97 c 0,81,82
 219 79 219 79 243 69 c 0,83,84
 287 50 287 50 341 64 c 0,85,86
 369 72 369 72 400 88 c 0,87,88
 502 142 502 142 549 259 c 1,89,-1
 547 563 l 1,90,91
 547 605 547 605 575 614 c 1,92,-1
 440 614 l 1,93,94
 454 623 454 623 459 646 c 0,95,96
 462 662 462 662 471 666 c 1,97,-1
 769 666 l 1,98,99
 760 662 760 662 757 641 c 1,100,-1
 751 625 l 1,101,-1
 740 615 l 1,102,-1
 739 614 l 1,103,-1
 660 614 l 2,104,105
 630 614 630 614 628 563 c 1,106,-1
 628 105 l 2,107,108
 628 67 628 67 662 67 c 0,109,110
 692 67 692 67 702 98 c 1,111,-1
 706 105 l 1,112,113
 707 71 707 71 694 46 c 0,114,115
 687 33 687 33 677 23 c 1,116,-1
 660 10 l 1,117,-1
 638 2 l 2,118,119
 630 0 630 0 620 0 c 0,120,121
 580 -1 580 -1 562 27 c 0,122,123
 553 41 553 41 549 62 c 0,124,125
 547 82 547 82 547 91 c 1,126,-1
 549 176 l 1,127,128
 424 14 424 14 295 6 c 0,129,130
 225 2 225 2 172 34 c 0,131,132
 146 49 146 49 124 74 c 1,133,134
 83 133 83 133 96 191 c 0,135,136
 100 210 100 210 110 229 c 0,0,1
EndSplineSet
EndChar
StartChar: LetterNA
Encoding: 2344 2344 44
Width: 812
GlyphClass: 2
Flags: W
AnchorPoint: "Anchor-2" 638 666 basechar 0
AnchorPoint: "Anchor-0" 663 -1 basechar 0
Fore
603 328 m 1,0,1
 603 370 603 370 585 377 c 0,2,3
 519 404 519 404 464 412 c 0,4,5
 431 417 431 417 378 416 c 0,6,7
 367 416 367 416 355 415 c 0,8,9
 307 414 307 414 296 407 c 1,10,11
 326 383 326 383 342 322 c 0,12,13
 347 302 347 302 345 280 c 0,14,15
 345 274 345 274 344 268 c 0,16,17
 339 214 339 214 310 177 c 0,18,19
 299 162 299 162 282 148 c 1,20,-1
 266 138 l 2,21,22
 230 115 230 115 170 121 c 0,23,24
 157 122 157 122 142 125 c 0,25,26
 96 134 96 134 69 173 c 0,27,28
 45 208 45 208 45 272 c 0,29,30
 45 281 45 281 46 285 c 0,31,32
 60 387 60 387 153 431 c 0,33,34
 208 457 208 457 293 461 c 2,35,-1
 330 463 l 2,36,37
 435 466 435 466 522 448 c 0,38,39
 565 439 565 439 603 425 c 1,40,-1
 601 564 l 1,41,42
 601 605 601 605 630 614 c 1,43,-1
 0 614 l 1,44,45
 13 623 13 623 18 646 c 0,46,47
 21 661 21 661 31 666 c 1,48,-1
 843 666 l 1,49,50
 835 662 835 662 830 641 c 1,51,-1
 824 625 l 1,52,-1
 814 615 l 1,53,-1
 813 614 l 1,54,-1
 715 614 l 2,55,56
 683 614 683 614 682 564 c 1,57,-1
 682 105 l 2,58,59
 682 67 682 67 716 67 c 0,60,61
 747 67 747 67 757 98 c 0,62,63
 759 102 759 102 760 105 c 1,64,65
 761 71 761 71 749 47 c 0,66,67
 742 33 742 33 731 23 c 2,68,-1
 715 10 l 1,69,-1
 692 2 l 2,70,71
 684 0 684 0 674 0 c 0,72,73
 612 0 612 0 603 62 c 0,74,75
 601 82 601 82 601 91 c 1,76,-1
 603 328 l 1,0,1
147 201 m 2,77,78
 176 175 176 175 212 182 c 0,79,80
 222 184 222 184 232 189 c 0,81,82
 290 215 290 215 294 303 c 0,83,84
 296 348 296 348 280 375 c 0,85,86
 271 388 271 388 258 397 c 1,87,88
 231 394 231 394 213 388 c 0,89,90
 175 376 175 376 156 357 c 0,91,92
 123 325 123 325 121 287 c 0,93,94
 119 247 119 247 131 222 c 1,95,-1
 143 205 l 1,96,-1
 147 201 l 2,77,78
EndSplineSet
EndChar
StartChar: LetterNNNA
Encoding: 2345 2345 45
Width: 813
GlyphClass: 2
Flags: W
AnchorPoint: "Anchor-2" 635 666 basechar 0
AnchorPoint: "Anchor-0" 663 0 basechar 0
Fore
603 328 m 1,0,1
 603 370 603 370 585 377 c 0,2,3
 519 404 519 404 464 412 c 0,4,5
 431 417 431 417 378 416 c 0,6,7
 367 416 367 416 355 415 c 0,8,9
 307 414 307 414 296 407 c 1,10,11
 326 383 326 383 342 322 c 0,12,13
 347 302 347 302 345 280 c 0,14,15
 345 274 345 274 344 268 c 0,16,17
 339 214 339 214 310 177 c 0,18,19
 299 162 299 162 282 148 c 1,20,-1
 266 138 l 2,21,22
 230 115 230 115 170 121 c 0,23,24
 157 122 157 122 142 125 c 0,25,26
 96 134 96 134 69 173 c 0,27,28
 45 208 45 208 45 272 c 0,29,30
 45 281 45 281 46 285 c 0,31,32
 60 387 60 387 153 431 c 0,33,34
 208 457 208 457 293 461 c 2,35,-1
 330 463 l 2,36,37
 435 466 435 466 522 448 c 0,38,39
 565 439 565 439 603 425 c 1,40,-1
 601 564 l 1,41,42
 601 605 601 605 630 614 c 1,43,-1
 0 614 l 1,44,45
 13 623 13 623 18 646 c 0,46,47
 21 661 21 661 31 666 c 1,48,-1
 843 666 l 1,49,50
 835 662 835 662 830 641 c 1,51,-1
 824 625 l 1,52,-1
 814 615 l 1,53,-1
 813 614 l 1,54,-1
 715 614 l 2,55,56
 683 614 683 614 682 564 c 1,57,-1
 682 105 l 2,58,59
 682 67 682 67 716 67 c 0,60,61
 747 67 747 67 757 98 c 0,62,63
 759 102 759 102 760 105 c 1,64,65
 761 71 761 71 749 47 c 0,66,67
 742 33 742 33 731 23 c 2,68,-1
 715 10 l 1,69,-1
 692 2 l 2,70,71
 684 0 684 0 674 0 c 0,72,73
 612 0 612 0 603 62 c 0,74,75
 601 82 601 82 601 91 c 1,76,-1
 603 328 l 1,0,1
147 201 m 2,77,78
 176 175 176 175 212 182 c 0,79,80
 222 184 222 184 232 189 c 0,81,82
 290 215 290 215 294 303 c 0,83,84
 296 348 296 348 280 375 c 0,85,86
 271 388 271 388 258 397 c 1,87,88
 231 394 231 394 213 388 c 0,89,90
 175 376 175 376 156 357 c 0,91,92
 123 325 123 325 121 287 c 0,93,94
 119 247 119 247 131 222 c 1,95,-1
 143 205 l 1,96,-1
 147 201 l 2,77,78
502 160 m 1,97,98
 505 137 505 137 502 118 c 0,99,100
 501 107 501 107 498 97 c 0,101,102
 495 86 495 86 484 71 c 0,103,104
 459 39 459 39 431 46 c 0,105,106
 425 48 425 48 418 52 c 0,107,108
 393 68 393 68 394 99 c 0,109,110
 395 112 395 112 403 121 c 1,111,112
 419 135 419 135 441 134 c 0,113,114
 456 133 456 133 471 139 c 0,115,116
 476 141 476 141 482 144 c 0,117,118
 491 149 491 149 502 160 c 1,97,98
EndSplineSet
EndChar
StartChar: LetterPA
Encoding: 2346 2346 46
Width: 582
GlyphClass: 2
Flags: W
AnchorPoint: "Anchor-2" 408 665 basechar 0
AnchorPoint: "Anchor-0" 432 0 basechar 0
Fore
372 247 m 1,0,1
 353 213 353 213 306 182 c 0,2,3
 249 146 249 146 193 147 c 2,4,-1
 187 147 l 1,5,6
 124 159 124 159 83 207 c 0,7,8
 34 265 34 265 49 360 c 0,9,10
 55 398 55 398 72 442 c 0,11,12
 99 517 99 517 161 614 c 1,13,-1
 0 614 l 1,14,15
 13 623 13 623 18 646 c 0,16,17
 21 661 21 661 31 666 c 1,18,-1
 616 666 l 1,19,20
 607 662 607 662 604 641 c 1,21,-1
 598 625 l 1,22,-1
 588 615 l 1,23,-1
 587 614 l 1,24,-1
 485 614 l 2,25,26
 454 614 454 614 453 564 c 1,27,-1
 453 105 l 2,28,29
 453 67 453 67 486 67 c 0,30,31
 511 67 511 67 527 98 c 0,32,33
 529 102 529 102 530 105 c 1,34,35
 531 72 531 72 519 47 c 0,36,37
 513 34 513 34 502 23 c 1,38,-1
 485 10 l 1,39,40
 468 0 468 0 444 0 c 0,41,42
 405 -1 405 -1 387 26 c 0,43,44
 378 40 378 40 374 62 c 0,45,46
 372 82 372 82 372 91 c 2,47,-1
 372 247 l 1,0,1
199 614 m 1,48,49
 152 559 152 559 126 459 c 0,50,51
 99 361 99 361 117 303 c 0,52,53
 127 274 127 274 148 254 c 0,54,55
 168 236 168 236 190 229 c 0,56,57
 253 210 253 210 308 235 c 0,58,59
 336 248 336 248 362 272 c 2,60,-1
 372 282 l 1,61,-1
 372 564 l 2,62,63
 372 605 372 605 400 614 c 1,64,-1
 199 614 l 1,48,49
EndSplineSet
EndChar
StartChar: LetterPHA
Encoding: 2347 2347 47
Width: 857
GlyphClass: 2
Flags: W
AnchorPoint: "Anchor-2" 430 666 basechar 0
AnchorPoint: "Anchor-0" 454 -1 basechar 0
Fore
218 614 m 1,0,1
 99 470 99 470 119 354 c 0,2,3
 121 341 121 341 125 328 c 0,4,5
 144 259 144 259 206 228 c 1,6,7
 227 219 227 219 242 218 c 2,8,-1
 280 217 l 1,9,10
 287 218 287 218 292 219 c 0,11,12
 302 220 302 220 311 225 c 1,13,14
 343 237 343 237 391 280 c 1,15,-1
 391 564 l 2,16,17
 391 605 391 605 420 614 c 1,18,-1
 218 614 l 1,0,1
0 614 m 1,19,20
 13 623 13 623 18 646 c 0,21,22
 21 661 21 661 31 666 c 1,23,-1
 896 666 l 1,24,25
 887 662 887 662 884 641 c 1,26,-1
 878 625 l 1,27,-1
 867 615 l 1,28,-1
 866 614 l 1,29,-1
 505 614 l 2,30,31
 473 614 473 614 472 564 c 1,32,-1
 472 362 l 1,33,-1
 512 409 l 1,34,35
 597 500 597 500 663 502 c 0,36,37
 736 504 736 504 774 466 c 1,38,-1
 790 444 l 2,39,40
 798 432 798 432 803 417 c 0,41,42
 814 386 814 386 812 351 c 0,43,44
 812 346 812 346 811 341 c 0,45,46
 810 326 810 326 804 301 c 0,47,48
 790 245 790 245 698 139 c 0,49,50
 659 94 659 94 654 96 c 1,51,-1
 680 142 l 1,52,53
 745 250 745 250 740 331 c 0,54,55
 739 335 739 335 739 339 c 0,56,57
 729 435 729 435 644 441 c 2,58,-1
 631 441 l 2,59,60
 580 441 580 441 478 340 c 2,61,-1
 472 334 l 1,62,-1
 472 105 l 2,63,64
 472 67 472 67 506 67 c 0,65,66
 531 67 531 67 547 98 c 0,67,68
 550 104 550 104 550 105 c 0,69,70
 552 83 552 83 546 64 c 0,71,72
 544 55 544 55 539 46 c 0,73,74
 534 36 534 36 521 23 c 1,75,-1
 505 10 l 1,76,77
 488 0 488 0 464 0 c 0,78,79
 424 -1 424 -1 406 27 c 0,80,81
 397 41 397 41 393 62 c 0,82,83
 391 82 391 82 391 91 c 2,84,-1
 391 249 l 1,85,86
 295 142 295 142 203 148 c 2,87,-1
 197 148 l 2,88,89
 190 148 190 148 187 150 c 1,90,91
 126 159 126 159 87 212 c 0,92,93
 35 283 35 283 51 369 c 0,94,95
 55 394 55 394 65 420 c 0,96,97
 113 545 113 545 180 614 c 1,98,-1
 0 614 l 1,19,20
472 334 m 0,99,-1
EndSplineSet
EndChar
StartChar: LetterBA
Encoding: 2348 2348 48
Width: 621
GlyphClass: 2
Flags: W
AnchorPoint: "Anchor-2" 454 665 basechar 0
AnchorPoint: "Anchor-0" 481 -1 basechar 0
Fore
416 564 m 2,0,1
 416 605 416 605 444 614 c 1,2,-1
 0 614 l 1,3,4
 13 623 13 623 18 646 c 0,5,6
 21 661 21 661 31 666 c 1,7,-1
 653 666 l 1,8,9
 644 662 644 662 641 641 c 1,10,-1
 635 625 l 1,11,-1
 625 615 l 1,12,-1
 624 614 l 1,13,-1
 529 614 l 2,14,15
 498 614 498 614 497 564 c 1,16,-1
 497 105 l 2,17,18
 497 67 497 67 530 67 c 0,19,20
 561 67 561 67 571 98 c 0,21,22
 573 102 573 102 574 105 c 1,23,24
 575 72 575 72 563 47 c 0,25,26
 557 34 557 34 546 23 c 1,27,-1
 529 10 l 1,28,-1
 507 2 l 2,29,30
 499 0 499 0 488 0 c 0,31,32
 448 -1 448 -1 430 26 c 0,33,34
 421 40 421 40 418 62 c 0,35,36
 416 82 416 82 416 91 c 2,37,-1
 416 228 l 1,38,39
 373 149 373 149 264 131 c 1,40,-1
 229 129 l 1,41,-1
 224 129 l 2,42,43
 139 141 139 141 93 186 c 0,44,45
 29 248 29 248 38 337 c 0,46,47
 39 345 39 345 40 354 c 0,48,49
 49 406 49 406 84 444 c 0,50,51
 131 496 131 496 185 512 c 0,52,53
 235 526 235 526 276 521 c 0,54,55
 294 519 294 519 310 514 c 0,56,57
 342 503 342 503 368 478 c 1,58,-1
 393 451 l 2,59,60
 404 438 404 438 416 419 c 1,61,-1
 416 564 l 2,0,1
135 241 m 0,62,63
 151 211 151 211 196 189 c 0,64,65
 233 171 233 171 275 175 c 0,66,67
 283 176 283 176 290 177 c 0,68,69
 325 185 325 185 341 199 c 1,70,71
 271 226 271 226 254 302 c 1,72,73
 253 365 253 365 231 394 c 0,74,75
 214 418 214 418 171 436 c 1,76,77
 141 417 141 417 126 386 c 0,78,79
 105 342 105 342 111 303 c 0,80,81
 112 296 112 296 114 288 c 0,82,83
 120 267 120 267 135 241 c 0,62,63
197 461 m 1,84,85
 233 454 233 454 270 404 c 1,86,87
 290 380 290 380 293 304 c 1,88,89
 298 263 298 263 326 240 c 1,90,91
 349 218 349 218 369 220 c 1,92,93
 415 254 415 254 415 283 c 0,94,95
 415 287 415 287 416 289 c 1,96,-1
 416 361 l 2,97,98
 416 392 416 392 365 437 c 0,99,100
 316 479 316 479 260 479 c 0,101,102
 244 479 244 479 229 476 c 0,103,104
 210 471 210 471 197 461 c 1,84,85
EndSplineSet
EndChar
StartChar: LetterBHA
Encoding: 2349 2349 49
Width: 777
GlyphClass: 2
Flags: W
AnchorPoint: "Anchor-2" 602 665 basechar 0
AnchorPoint: "Anchor-0" 629 0 basechar 0
Fore
475 339 m 0,0,1
 429 339 429 339 399 338 c 1,2,3
 402 225 402 225 370 161 c 0,4,5
 353 129 353 129 328 109 c 0,6,7
 285 75 285 75 227 70 c 0,8,9
 165 66 165 66 125 91 c 0,10,11
 104 104 104 104 89 125 c 0,12,13
 55 173 55 173 59 223 c 0,14,15
 60 226 60 226 60 230 c 1,16,-1
 63 248 l 1,17,18
 75 288 75 288 108 317 c 0,19,20
 181 379 181 379 300 379 c 2,21,-1
 340 379 l 1,22,23
 341 423 341 423 325 476 c 0,24,25
 316 504 316 504 303 534 c 0,26,27
 282 584 282 584 258 602 c 0,28,29
 231 621 231 621 200 621 c 0,30,31
 157 621 157 621 137 575 c 0,32,33
 130 558 130 558 137 539 c 0,34,35
 141 530 141 530 147 520 c 1,36,37
 157 508 157 508 167 502 c 0,38,39
 189 486 189 486 218 488 c 0,40,41
 221 489 221 489 224 489 c 0,42,43
 235 490 235 490 249 499 c 0,44,45
 266 508 266 508 274 519 c 1,46,-1
 293 540 l 1,47,-1
 293 532 l 1,48,49
 282 482 282 482 223 462 c 0,50,51
 190 451 190 451 159 454 c 0,52,53
 150 455 150 455 142 457 c 0,54,55
 128 460 128 460 104 473 c 0,56,57
 62 498 62 498 53 536 c 0,58,59
 43 577 43 577 54 609 c 0,60,61
 60 625 60 625 71 640 c 0,62,63
 112 697 112 697 190 693 c 0,64,65
 194 692 194 692 198 692 c 0,66,67
 238 689 238 689 265 674 c 0,68,69
 366 618 366 618 400 390 c 1,70,-1
 402 378 l 1,71,72
 422 373 422 373 479 373 c 0,73,74
 521 373 521 373 536 377 c 0,75,76
 551 380 551 380 559 394 c 0,77,78
 566 405 566 405 566 430 c 2,79,-1
 566 563 l 2,80,81
 566 605 566 605 595 614 c 1,82,-1
 412 614 l 1,83,84
 425 623 425 623 430 646 c 0,85,86
 433 662 433 662 442 666 c 1,87,-1
 813 666 l 1,88,89
 804 662 804 662 801 641 c 1,90,-1
 795 625 l 1,91,-1
 784 615 l 1,92,-1
 783 614 l 1,93,-1
 680 614 l 2,94,95
 648 614 648 614 647 563 c 1,96,-1
 647 104 l 2,97,98
 647 66 647 66 681 66 c 0,99,100
 712 66 712 66 722 97 c 0,101,102
 724 101 724 101 725 104 c 1,103,104
 728 69 728 69 714 44 c 0,105,106
 707 30 707 30 695 20 c 0,107,108
 674 2 674 2 639 0 c 0,109,110
 598 -1 598 -1 580 26 c 0,111,112
 571 40 571 40 568 61 c 0,113,114
 566 79 566 79 566 102 c 2,115,-1
 566 361 l 2,116,117
 566 339 566 339 475 339 c 0,0,1
151 222 m 0,118,119
 151 162 151 162 194 147 c 0,120,121
 227 136 227 136 263 150 c 0,122,123
 292 161 292 161 316 195 c 0,124,125
 343 232 343 232 343 309 c 2,126,-1
 343 335 l 1,127,128
 298 337 298 337 264 330 c 0,129,130
 247 326 247 326 234 321 c 0,131,132
 151 285 151 285 151 222 c 0,118,119
EndSplineSet
EndChar
StartChar: LetterMA
Encoding: 2350 2350 50
Width: 721
GlyphClass: 2
Flags: W
AnchorPoint: "Anchor-2" 548 667 basechar 0
AnchorPoint: "Anchor-0" 574 -1 basechar 0
Fore
413 357 m 2,0,-1
 380 354 l 1,1,-1
 357 351 l 1,2,3
 362 307 362 307 361 280 c 0,4,5
 361 274 361 274 360 269 c 0,6,7
 359 258 359 258 355 233 c 0,8,9
 347 192 347 192 324 161 c 0,10,11
 265 78 265 78 177 86 c 0,12,13
 171 86 171 86 166 87 c 0,14,15
 101 98 101 98 63 160 c 0,16,17
 41 198 41 198 43 237 c 1,18,-1
 43 241 l 1,19,20
 44 243 44 243 44 248 c 0,21,22
 62 374 62 374 291 389 c 1,23,24
 289 436 289 436 257 504 c 0,25,26
 221 580 221 580 186 614 c 1,27,-1
 0 614 l 1,28,29
 13 623 13 623 18 646 c 0,30,31
 21 661 21 661 31 666 c 1,32,-1
 753 666 l 1,33,34
 744 662 744 662 739 641 c 1,35,36
 736 620 736 620 723 614 c 1,37,-1
 625 614 l 2,38,39
 593 614 593 614 592 564 c 1,40,-1
 592 105 l 2,41,42
 592 67 592 67 626 67 c 0,43,44
 655 67 655 67 667 98 c 0,45,46
 669 102 669 102 670 105 c 0,47,48
 667 2 667 2 584 0 c 0,49,50
 520 0 520 0 514 59 c 0,51,52
 511 84 511 84 511 91 c 2,53,-1
 511 372 l 1,54,55
 492 362 492 362 413 357 c 2,0,-1
511 564 m 2,56,57
 511 605 511 605 540 614 c 1,58,-1
 251 614 l 1,59,60
 290 567 290 567 331 459 c 1,61,62
 346 415 346 415 350 390 c 1,63,64
 357 395 357 395 421 394 c 0,65,66
 434 394 434 394 450 393 c 0,67,68
 470 392 470 392 482 395 c 0,69,70
 489 396 489 396 493 399 c 0,71,72
 504 405 504 405 510 422 c 1,73,-1
 511 442 l 1,74,-1
 511 564 l 2,56,57
298 346 m 1,75,76
 243 341 243 341 198 321 c 0,77,78
 143 295 143 295 130 254 c 0,79,80
 128 246 128 246 128 242 c 0,81,82
 127 221 127 221 134 205 c 0,83,84
 138 197 138 197 144 189 c 0,85,86
 162 169 162 169 179 163 c 0,87,88
 187 160 187 160 203 161 c 0,89,90
 210 161 210 161 218 162 c 0,91,92
 228 164 228 164 232 166 c 0,93,94
 290 192 290 192 301 278 c 0,95,96
 304 304 304 304 302 325 c 0,97,98
 301 336 301 336 298 346 c 1,75,76
EndSplineSet
EndChar
StartChar: LetterYA
Encoding: 2351 2351 51
Width: 838
GlyphClass: 2
Flags: W
AnchorPoint: "Anchor-2" 660 666 basechar 0
AnchorPoint: "Anchor-0" 688 0 basechar 0
Fore
626 91 m 2,0,-1
 626 237 l 1,1,-1
 593 194 l 2,2,3
 527 106 527 106 446 80 c 0,4,5
 378 58 378 58 314 65 c 0,6,7
 284 69 284 69 256 78 c 0,8,9
 100 128 100 128 63 299 c 0,10,11
 61 307 61 307 61 312 c 0,12,13
 57 363 57 363 66 386 c 0,14,15
 70 397 70 397 78 401 c 0,16,17
 106 418 106 418 141 392 c 1,18,19
 194 357 194 357 246 367 c 0,20,21
 258 369 258 369 270 374 c 0,22,23
 296 383 296 383 312 410 c 1,24,25
 352 469 352 469 319 527 c 0,26,27
 302 556 302 556 268 585 c 1,28,29
 241 606 241 606 226 614 c 1,30,-1
 0 614 l 1,31,32
 13 623 13 623 18 646 c 0,33,34
 21 661 21 661 31 666 c 1,35,-1
 867 666 l 1,36,37
 859 662 859 662 854 641 c 1,38,39
 851 620 851 620 838 614 c 1,40,-1
 739 614 l 2,41,42
 708 614 708 614 707 564 c 1,43,-1
 707 105 l 2,44,45
 707 67 707 67 740 67 c 0,46,47
 771 67 771 67 781 98 c 0,48,49
 783 102 783 102 784 105 c 0,50,51
 781 32 781 32 735 8 c 1,52,53
 717 0 717 0 698 0 c 0,54,55
 644 0 644 0 629 63 c 0,56,57
 626 78 626 78 626 91 c 2,0,-1
626 564 m 2,58,59
 626 605 626 605 654 614 c 1,60,-1
 315 614 l 1,61,62
 397 564 397 564 418 484 c 0,63,64
 425 458 425 458 421 433 c 0,65,66
 420 420 420 420 415 407 c 0,67,68
 410 392 410 392 407 389 c 1,69,70
 376 339 376 339 315 319 c 0,71,72
 279 307 279 307 245 309 c 0,73,74
 241 309 241 309 238 309 c 0,75,76
 212 310 212 310 162 328 c 0,77,78
 157 329 157 329 156 325 c 1,79,-1
 155 316 l 1,80,-1
 157 298 l 1,81,82
 171 215 171 215 230 166 c 0,83,84
 261 139 261 139 295 129 c 1,85,86
 366 103 366 103 438 128 c 0,87,88
 472 140 472 140 507 164 c 0,89,90
 567 204 567 204 603 261 c 1,91,92
 623 297 623 297 626 309 c 1,93,-1
 626 323 l 1,94,-1
 626 564 l 2,58,59
EndSplineSet
EndChar
StartChar: LetterRA
Encoding: 2352 2352 52
Width: 535
GlyphClass: 2
Flags: W
AnchorPoint: "Anchor-2" 218 666 basechar 0
AnchorPoint: "Anchor-0" 334 -3 basechar 0
Fore
251 331 m 0,0,1
 216 324 216 324 176 355 c 1,2,3
 145 381 145 381 125 373 c 0,4,5
 116 369 116 369 109 359 c 0,6,7
 86 329 86 329 112 289 c 0,8,9
 125 268 125 268 151 245 c 0,10,11
 192 207 192 207 206 142 c 0,12,13
 226 52 226 52 275 24 c 1,14,15
 322 -6 322 -6 380 0 c 1,16,-1
 402 4 l 2,17,18
 465 17 465 17 504 72 c 0,19,20
 508 78 508 78 504 78 c 0,21,22
 492 75 492 75 483 68 c 0,23,24
 470 56 470 56 404 42 c 0,25,26
 361 33 361 33 332 47 c 0,27,28
 316 54 316 54 304 68 c 1,29,30
 274 99 274 99 264 165 c 0,31,32
 246 271 246 271 191 308 c 1,33,34
 209 291 209 291 256 292 c 2,35,-1
 260 292 l 2,36,37
 317 293 317 293 361 327 c 1,38,39
 418 368 418 368 421 433 c 0,40,41
 423 475 423 475 408 508 c 0,42,43
 399 525 399 525 386 540 c 0,44,45
 340 591 340 591 274 614 c 1,46,-1
 549 614 l 1,47,48
 560 624 560 624 565 641 c 0,49,50
 570 662 570 662 579 666 c 1,51,-1
 31 666 l 1,52,53
 22 661 22 661 17 647 c 0,54,55
 9 620 9 620 0 614 c 1,56,-1
 174 614 l 2,57,58
 231 614 231 614 280 571 c 0,59,60
 341 519 341 519 343 452 c 0,61,62
 343 420 343 420 316 377 c 0,63,64
 295 341 295 341 251 331 c 0,0,1
EndSplineSet
EndChar
StartChar: LetterRRA
Encoding: 2353 2353 53
Width: 621
GlyphClass: 2
Flags: W
AnchorPoint: "Anchor-2" 303 666 basechar 0
AnchorPoint: "Anchor-0" 423 -3 basechar 0
Fore
251 331 m 0,0,1
 216 324 216 324 176 355 c 1,2,3
 145 381 145 381 125 373 c 0,4,5
 116 369 116 369 109 359 c 0,6,7
 86 329 86 329 112 289 c 0,8,9
 125 268 125 268 151 245 c 0,10,11
 192 207 192 207 206 142 c 0,12,13
 226 52 226 52 275 24 c 1,14,15
 322 -6 322 -6 380 0 c 1,16,-1
 402 4 l 2,17,18
 465 17 465 17 504 72 c 0,19,20
 508 78 508 78 504 78 c 0,21,22
 492 75 492 75 483 68 c 0,23,24
 470 56 470 56 404 42 c 0,25,26
 361 33 361 33 332 47 c 0,27,28
 316 54 316 54 304 68 c 1,29,30
 274 99 274 99 264 165 c 0,31,32
 246 271 246 271 191 308 c 1,33,34
 209 291 209 291 256 292 c 2,35,-1
 260 292 l 2,36,37
 317 293 317 293 361 327 c 1,38,39
 418 368 418 368 421 433 c 0,40,41
 423 475 423 475 408 508 c 0,42,43
 399 525 399 525 386 540 c 0,44,45
 340 591 340 591 274 614 c 1,46,-1
 549 614 l 1,47,48
 560 624 560 624 565 641 c 0,49,50
 570 662 570 662 579 666 c 1,51,-1
 31 666 l 1,52,53
 22 661 22 661 17 647 c 0,54,55
 9 620 9 620 0 614 c 1,56,-1
 174 614 l 2,57,58
 231 614 231 614 280 571 c 0,59,60
 341 519 341 519 343 452 c 0,61,62
 343 420 343 420 316 377 c 0,63,64
 295 341 295 341 251 331 c 0,0,1
155 116 m 1,65,66
 158 93 158 93 156 74 c 0,67,68
 155 64 155 64 152 55 c 0,69,70
 145 37 145 37 137 27 c 0,71,72
 112 -5 112 -5 84 2 c 0,73,74
 78 4 78 4 71 8 c 0,75,76
 45 24 45 24 47 55 c 0,77,78
 49 68 49 68 56 77 c 1,79,80
 72 91 72 91 94 90 c 128,-1,81
 116 89 116 89 135 100 c 0,82,83
 145 106 145 106 155 116 c 1,65,66
EndSplineSet
EndChar
StartChar: LetterLA
Encoding: 2354 2354 54
Width: 865
GlyphClass: 2
Flags: W
AnchorPoint: "Anchor-2" 684 665 basechar 0
AnchorPoint: "Anchor-0" 717 -2 basechar 0
Fore
429 276 m 0,0,1
 419 245 419 245 404 244 c 1,2,3
 391 247 391 247 372 301 c 0,4,5
 355 346 355 346 327 369 c 0,6,7
 294 394 294 394 258 393 c 0,8,9
 185 392 185 392 146 325 c 0,10,11
 123 283 123 283 126 233 c 0,12,13
 126 228 126 228 127 223 c 0,14,15
 128 210 128 210 134 188 c 0,16,17
 159 111 159 111 214 66 c 1,18,19
 247 37 247 37 292 13 c 0,20,21
 322 -4 322 -4 310 -2 c 0,22,23
 306 -2 306 -2 284 0 c 0,24,25
 163 14 163 14 97 105 c 0,26,27
 60 158 60 158 51 217 c 0,28,29
 38 316 38 316 96 385 c 0,30,31
 136 432 136 432 211 447 c 0,32,33
 264 459 264 459 306 444 c 0,34,35
 328 437 328 437 347 422 c 0,36,37
 395 384 395 384 407 306 c 1,38,39
 431 418 431 418 550 426 c 2,40,-1
 558 427 l 1,41,42
 620 419 620 419 648 384 c 1,43,-1
 648 564 l 2,44,45
 648 605 648 605 677 614 c 1,46,-1
 0 614 l 1,47,48
 16 626 16 626 19 648 c 0,49,50
 20 661 20 661 31 666 c 1,51,-1
 896 666 l 1,52,53
 889 662 889 662 884 641 c 1,54,55
 882 620 882 620 866 614 c 1,56,-1
 762 614 l 2,57,58
 730 614 730 614 729 564 c 1,59,-1
 729 104 l 2,60,61
 729 66 729 66 763 66 c 0,62,63
 788 66 788 66 804 97 c 0,64,65
 807 103 807 103 807 104 c 0,66,67
 804 -1 804 -1 721 -1 c 1,68,69
 651 1 651 1 648 90 c 1,70,-1
 648 291 l 2,71,72
 648 340 648 340 593 358 c 1,73,74
 567 368 567 368 540 365 c 1,75,-1
 513 360 l 1,76,77
 449 343 449 343 429 276 c 0,0,1
EndSplineSet
EndChar
StartChar: LetterLLA
Encoding: 2355 2355 55
Width: 1063
GlyphClass: 2
Flags: W
AnchorPoint: "Anchor-2" 706 665 basechar 0
AnchorPoint: "Anchor-0" 765 1 basechar 0
Fore
849 454 m 2,0,1
 853 450 853 450 886 437 c 0,2,3
 892 435 892 435 896 433 c 0,4,5
 970 394 970 394 995 340 c 0,6,7
 1029 270 1029 270 1018 199 c 0,8,9
 1013 167 1013 167 999 135 c 0,10,11
 971 74 971 74 915 35 c 0,12,13
 865 0 865 0 768 0 c 0,14,15
 720 0 720 0 648 35 c 1,16,17
 620 50 620 50 582 92 c 0,18,19
 552 125 552 125 525 176 c 1,20,21
 409 0 409 0 250 0 c 2,22,-1
 236 0 l 1,23,-1
 213 9 l 1,24,25
 133 35 133 35 97 105 c 0,26,27
 62 176 62 176 70 240 c 0,28,29
 71 250 71 250 73 260 c 0,30,31
 97 361 97 361 184 397 c 1,32,33
 265 428 265 428 328 419 c 0,34,35
 346 416 346 416 363 410 c 0,36,37
 475 371 475 371 545 268 c 1,38,39
 545 271 545 271 589 337 c 0,40,41
 651 433 651 433 719 447 c 0,42,43
 761 456 761 456 786 508 c 0,44,45
 792 520 792 520 786 544 c 0,46,47
 777 585 777 585 751 603 c 0,48,49
 738 613 738 613 722 614 c 2,50,-1
 0 614 l 1,51,52
 16 624 16 624 19 649 c 0,53,54
 22 663 22 663 32 666 c 1,55,-1
 1120 666 l 1,56,57
 1108 659 1108 659 1105 638 c 0,58,59
 1103 620 1103 620 1089 614 c 1,60,-1
 804 614 l 1,61,62
 856 587 856 587 861 539 c 1,63,-1
 860 517 l 1,64,-1
 858 511 l 2,65,66
 855 501 855 501 851 495 c 1,67,68
 839 482 839 482 841 466 c 0,69,70
 841 463 841 463 842 461 c 2,71,-1
 849 454 l 2,0,1
543 197 m 1,72,73
 633 99 633 99 681 82 c 0,74,75
 733 63 733 63 786 67 c 0,76,77
 793 67 793 67 800 68 c 0,78,79
 822 71 822 71 852 89 c 0,80,81
 910 123 910 123 922 189 c 0,82,83
 927 219 927 219 926 245 c 0,84,85
 926 251 926 251 925 257 c 0,86,87
 923 270 923 270 910 304 c 0,88,89
 899 330 899 330 885 347 c 0,90,91
 844 400 844 400 780 396 c 2,92,-1
 773 395 l 2,93,94
 768 394 768 394 756 392 c 0,95,96
 650 366 650 366 543 197 c 1,72,73
152 182 m 0,97,98
 164 118 164 118 229 80 c 0,99,100
 258 63 258 63 301 68 c 0,101,102
 313 69 313 69 325 72 c 0,103,104
 353 78 353 78 366 84 c 0,105,106
 428 116 428 116 509 225 c 1,107,108
 449 323 449 323 371 346 c 0,109,110
 287 369 287 369 231 344 c 0,111,112
 202 331 202 331 180 306 c 0,113,114
 142 261 142 261 149 198 c 0,115,116
 150 190 150 190 152 182 c 0,97,98
EndSplineSet
EndChar
StartChar: LetterLLLA
Encoding: 2356 2356 56
Width: 1037
GlyphClass: 2
Flags: W
AnchorPoint: "Anchor-2" 711 665 basechar 0
AnchorPoint: "Anchor-0" 780 -208 basechar 0
Fore
849 454 m 2,0,1
 853 450 853 450 886 437 c 0,2,3
 892 435 892 435 896 433 c 0,4,5
 970 394 970 394 995 340 c 0,6,7
 1029 270 1029 270 1018 199 c 0,8,9
 1013 167 1013 167 999 135 c 0,10,11
 971 74 971 74 915 35 c 0,12,13
 866 1 866 1 768 1 c 0,14,15
 717 1 717 1 648 35 c 0,16,17
 620 50 620 50 582 92 c 0,18,19
 552 125 552 125 525 176 c 1,20,21
 409 0 409 0 250 0 c 1,22,-1
 236 2 l 1,23,-1
 213 9 l 2,24,25
 133 35 133 35 97 105 c 0,26,27
 62 176 62 176 70 240 c 0,28,29
 71 250 71 250 73 260 c 0,30,31
 97 361 97 361 184 397 c 1,32,33
 265 428 265 428 328 419 c 0,34,35
 346 416 346 416 363 410 c 0,36,37
 475 371 475 371 545 268 c 1,38,39
 545 271 545 271 589 337 c 0,40,41
 651 433 651 433 719 447 c 0,42,43
 761 456 761 456 786 508 c 0,44,45
 792 520 792 520 786 544 c 0,46,47
 777 585 777 585 751 603 c 0,48,49
 738 613 738 613 722 614 c 2,50,-1
 0 614 l 1,51,52
 16 624 16 624 19 649 c 0,53,54
 22 663 22 663 32 666 c 1,55,-1
 1120 666 l 1,56,57
 1108 659 1108 659 1105 638 c 0,58,59
 1103 620 1103 620 1089 614 c 1,60,-1
 804 614 l 1,61,62
 856 587 856 587 861 539 c 1,63,-1
 860 517 l 1,64,-1
 858 511 l 2,65,66
 855 501 855 501 851 495 c 1,67,68
 839 482 839 482 841 466 c 0,69,70
 841 463 841 463 842 461 c 2,71,-1
 849 454 l 2,0,1
543 197 m 1,72,73
 633 99 633 99 681 82 c 0,74,75
 733 63 733 63 786 67 c 0,76,77
 793 67 793 67 800 68 c 0,78,79
 822 71 822 71 852 89 c 0,80,81
 910 123 910 123 922 189 c 0,82,83
 927 219 927 219 926 245 c 0,84,85
 926 251 926 251 925 257 c 0,86,87
 923 270 923 270 910 304 c 0,88,89
 899 330 899 330 885 347 c 0,90,91
 844 400 844 400 780 396 c 2,92,-1
 773 395 l 2,93,94
 768 394 768 394 756 392 c 0,95,96
 650 366 650 366 543 197 c 1,72,73
152 182 m 0,97,98
 164 118 164 118 229 80 c 0,99,100
 258 63 258 63 301 68 c 0,101,102
 313 69 313 69 325 72 c 0,103,104
 353 78 353 78 366 84 c 0,105,106
 428 116 428 116 509 225 c 1,107,108
 449 323 449 323 371 346 c 0,109,110
 287 369 287 369 231 344 c 0,111,112
 202 331 202 331 180 306 c 0,113,114
 142 261 142 261 149 198 c 0,115,116
 150 190 150 190 152 182 c 0,97,98
830 -42 m 1,117,118
 803 -69 803 -69 770 -68 c 0,119,120
 755 -67 755 -67 743 -73 c 0,121,122
 737 -76 737 -76 732 -81 c 0,123,124
 720 -94 720 -94 722 -110 c 0,125,126
 722 -113 722 -113 723 -115 c 0,127,128
 724 -120 724 -120 730 -132 c 0,129,130
 745 -159 745 -159 774 -156 c 0,131,132
 777 -156 777 -156 779 -155 c 0,133,134
 798 -151 798 -151 813 -131 c 0,135,136
 831 -108 831 -108 831 -53 c 0,137,138
 831 -46 831 -46 830 -42 c 1,117,118
EndSplineSet
EndChar
StartChar: LetterVA
Encoding: 2357 2357 57
Width: 643
GlyphClass: 2
Flags: W
AnchorPoint: "Anchor-2" 464 665 basechar 0
AnchorPoint: "Anchor-0" 500 -2 basechar 0
Fore
430 267 m 1,0,-1
 430 383 l 1,1,2
 354 481 354 481 265 468 c 0,3,4
 256 467 256 467 247 464 c 0,5,6
 185 448 185 448 148 385 c 0,7,8
 132 357 132 357 130 327 c 0,9,10
 126 248 126 248 184 204 c 0,11,12
 232 166 232 166 292 177 c 0,13,14
 312 181 312 181 327 187 c 0,15,16
 382 209 382 209 430 267 c 1,0,-1
430 91 m 2,17,-1
 430 224 l 1,18,19
 337 125 337 125 228 131 c 0,20,21
 223 132 223 132 219 132 c 0,22,23
 130 140 130 140 81 210 c 0,24,25
 46 259 46 259 49 321 c 1,26,-1
 49 327 l 1,27,28
 56 447 56 447 150 493 c 0,29,30
 199 518 199 518 256 514 c 0,31,32
 264 513 264 513 271 512 c 0,33,34
 302 507 302 507 327 498 c 0,35,36
 387 475 387 475 430 423 c 1,37,-1
 430 564 l 2,38,39
 430 605 430 605 459 614 c 1,40,-1
 0 614 l 1,41,42
 13 623 13 623 18 646 c 0,43,44
 21 661 21 661 31 666 c 1,45,-1
 676 666 l 1,46,47
 669 662 669 662 664 641 c 0,48,49
 661 624 661 624 646 614 c 1,50,-1
 544 614 l 2,51,52
 512 614 512 614 511 564 c 1,53,-1
 511 105 l 2,54,55
 511 67 511 67 545 67 c 0,56,57
 568 67 568 67 586 98 c 0,58,59
 588 102 588 102 589 105 c 1,60,61
 590 72 590 72 578 48 c 0,62,63
 571 35 571 35 561 25 c 0,64,65
 539 2 539 2 503 0 c 0,66,67
 463 -1 463 -1 445 27 c 0,68,69
 436 41 436 41 432 62 c 0,70,71
 430 82 430 82 430 91 c 2,17,-1
EndSplineSet
EndChar
StartChar: LetterSHA
Encoding: 2358 2358 58
Width: 798
GlyphClass: 2
Flags: W
AnchorPoint: "Anchor-2" 616 665 basechar 0
AnchorPoint: "Anchor-0" 649 2 basechar 0
Fore
209 399 m 0,0,1
 167 394 167 394 134 403 c 0,2,3
 118 408 118 408 104 416 c 0,4,5
 82 429 82 429 69 447 c 0,6,7
 50 472 50 472 49 498 c 0,8,9
 47 535 47 535 73 564 c 0,10,11
 86 578 86 578 105 590 c 0,12,13
 146 615 146 615 197 615 c 0,14,15
 349 613 349 613 431 517 c 0,16,17
 482 456 482 456 482 386 c 0,18,19
 480 264 480 264 372 195 c 0,20,21
 324 165 324 165 276 156 c 1,22,23
 305 57 305 57 368 55 c 0,24,25
 394 55 394 55 419 72 c 1,26,-1
 455 99 l 1,27,28
 458 100 458 100 457 97 c 2,29,-1
 454 90 l 1,30,31
 450 84 450 84 442 72 c 0,32,33
 397 1 397 1 333 2 c 2,34,-1
 328 2 l 2,35,36
 270 7 270 7 239 77 c 1,37,-1
 214 136 l 1,38,39
 169 129 169 129 135 135 c 0,40,41
 116 139 116 139 101 147 c 0,42,43
 78 159 78 159 65 178 c 1,44,45
 41 207 41 207 45 237 c 0,46,47
 45 240 45 240 46 244 c 0,48,49
 48 253 48 253 52 262 c 0,50,51
 72 307 72 307 131 306 c 1,52,53
 143 304 143 304 156 303 c 1,54,55
 210 292 210 292 250 223 c 0,56,57
 258 210 258 210 263 196 c 1,58,59
 312 199 312 199 349 264 c 1,60,61
 384 321 384 321 383 389 c 0,62,63
 381 457 381 457 329 509 c 1,64,65
 292 549 292 549 238 560 c 0,66,67
 222 564 222 564 203 563 c 2,68,-1
 199 563 l 2,69,70
 142 562 142 562 129 520 c 0,71,72
 121 497 121 497 130 479 c 0,73,74
 135 469 135 469 144 461 c 0,75,76
 163 445 163 445 189 445 c 0,77,78
 247 445 247 445 285 472 c 0,79,80
 292 476 292 476 301 485 c 0,81,82
 309 493 309 493 312 492 c 1,83,-1
 314 486 l 1,84,85
 313 467 313 467 283 436 c 1,86,87
 249 403 249 403 209 399 c 0,0,1
125 242 m 0,88,89
 117 231 117 231 120 223 c 0,90,91
 121 219 121 219 124 216 c 0,92,93
 128 209 128 209 139 203 c 0,94,95
 164 190 164 190 195 187 c 1,96,97
 186 221 186 221 156 241 c 0,98,99
 141 250 141 250 132 247 c 0,100,101
 127 245 127 245 125 242 c 0,88,89
612 614 m 1,102,103
 584 605 584 605 584 564 c 2,104,-1
 584 91 l 2,105,106
 584 82 584 82 586 62 c 0,107,108
 596 -1 596 -1 656 0 c 0,109,110
 675 0 675 0 693 8 c 1,111,-1
 712 19 l 1,112,113
 744 48 744 48 742 105 c 1,114,-1
 739 98 l 1,115,116
 723 67 723 67 698 67 c 0,117,118
 665 67 665 67 665 105 c 2,119,-1
 665 564 l 1,120,121
 666 614 666 614 697 614 c 2,122,-1
 802 614 l 1,123,124
 814 619 814 619 819 641 c 0,125,126
 822 662 822 662 831 666 c 1,127,-1
 31 666 l 1,128,129
 20 664 20 664 18 649 c 0,130,131
 13 623 13 623 0 614 c 1,132,-1
 612 614 l 1,102,103
EndSplineSet
EndChar
StartChar: LetterSSA
Encoding: 2359 2359 59
Width: 619
GlyphClass: 2
Flags: W
AnchorPoint: "Anchor-2" 434 665 basechar 0
AnchorPoint: "Anchor-0" 467 -1 basechar 0
Fore
403 91 m 2,0,-1
 403 249 l 1,1,2
 375 196 375 196 301 165 c 1,3,4
 235 135 235 135 187 150 c 1,5,6
 135 160 135 160 91 209 c 0,7,8
 31 276 31 276 46 374 c 0,9,10
 50 396 50 396 57 420 c 0,11,12
 84 505 84 505 179 614 c 1,13,-1
 1 614 l 1,14,15
 14 623 14 623 19 646 c 0,16,17
 24 662 24 662 32 666 c 1,18,-1
 650 666 l 1,19,20
 641 662 641 662 638 641 c 1,21,-1
 632 625 l 1,22,-1
 622 615 l 1,23,-1
 621 614 l 1,24,-1
 517 614 l 2,25,26
 485 614 485 614 484 564 c 1,27,-1
 484 105 l 2,28,29
 484 67 484 67 518 67 c 0,30,31
 543 67 543 67 559 98 c 0,32,33
 561 102 561 102 562 105 c 0,34,35
 557 22 557 22 502 4 c 0,36,37
 491 0 491 0 476 0 c 0,38,39
 403 0 403 0 403 91 c 2,0,-1
403 564 m 2,40,41
 403 605 403 605 432 614 c 1,42,-1
 219 614 l 1,43,-1
 258 549 l 1,44,45
 294 482 294 482 302 434 c 0,46,47
 313 369 313 369 398 288 c 2,48,-1
 403 283 l 1,49,-1
 403 564 l 2,40,41
184 567 m 1,50,51
 102 425 102 425 124 330 c 0,52,53
 129 308 129 308 140 288 c 0,54,55
 177 224 177 224 249 215 c 0,56,57
 275 212 275 212 298 217 c 0,58,59
 311 219 311 219 322 224 c 0,60,61
 337 231 337 231 352 244 c 1,62,-1
 322 286 l 1,63,64
 267 357 267 357 260 402 c 1,65,66
 243 491 243 491 184 567 c 1,50,51
EndSplineSet
EndChar
StartChar: LetterSA
Encoding: 2360 2360 60
Width: 864
GlyphClass: 2
Flags: W
AnchorPoint: "Anchor-2" 667 665 basechar 0
AnchorPoint: "Anchor-0" 701 -1 basechar 0
Fore
155 219 m 0,0,1
 146 247 146 247 100 283 c 1,2,3
 72 307 72 307 76 339 c 0,4,5
 76 342 76 342 77 345 c 0,6,7
 86 394 86 394 122 398 c 0,8,9
 148 402 148 402 165 394 c 0,10,11
 173 391 173 391 179 384 c 0,12,13
 196 366 196 366 224 363 c 1,14,-1
 261 363 l 2,15,16
 301 365 301 365 321 376 c 0,17,18
 360 397 360 397 361 436 c 0,19,20
 362 485 362 485 339 521 c 0,21,22
 328 540 328 540 310 555 c 0,23,24
 276 584 276 584 249 599 c 2,25,-1
 222 613 l 1,26,-1
 0 613 l 1,27,28
 14 622 14 622 18 646 c 0,29,30
 21 660 21 660 32 666 c 1,31,-1
 907 666 l 1,32,33
 899 663 899 663 893 641 c 1,34,35
 890 622 890 622 875 614 c 1,36,-1
 775 614 l 2,37,38
 741 614 741 614 740 564 c 1,39,-1
 740 105 l 2,40,41
 740 67 740 67 776 67 c 0,42,43
 803 67 803 67 818 98 c 0,44,45
 821 102 821 102 821 105 c 0,46,47
 809 0 809 0 732 0 c 0,48,49
 692 0 692 0 673 26 c 0,50,51
 662 40 662 40 659 62 c 0,52,53
 657 76 657 76 657 91 c 2,54,-1
 657 299 l 1,55,56
 587 256 587 256 510 261 c 0,57,58
 505 261 505 261 500 262 c 0,59,60
 489 262 489 262 477 265 c 1,61,62
 456 267 456 267 401 289 c 2,63,-1
 349 311 l 1,64,-1
 337 311 l 1,65,-1
 292 307 l 1,66,-1
 246 305 l 1,67,-1
 218 309 l 1,68,69
 226 292 226 292 230 257 c 1,70,-1
 237 217 l 1,71,72
 246 152 246 152 284 100 c 0,73,74
 329 41 329 41 403 49 c 0,75,76
 408 49 408 49 414 50 c 0,77,78
 417 50 417 50 427 52 c 1,79,80
 446 52 446 52 472 68 c 1,81,82
 488 76 488 76 493 81 c 1,83,84
 517 96 517 96 519 95 c 1,85,-1
 513 85 l 1,86,-1
 508 80 l 2,87,88
 425 0 425 0 349 0 c 0,89,90
 256 0 256 0 207 92 c 0,91,92
 178 145 178 145 155 219 c 0,0,1
425 369 m 0,93,94
 404 338 404 338 389 332 c 1,95,-1
 435 317 l 1,96,97
 478 307 478 307 517 310 c 0,98,99
 529 311 529 311 542 313 c 0,100,101
 567 319 567 319 586 331 c 0,102,103
 614 347 614 347 637 381 c 0,104,105
 648 397 648 397 657 422 c 1,106,-1
 657 564 l 2,107,108
 657 605 657 605 687 614 c 1,109,-1
 297 614 l 1,110,-1
 346 587 l 1,111,112
 400 547 400 547 429 496 c 0,113,114
 452 453 452 453 443 411 c 0,115,116
 438 390 438 390 425 369 c 0,93,94
EndSplineSet
EndChar
StartChar: LetterHA
Encoding: 2361 2361 61
Width: 559
GlyphClass: 2
Flags: W
AnchorPoint: "Anchor-2" 364 663 basechar 0
AnchorPoint: "Anchor-0" 296 -38 basechar 0
Fore
427 184 m 1,0,1
 446 216 446 216 443 248 c 0,2,3
 443 251 443 251 442 255 c 0,4,5
 441 264 441 264 436 275 c 0,6,7
 425 306 425 306 389 324 c 1,8,9
 376 329 376 329 366 332 c 0,10,11
 323 343 323 343 277 333 c 0,12,13
 252 327 252 327 227 316 c 0,14,15
 155 286 155 286 135 224 c 1,16,-1
 132 217 l 1,17,-1
 132 216 l 1,18,19
 112 146 112 146 135 93 c 0,20,21
 146 67 146 67 167 47 c 0,22,23
 232 -17 232 -17 369 -2 c 0,24,25
 396 1 396 1 425 7 c 0,26,27
 444 11 444 11 454 9 c 0,28,29
 457 9 457 9 459 8 c 0,30,31
 464 6 464 6 457 2 c 0,32,33
 453 0 453 0 444 -3 c 2,34,-1
 414 -14 l 1,35,36
 305 -49 305 -49 223 -28 c 0,37,38
 181 -18 181 -18 146 7 c 0,39,40
 93 46 93 46 61 109 c 0,41,42
 40 151 40 151 44 198 c 0,43,44
 44 204 44 204 45 210 c 0,45,46
 48 230 48 230 56 252 c 0,47,48
 83 322 83 322 147 338 c 1,49,50
 114 344 114 344 96 390 c 0,51,52
 82 428 82 428 91 460 c 0,53,54
 95 477 95 477 106 492 c 0,55,56
 145 545 145 545 236 537 c 2,57,-1
 254 535 l 1,58,59
 297 525 297 525 308 522 c 2,60,-1
 317 519 l 1,61,-1
 318 519 l 2,62,63
 380 500 380 500 405 513 c 0,64,65
 418 519 418 519 421 534 c 0,66,67
 424 547 424 547 420 559 c 0,68,69
 418 565 418 565 414 572 c 0,70,71
 409 582 409 582 397 594 c 0,72,73
 379 612 379 612 357 614 c 1,74,-1
 0 614 l 1,75,76
 13 623 13 623 18 646 c 0,77,78
 21 661 21 661 31 666 c 1,79,-1
 594 666 l 1,80,81
 587 662 587 662 582 641 c 1,82,83
 580 621 580 621 564 614 c 1,84,-1
 436 614 l 1,85,86
 476 599 476 599 492 555 c 0,87,88
 498 537 498 537 496 522 c 0,89,90
 496 518 496 518 495 514 c 0,91,92
 494 506 494 506 486 496 c 1,93,94
 474 472 474 472 431 465 c 1,95,-1
 403 464 l 1,96,-1
 393 466 l 2,97,98
 288 488 288 488 238 482 c 1,99,-1
 213 476 l 2,100,101
 209 474 209 474 191 463 c 1,102,103
 168 446 168 446 172 424 c 0,104,105
 172 422 172 422 173 419 c 0,106,107
 174 411 174 411 182 400 c 0,108,109
 205 371 205 371 234 371 c 0,110,111
 240 371 240 371 243 372 c 0,112,113
 317 389 317 389 371 384 c 0,114,115
 384 383 384 383 397 380 c 0,116,117
 431 372 431 372 453 357 c 0,118,119
 470 347 470 347 481 330 c 0,120,121
 500 300 500 300 493 264 c 0,122,123
 490 245 490 245 480 224 c 0,124,125
 466 192 466 192 436 157 c 0,126,127
 432 151 432 151 429 147 c 0,128,129
 376 84 376 84 387 111 c 0,130,131
 389 114 389 114 427 184 c 1,0,1
EndSplineSet
EndChar
StartChar: letterLa
Encoding: 2363 2363 62
Width: 885
GlyphClass: 2
Flags: W
AnchorPoint: "Anchor-2" 561 665 basechar 0
AnchorPoint: "Anchor-0" 495 0 basechar 0
Fore
592 84 m 1,0,1
 740 222 740 222 699 323 c 0,2,3
 689 349 689 349 666 373 c 0,4,5
 634 405 634 405 586 391 c 1,6,-1
 555 377 l 2,7,8
 545 372 545 372 535 365 c 0,9,10
 503 342 503 342 473 272 c 0,11,12
 463 247 463 247 440 248 c 1,13,14
 432 250 432 250 416 297 c 0,15,16
 403 334 403 334 358 365 c 1,17,18
 319 394 319 394 284 393 c 0,19,20
 203 392 203 392 161 325 c 0,21,22
 130 277 130 277 137 223 c 1,23,-1
 141 204 l 1,24,25
 161 129 161 129 224 66 c 0,26,27
 249 41 249 41 302 13 c 0,28,29
 328 -1 328 -1 321 -2 c 0,30,31
 316 -2 316 -2 294 0 c 0,32,33
 180 14 180 14 108 105 c 0,34,35
 60 167 60 167 53 223 c 0,36,37
 41 307 41 307 78 368 c 0,38,39
 97 398 97 398 128 423 c 0,40,41
 185 469 185 469 242 467 c 2,42,-1
 257 466 l 2,43,44
 365 459 365 459 422 371 c 0,45,46
 453 324 453 324 451 302 c 1,47,48
 473 403 473 403 555 444 c 1,49,-1
 594 453 l 1,50,51
 692 453 692 453 739 395 c 0,52,53
 776 349 776 349 772 288 c 0,54,55
 772 284 772 284 771 279 c 0,56,57
 770 272 770 272 768 260 c 0,58,59
 747 166 747 166 649 100 c 0,60,61
 607 73 607 73 595 80 c 0,62,63
 593 81 593 81 592 84 c 1,0,1
621 440 m 0,64,65
 591 421 591 421 582 427 c 0,66,67
 579 429 579 429 578 434 c 1,68,69
 613 485 613 485 612 530 c 0,70,71
 609 614 609 614 539 614 c 2,72,-1
 0 614 l 1,73,74
 16 626 16 626 19 648 c 0,75,76
 20 661 20 661 31 666 c 1,77,-1
 922 666 l 1,78,79
 914 662 914 662 909 641 c 1,80,81
 907 620 907 620 892 614 c 1,82,-1
 621 614 l 1,83,84
 672 582 672 582 672 526 c 0,85,86
 672 474 672 474 621 440 c 0,64,65
EndSplineSet
EndChar
StartChar: SignNukta
Encoding: 2364 2364 63
Width: 0
GlyphClass: 2
Flags: W
Fore
-74 -42 m 1,0,1
 -101 -69 -101 -69 -133 -68 c 0,2,3
 -151 -67 -151 -67 -163 -74 c 0,4,5
 -168 -77 -168 -77 -172 -81 c 0,6,7
 -185 -95 -185 -95 -181 -113 c 0,8,9
 -180 -122 -180 -122 -174 -132 c 0,10,11
 -158 -159 -158 -159 -131 -156 c 0,12,13
 -128 -156 -128 -156 -125 -155 c 0,14,15
 -106 -150 -106 -150 -91 -131 c 0,16,17
 -68 -103 -68 -103 -71 -61 c 0,18,19
 -71 -57 -71 -57 -72 -53 c 1,20,-1
 -74 -42 l 1,0,1
EndSplineSet
EndChar
StartChar: SignAvagraha
Encoding: 2365 2365 64
Width: 685
GlyphClass: 2
Flags: W
Fore
501 190 m 0,0,1
 510 144 510 144 492 103 c 0,2,3
 483 81 483 81 467 61 c 0,4,5
 413 -6 413 -6 316 -1 c 0,6,7
 312 0 312 0 307 0 c 0,8,9
 165 13 165 13 86 112 c 1,10,11
 52 152 52 152 49 189 c 1,12,-1
 50 211 l 1,13,14
 51 213 51 213 53 213 c 0,15,16
 56 212 56 212 62 204 c 0,17,18
 86 173 86 173 113 150 c 1,19,20
 191 90 191 90 259 80 c 0,21,22
 328 69 328 69 364 91 c 0,23,24
 383 103 383 103 394 124 c 0,25,26
 410 154 410 154 410 188 c 0,27,28
 408 268 408 268 311 341 c 2,29,-1
 193 428 l 1,30,31
 127 481 127 481 127 531 c 0,32,33
 127 622 127 622 229 650 c 1,34,35
 316 676 316 676 418 673 c 2,36,-1
 432 673 l 1,37,-1
 461 671 l 2,38,39
 566 662 566 662 613 627 c 0,40,41
 628 616 628 616 625 612 c 0,42,43
 623 610 623 610 617 609 c 1,44,-1
 591 613 l 2,45,46
 588 614 588 614 568 621 c 1,47,48
 468 640 468 640 395 635 c 0,49,50
 382 635 382 635 369 633 c 0,51,52
 324 628 324 628 294 614 c 1,53,54
 229 588 229 588 221 542 c 1,55,-1
 221 535 l 1,56,57
 220 506 220 506 232 481 c 0,58,59
 238 468 238 468 250 453 c 0,60,61
 266 431 266 431 290 414 c 2,62,-1
 404 334 l 1,63,64
 483 273 483 273 501 190 c 0,0,1
EndSplineSet
EndChar
StartChar: SignAA
Encoding: 2366 2366 65
Width: 271
GlyphClass: 2
Flags: W
Fore
63 564 m 1,0,-1
 63 91 l 2,1,2
 63 3 63 3 136 0 c 1,3,4
 198 2 198 2 216 62 c 0,5,6
 222 83 222 83 222 105 c 1,7,8
 205 74 205 74 193 70 c 2,9,-1
 178 67 l 1,10,11
 144 67 144 67 144 105 c 2,12,-1
 144 564 l 1,13,-1
 147 589 l 1,14,15
 156 614 156 614 177 614 c 2,16,-1
 276 614 l 1,17,18
 295 625 295 625 296 647 c 0,19,20
 298 661 298 661 306 666 c 1,21,-1
 31 666 l 1,22,23
 22 661 22 661 17 641 c 1,24,-1
 11 625 l 1,25,26
 5 617 5 617 0 614 c 1,27,-1
 92 614 l 1,28,29
 66 608 66 608 63 564 c 1,0,-1
EndSplineSet
EndChar
StartChar: SignI
Encoding: 2367 2367 66
Width: 242
GlyphClass: 2
Flags: W
Fore
45 564 m 2,0,1
 45 605 45 605 74 614 c 1,2,-1
 0 614 l 1,3,4
 13 623 13 623 18 646 c 0,5,6
 21 661 21 661 31 666 c 1,7,-1
 283 666 l 1,8,9
 273 662 273 662 270 641 c 1,10,-1
 264 625 l 1,11,-1
 254 615 l 1,12,-1
 253 614 l 1,13,-1
 159 614 l 2,14,15
 127 614 127 614 126 564 c 1,16,-1
 126 105 l 2,17,18
 126 67 126 67 160 67 c 0,19,20
 183 67 183 67 201 98 c 0,21,22
 203 102 203 102 204 105 c 1,23,24
 205 72 205 72 193 47 c 0,25,26
 187 34 187 34 176 23 c 2,27,-1
 161 9 l 1,28,29
 141 -1 141 -1 118 0 c 1,30,31
 78 -1 78 -1 60 27 c 0,32,33
 51 41 51 41 47 62 c 0,34,35
 45 82 45 82 45 91 c 2,36,-1
 45 564 l 2,0,1
68 662 m 1,37,38
 14 690 14 690 2 754 c 0,39,40
 -7 802 -7 802 12 838 c 0,41,42
 22 856 22 856 39 871 c 0,43,44
 82 909 82 909 160 911 c 0,45,46
 239 913 239 913 377 857 c 0,47,48
 446 829 446 829 530 787 c 2,49,-1
 729 686 l 1,50,51
 770 668 770 668 793 662 c 1,52,-1
 698 662 l 1,53,54
 617 682 617 682 446 754 c 0,55,56
 305 815 305 815 231 821 c 1,57,-1
 197 822 l 1,58,59
 98 817 98 817 89 764 c 0,60,61
 85 736 85 736 103 710 c 0,62,63
 111 698 111 698 125 685 c 0,64,65
 141 670 141 670 163 662 c 1,66,-1
 68 662 l 1,37,38
EndSplineSet
EndChar
StartChar: SignII
Encoding: 2368 2368 67
Width: 364
GlyphClass: 2
Flags: W
Fore
55 666 m 1,0,1
 36 657 36 657 30 642 c 0,2,3
 23 628 23 628 11 621 c 0,4,5
 6 618 6 618 0 614 c 1,6,-1
 123 613 l 2,7,8
 152 613 152 613 160 584 c 1,9,-1
 160 65 l 1,10,-1
 169 38 l 1,11,12
 188 -1 188 -1 228 -1 c 0,13,14
 284 -1 284 -1 306 44 c 0,15,16
 311 56 311 56 325 95 c 1,17,18
 300 62 300 62 274 63 c 1,19,20
 247 69 247 69 241 97 c 1,21,-1
 241 584 l 2,22,23
 241 605 241 605 248 609 c 0,24,25
 253 613 253 613 269 613 c 2,26,-1
 390 614 l 1,27,28
 408 624 408 624 414 635 c 2,29,-1
 415 636 l 2,30,31
 417 639 417 639 419 644 c 0,32,33
 431 664 431 664 439 665 c 2,34,-1
 444 666 l 1,35,-1
 266 666 l 1,36,-1
 229 666 l 2,37,38
 206 666 206 666 170 720 c 0,39,40
 114 803 114 803 102 817 c 0,41,42
 26 909 26 909 -75 907 c 0,43,44
 -194 904 -194 904 -230 828 c 1,45,46
 -250 791 -250 791 -241 753 c 0,47,48
 -237 733 -237 733 -225 713 c 0,49,50
 -209 683 -209 683 -178 666 c 1,51,-1
 -83 666 l 1,52,53
 -129 685 -129 685 -152 734 c 0,54,55
 -170 774 -170 774 -157 802 c 0,56,57
 -151 816 -151 816 -136 828 c 128,-1,58
 -121 840 -121 840 -95 848 c 0,59,60
 -35 864 -35 864 18 827 c 0,61,62
 45 808 45 808 70 774 c 1,63,-1
 129 684 l 1,64,65
 145 665 145 665 160 666 c 1,66,-1
 55 666 l 1,0,1
EndSplineSet
EndChar
StartChar: SignU
Encoding: 2369 2369 68
Width: 0
GlyphClass: 4
Flags: W
AnchorPoint: "Anchor-1" -133 8 mark 0
AnchorPoint: "Anchor-0" -133 8 mark 0
Fore
-116 -102 m 1,0,1
 -150 -102 -150 -102 -154 -74 c 0,2,3
 -155 -62 -155 -62 -152 -55 c 0,4,5
 -150 -51 -150 -51 -147 -48 c 0,6,7
 -141 -42 -141 -42 -136 -39 c 0,8,9
 -129 -35 -129 -35 -119 -36 c 0,10,11
 -73 -43 -73 -43 -74 -87 c 0,12,13
 -76 -130 -76 -130 -110 -156 c 0,14,15
 -130 -170 -130 -170 -152 -171 c 0,16,17
 -185 -172 -185 -172 -220 -162 c 0,18,19
 -238 -158 -238 -158 -256 -150 c 0,20,21
 -289 -135 -289 -135 -312 -122 c 0,22,23
 -386 -78 -386 -78 -409 -70 c 1,24,25
 -437 -57 -437 -57 -471 -54 c 0,26,27
 -496 -52 -496 -52 -517 -55 c 0,28,29
 -527 -57 -527 -57 -537 -60 c 1,30,-1
 -563 -73 l 1,31,-1
 -565 -74 l 1,32,-1
 -567 -75 l 2,33,34
 -568 -75 -568 -75 -569 -76 c 2,35,-1
 -577 -81 l 1,36,37
 -493 -82 -493 -82 -435 -110 c 0,38,39
 -406 -124 -406 -124 -341 -165 c 0,40,41
 -296 -193 -296 -193 -263 -203 c 0,42,43
 -193 -226 -193 -226 -138 -222 c 0,44,45
 -130 -221 -130 -221 -123 -220 c 0,46,47
 -97 -217 -97 -217 -69 -206 c 1,48,49
 -2 -175 -2 -175 -4 -112 c 1,50,-1
 -4 -108 l 1,51,-1
 -4 -103 l 1,52,53
 -10 -51 -10 -51 -65 -17 c 0,54,55
 -99 3 -99 3 -137 3 c 0,56,57
 -180 3 -180 3 -213 -31 c 0,58,59
 -236 -54 -236 -54 -232 -74 c 1,60,-1
 -230 -80 l 2,61,62
 -227 -90 -227 -90 -217 -100 c 0,63,64
 -204 -113 -204 -113 -177 -122 c 0,65,66
 -166 -126 -166 -126 -155 -124 c 0,67,68
 -149 -124 -149 -124 -143 -121 c 0,69,70
 -127 -116 -127 -116 -116 -102 c 1,0,1
EndSplineSet
EndChar
StartChar: SignUU
Encoding: 2370 2370 69
Width: 0
GlyphClass: 4
Flags: W
AnchorPoint: "Anchor-1" -111 14 mark 0
AnchorPoint: "Anchor-0" -111 14 mark 0
Fore
-144 -100 m 1,0,1
 -111 -104 -111 -104 -111 -134 c 0,2,3
 -111 -144 -111 -144 -117 -154 c 0,4,5
 -120 -158 -120 -158 -126 -164 c 1,6,-1
 -139 -168 l 2,7,8
 -142 -169 -142 -169 -151 -167 c 0,9,10
 -193 -154 -193 -154 -188 -115 c 0,11,12
 -188 -112 -188 -112 -187 -108 c 0,13,14
 -179 -66 -179 -66 -141 -47 c 0,15,16
 -121 -37 -121 -37 -98 -38 c 1,17,18
 -24 -47 -24 -47 52 -109 c 0,19,20
 121 -164 121 -164 132 -170 c 0,21,22
 171 -194 171 -194 201 -200 c 0,23,24
 237 -209 237 -209 268 -204 c 0,25,26
 283 -201 283 -201 297 -195 c 0,27,28
 299 -194 299 -194 309 -188 c 1,29,30
 227 -176 227 -176 173 -140 c 0,31,32
 150 -125 150 -125 89 -73 c 1,33,34
 57 -43 57 -43 16 -23 c 0,35,36
 -75 24 -75 24 -150 13 c 0,37,38
 -163 12 -163 12 -175 8 c 0,39,40
 -246 -12 -246 -12 -253 -74 c 0,41,42
 -254 -77 -254 -77 -254 -83 c 0,43,44
 -255 -121 -255 -121 -234 -150 c 0,45,46
 -222 -166 -222 -166 -205 -179 c 0,47,48
 -174 -204 -174 -204 -138 -208 c 0,49,50
 -110 -212 -110 -212 -84 -201 c 0,51,52
 -70 -195 -70 -195 -57 -185 c 0,53,54
 -26 -161 -26 -161 -35 -135 c 0,55,56
 -37 -127 -37 -127 -43 -119 c 1,57,-1
 -58 -103 l 1,58,-1
 -80 -90 l 2,59,60
 -94 -83 -94 -83 -109 -85 c 0,61,62
 -112 -85 -112 -85 -115 -86 c 0,63,64
 -130 -89 -130 -89 -144 -100 c 1,0,1
EndSplineSet
EndChar
StartChar: SignVocalicR
Encoding: 2371 2371 70
Width: 0
GlyphClass: 4
Flags: W
AnchorPoint: "Anchor-1" -161 8 mark 0
AnchorPoint: "Anchor-0" -161 8 mark 0
Fore
-81 -35 m 1,0,1
 -133 -13 -133 -13 -178 -23 c 0,2,3
 -202 -28 -202 -28 -223 -41 c 0,4,5
 -268 -69 -268 -69 -267 -111 c 1,6,7
 -265 -126 -265 -126 -259 -135 c 0,8,9
 -215 -208 -215 -208 -122 -198 c 0,10,11
 -113 -197 -113 -197 -104 -195 c 0,12,13
 -82 -189 -82 -189 -59 -180 c 1,14,-1
 -10 -157 l 2,15,16
 -8 -157 -8 -157 -8 -158 c 0,17,18
 -9 -169 -9 -169 -47 -193 c 1,19,20
 -119 -234 -119 -234 -190 -223 c 0,21,22
 -206 -221 -206 -221 -221 -216 c 0,23,24
 -241 -209 -241 -209 -262 -198 c 1,25,26
 -321 -163 -321 -163 -325 -108 c 0,27,28
 -329 -70 -329 -70 -304 -42 c 0,29,30
 -291 -28 -291 -28 -271 -17 c 0,31,32
 -252 -8 -252 -8 -238 -4 c 0,33,34
 -194 8 -194 8 -144 5 c 0,35,36
 -133 4 -133 4 -121 3 c 2,37,-1
 -94 -1 l 2,38,39
 -73 -4 -73 -4 -58 -25 c 0,40,41
 -48 -40 -48 -40 -61 -40 c 1,42,-1
 -81 -35 l 1,0,1
EndSplineSet
EndChar
StartChar: SignVocalicRR
Encoding: 2372 2372 71
Width: 0
GlyphClass: 4
Flags: W
AnchorPoint: "Anchor-1" -155 2 mark 0
AnchorPoint: "Anchor-0" -155 2 mark 0
Fore
-144 -126 m 0,0,1
 -123 -135 -123 -135 -78 -126 c 0,2,3
 -54 -122 -54 -122 -23 -112 c 0,4,5
 -6 -106 -6 -106 -13 -112 c 0,6,7
 -18 -116 -18 -116 -31 -122 c 2,8,-1
 -37 -125 l 2,9,10
 -100 -155 -100 -155 -150 -148 c 0,11,12
 -157 -148 -157 -148 -164 -146 c 2,13,-1
 -171 -144 l 1,14,15
 -202 -162 -202 -162 -207 -185 c 0,16,17
 -212 -207 -212 -207 -194 -223 c 0,18,19
 -185 -231 -185 -231 -170 -239 c 0,20,21
 -147 -250 -147 -250 -103 -240 c 0,22,23
 -82 -235 -82 -235 -55 -225 c 0,24,25
 -53 -224 -53 -224 -51 -224 c 0,26,27
 -39 -220 -39 -220 -41 -223 c 1,28,-1
 -48 -229 l 1,29,30
 -60 -236 -60 -236 -65 -238 c 0,31,32
 -131 -265 -131 -265 -162 -265 c 0,33,34
 -186 -265 -186 -265 -208 -256 c 0,35,36
 -251 -240 -251 -240 -253 -195 c 0,37,38
 -254 -166 -254 -166 -236 -144 c 1,39,40
 -227 -131 -227 -131 -211 -121 c 1,41,42
 -249 -84 -249 -84 -237 -52 c 0,43,44
 -234 -41 -234 -41 -224 -31 c 1,45,46
 -210 -12 -210 -12 -188 -8 c 0,47,48
 -152 1 -152 1 -110 -9 c 0,49,50
 -88 -14 -88 -14 -65 -24 c 0,51,52
 -60 -26 -60 -26 -54 -29 c 0,53,54
 -28 -42 -28 -42 -30 -44 c 1,55,-1
 -41 -43 l 1,56,57
 -108 -21 -108 -21 -135 -19 c 1,58,-1
 -158 -20 l 2,59,60
 -163 -21 -163 -21 -166 -23 c 0,61,62
 -209 -39 -209 -39 -200 -71 c 0,63,64
 -198 -77 -198 -77 -195 -83 c 0,65,66
 -179 -110 -179 -110 -144 -126 c 0,0,1
EndSplineSet
EndChar
StartChar: SignCandraE
Encoding: 2373 2373 72
Width: 0
GlyphClass: 4
Flags: W
AnchorPoint: "Anchor-3" -202 679 mark 0
AnchorPoint: "Anchor-2" -202 679 mark 0
Fore
-371 856 m 0,0,1
 -382 895 -382 895 -380 915 c 0,2,3
 -380 918 -380 918 -379 921 c 0,4,5
 -378 926 -378 926 -375 921 c 0,6,7
 -372 917 -372 917 -369 909 c 0,8,9
 -367 904 -367 904 -360 889 c 0,10,11
 -313 776 -313 776 -212 769 c 0,12,13
 -154 764 -154 764 -101 792 c 0,14,15
 -73 806 -73 806 -46 830 c 0,16,17
 -17 857 -17 857 -1 882 c 1,18,-1
 17 915 l 1,19,-1
 17 913 l 1,20,21
 15 883 15 883 3 856 c 0,22,23
 -42 746 -42 746 -132 713 c 0,24,25
 -188 691 -188 691 -239 707 c 0,26,27
 -266 715 -266 715 -290 733 c 0,28,29
 -345 774 -345 774 -371 856 c 0,0,1
EndSplineSet
EndChar
StartChar: SignShortE
Encoding: 2374 2374 73
Width: 0
GlyphClass: 4
Flags: W
AnchorPoint: "Anchor-3" -67 657 mark 0
AnchorPoint: "Anchor-2" -67 657 mark 0
Fore
-378 828 m 0,0,1
 -341 783 -341 783 -270 783 c 0,2,3
 -237 783 -237 783 -145 799 c 0,4,5
 -73 810 -73 810 -44 757 c 1,6,-1
 -33 728 l 1,7,8
 -28 710 -28 710 -26 686 c 1,9,-1
 -24 657 l 1,10,-1
 -101 657 l 1,11,-1
 -103 701 l 1,12,13
 -112 748 -112 748 -151 744 c 0,14,15
 -250 733 -250 733 -312 747 c 0,16,17
 -344 755 -344 755 -366 769 c 0,18,19
 -392 784 -392 784 -404 804 c 0,20,21
 -423 832 -423 832 -417 870 c 0,22,23
 -415 884 -415 884 -410 899 c 0,24,25
 -410 901 -410 901 -406 908 c 0,26,27
 -392 932 -392 932 -388 934 c 0,28,29
 -386 934 -386 934 -386 923 c 1,30,-1
 -387 912 l 1,31,-1
 -389 865 l 1,32,33
 -387 840 -387 840 -378 828 c 0,0,1
EndSplineSet
EndChar
StartChar: SignE
Encoding: 2375 2375 74
Width: 0
GlyphClass: 4
Flags: W
AnchorPoint: "Anchor-3" -93 662 mark 0
AnchorPoint: "Anchor-2" -93 662 mark 0
Fore
-129 665 m 1,0,1
 -159 691 -159 691 -212 792 c 0,2,3
 -219 805 -219 805 -225 818 c 0,4,5
 -266 915 -266 915 -327 904 c 0,6,7
 -333 903 -333 903 -338 901 c 2,8,-1
 -357 894 l 2,9,10
 -367 891 -367 891 -368 894 c 0,11,12
 -369 895 -369 895 -364 899 c 0,13,14
 -337 921 -337 921 -293 934 c 0,15,16
 -273 939 -273 939 -261 938 c 0,17,18
 -202 933 -202 933 -159 835 c 0,19,20
 -160 836 -160 836 -159 833 c 2,21,-1
 -157 829 l 2,22,23
 -93 688 -93 688 -34 665 c 1,24,-1
 -129 665 l 1,0,1
EndSplineSet
EndChar
StartChar: SignAI
Encoding: 2376 2376 75
Width: 0
GlyphClass: 4
Flags: W
AnchorPoint: "Anchor-3" -106 669 mark 0
AnchorPoint: "Anchor-2" -106 669 mark 0
Fore
-210 943 m 2,0,1
 -234 944 -234 944 -265 931 c 0,2,3
 -282 923 -282 923 -300 912 c 0,4,5
 -317 902 -317 902 -315 898 c 0,6,7
 -314 897 -314 897 -306 899 c 2,8,-1
 -270 909 l 1,9,10
 -226 916 -226 916 -195 877 c 0,11,12
 -178 856 -178 856 -165 823 c 0,13,14
 -160 813 -160 813 -139 742 c 1,15,-1
 -131 720 l 1,16,17
 -152 725 -152 725 -208 774 c 1,18,-1
 -265 821 l 1,19,20
 -335 871 -335 871 -397 877 c 1,21,22
 -422 878 -422 878 -453 863 c 1,23,-1
 -483 846 l 1,24,25
 -503 832 -503 832 -497 829 c 1,26,27
 -493 829 -493 829 -489 830 c 0,28,29
 -440 847 -440 847 -395 832 c 0,30,31
 -372 825 -372 825 -350 809 c 0,32,33
 -340 802 -340 802 -264 734 c 1,34,35
 -206 686 -206 686 -183 670 c 1,36,-1
 -41 670 l 1,37,-1
 -59 744 l 1,38,39
 -112 926 -112 926 -201 942 c 2,40,-1
 -210 943 l 2,0,1
EndSplineSet
EndChar
StartChar: SignCandraO
Encoding: 2377 2377 76
Width: 271
GlyphClass: 2
Flags: W
Fore
-41 835 m 0,0,1
 -52 873 -52 873 -50 893 c 0,2,3
 -50 896 -50 896 -49 899 c 0,4,5
 -48 904 -48 904 -44 898 c 1,6,-1
 -39 888 l 1,7,-1
 -31 867 l 1,8,9
 17 755 17 755 118 748 c 1,10,11
 176 742 176 742 231 772 c 0,12,13
 258 786 258 786 284 809 c 0,14,15
 305 828 305 828 329 860 c 1,16,-1
 346 894 l 1,17,-1
 347 892 l 1,18,-1
 345 867 l 1,19,20
 343 860 343 860 340 851 c 1,21,-1
 333 835 l 2,22,23
 288 726 288 726 198 691 c 0,24,25
 141 670 141 670 91 685 c 0,26,27
 64 694 64 694 40 712 c 0,28,29
 -17 752 -17 752 -41 835 c 0,0,1
63 564 m 1,30,-1
 63 91 l 2,31,32
 63 3 63 3 136 0 c 1,33,34
 198 2 198 2 216 62 c 0,35,36
 222 83 222 83 222 105 c 1,37,38
 205 74 205 74 193 70 c 2,39,-1
 178 67 l 1,40,41
 144 67 144 67 144 105 c 2,42,-1
 144 564 l 1,43,-1
 147 589 l 1,44,45
 156 614 156 614 177 614 c 2,46,-1
 276 614 l 1,47,48
 295 625 295 625 296 647 c 0,49,50
 298 661 298 661 306 666 c 1,51,-1
 31 666 l 1,52,53
 22 661 22 661 17 641 c 1,54,-1
 11 625 l 1,55,56
 5 617 5 617 0 614 c 1,57,-1
 92 614 l 1,58,59
 66 608 66 608 63 564 c 1,30,-1
EndSplineSet
EndChar
StartChar: SignShortO
Encoding: 2378 2378 77
Width: 266
GlyphClass: 2
Flags: W
Fore
-193 828 m 0,0,1
 -156 783 -156 783 -85 783 c 0,2,3
 -52 783 -52 783 40 799 c 0,4,5
 112 810 112 810 141 758 c 0,6,7
 156 731 156 731 160 686 c 1,8,-1
 162 657 l 1,9,-1
 84 657 l 1,10,-1
 82 701 l 1,11,12
 75 748 75 748 35 744 c 0,13,14
 -65 733 -65 733 -127 748 c 0,15,16
 -158 755 -158 755 -180 769 c 0,17,18
 -207 784 -207 784 -219 804 c 0,19,20
 -238 832 -238 832 -232 870 c 0,21,22
 -230 884 -230 884 -224 899 c 0,23,24
 -224 901 -224 901 -220 908 c 0,25,26
 -207 932 -207 932 -203 934 c 0,27,28
 -201 934 -201 934 -201 923 c 1,29,-1
 -202 912 l 1,30,-1
 -204 865 l 1,31,32
 -202 840 -202 840 -193 828 c 0,0,1
63 564 m 1,33,-1
 63 91 l 2,34,35
 63 3 63 3 136 0 c 1,36,37
 198 2 198 2 216 62 c 0,38,39
 222 83 222 83 222 105 c 1,40,41
 205 74 205 74 193 70 c 2,42,-1
 178 67 l 1,43,44
 144 67 144 67 144 105 c 2,45,-1
 144 564 l 1,46,-1
 147 589 l 1,47,48
 156 614 156 614 177 614 c 2,49,-1
 276 614 l 1,50,51
 295 625 295 625 296 647 c 0,52,53
 298 661 298 661 306 666 c 1,54,-1
 31 666 l 1,55,56
 22 661 22 661 17 641 c 1,57,-1
 11 625 l 1,58,59
 5 617 5 617 0 614 c 1,60,-1
 92 614 l 1,61,62
 66 608 66 608 63 564 c 1,33,-1
EndSplineSet
EndChar
StartChar: SignO
Encoding: 2379 2379 78
Width: 269
GlyphClass: 2
Flags: W
Fore
85 564 m 2,0,1
 85 605 85 605 114 614 c 1,2,-1
 0 614 l 1,3,4
 13 623 13 623 18 646 c 0,5,6
 20 663 20 663 31 666 c 1,7,-1
 306 666 l 1,8,9
 298 661 298 661 295 643 c 1,10,11
 294 624 294 624 276 614 c 1,12,-1
 199 614 l 2,13,14
 167 614 167 614 166 564 c 1,15,-1
 166 105 l 2,16,17
 166 67 166 67 200 67 c 0,18,19
 223 67 223 67 241 98 c 0,20,21
 243 102 243 102 244 105 c 1,22,23
 243 32 243 32 191 7 c 0,24,25
 179 2 179 2 158 0 c 0,26,27
 118 -1 118 -1 100 27 c 0,28,29
 91 41 91 41 87 62 c 0,30,31
 85 82 85 82 85 91 c 2,32,-1
 85 564 l 2,0,1
78 666 m 1,33,34
 48 692 48 692 -5 793 c 0,35,36
 -12 806 -12 806 -18 819 c 0,37,38
 -60 917 -60 917 -120 905 c 0,39,40
 -126 904 -126 904 -131 902 c 2,41,-1
 -151 895 l 2,42,43
 -159 893 -159 893 -161 894 c 0,44,45
 -162 895 -162 895 -157 900 c 0,46,47
 -130 922 -130 922 -86 935 c 0,48,49
 -66 940 -66 940 -54 939 c 0,50,51
 3 934 3 934 48 836 c 0,52,53
 50 831 50 831 50 830 c 0,54,55
 114 689 114 689 173 666 c 1,56,-1
 78 666 l 1,33,34
EndSplineSet
EndChar
StartChar: SignAO
Encoding: 2380 2380 79
Width: 269
GlyphClass: 2
Flags: W
Fore
36 933 m 2,0,-1
 45 932 l 2,1,2
 135 915 135 915 186 734 c 1,3,-1
 205 659 l 1,4,-1
 62 659 l 1,5,6
 16 693 16 693 -18 724 c 1,7,8
 -103 798 -103 798 -104 799 c 0,9,10
 -159 837 -159 837 -218 827 c 0,11,12
 -231 825 -231 825 -244 820 c 0,13,14
 -247 819 -247 819 -251 819 c 0,15,16
 -258 819 -258 819 -249 827 c 0,17,18
 -245 830 -245 830 -238 836 c 1,19,20
 -190 867 -190 867 -152 866 c 1,21,22
 -92 861 -92 861 -19 811 c 1,23,-1
 38 764 l 1,24,25
 95 715 95 715 115 710 c 1,26,-1
 106 732 l 1,27,28
 87 799 87 799 81 813 c 0,29,30
 42 906 42 906 -20 900 c 0,31,32
 -23 899 -23 899 -25 899 c 2,33,-1
 -60 889 l 2,34,35
 -69 887 -69 887 -70 888 c 0,36,37
 -73 889 -73 889 -67 893 c 0,38,39
 -63 897 -63 897 -54 902 c 0,40,41
 -2 934 -2 934 36 933 c 2,0,-1
85 564 m 2,42,43
 85 605 85 605 114 614 c 1,44,-1
 0 614 l 1,45,46
 13 623 13 623 18 646 c 0,47,48
 20 663 20 663 31 666 c 1,49,-1
 306 666 l 1,50,51
 298 661 298 661 295 643 c 1,52,53
 294 624 294 624 276 614 c 1,54,-1
 199 614 l 2,55,56
 167 614 167 614 166 564 c 1,57,-1
 166 105 l 2,58,59
 166 67 166 67 200 67 c 0,60,61
 223 67 223 67 241 98 c 0,62,63
 243 102 243 102 244 105 c 1,64,65
 243 32 243 32 191 7 c 0,66,67
 179 2 179 2 158 0 c 0,68,69
 118 -1 118 -1 100 27 c 0,70,71
 91 41 91 41 87 62 c 0,72,73
 85 82 85 82 85 91 c 2,74,-1
 85 564 l 2,42,43
EndSplineSet
EndChar
StartChar: SignHalant
Encoding: 2381 2381 80
Width: 0
GlyphClass: 4
Flags: W
AnchorPoint: "Anchor-1" -237 -2 mark 0
AnchorPoint: "Anchor-0" -237 -2 mark 0
Fore
-244 2 m 0,0,1
 -132 -21 -132 -21 -98 -32 c 0,2,3
 -18 -61 -18 -61 15 -120 c 0,4,5
 27 -140 27 -140 21 -156 c 0,6,7
 17 -166 17 -166 8 -173 c 0,8,9
 -5 -185 -5 -185 -39 -194 c 1,10,11
 -34 -139 -34 -139 -62 -105 c 0,12,13
 -75 -89 -75 -89 -95 -78 c 0,14,15
 -98 -76 -98 -76 -100 -75 c 0,16,17
 -105 -72 -105 -72 -112 -70 c 0,18,19
 -155 -51 -155 -51 -258 -27 c 1,20,-1
 -245 -5 l 1,21,22
 -243 1 -243 1 -244 2 c 0,0,1
EndSplineSet
EndChar
StartChar: uni094F
Encoding: 2383 2383 82
Width: 0
GlyphClass: 2
Flags: W
Fore
94 915 m 1,0,-1
 -80 666 l 1,1,-1
 -159 666 l 1,2,-1
 31 977 l 1,3,-1
 55 1005 l 1,4,5
 83 1024 83 1024 98 1018 c 0,6,7
 105 1016 105 1016 109 1007 c 0,8,9
 120 982 120 982 110 950 c 0,10,11
 105 933 105 933 94 915 c 1,0,-1
EndSplineSet
EndChar
StartChar: LetterOM
Encoding: 2384 2384 83
Width: 1069
GlyphClass: 2
Flags: W
Fore
416 0 m 0,0,1
 188 0 188 0 45 233 c 0,2,3
 46 232 46 232 48 236 c 0,4,5
 48 237 48 237 49 240 c 1,6,7
 52 232 52 232 81 202 c 0,8,9
 195 85 195 85 332 69 c 0,10,11
 400 60 400 60 438 81 c 0,12,13
 457 92 457 92 469 109 c 0,14,15
 486 135 486 135 486 177 c 0,16,17
 486 284 486 284 290 324 c 0,18,19
 247 333 247 333 247 336 c 1,20,-1
 248 344 l 1,21,22
 249 346 249 346 251 347 c 0,23,24
 254 350 254 350 258 351 c 0,25,26
 456 438 456 438 446 513 c 0,27,28
 445 518 445 518 444 522 c 0,29,30
 439 540 439 540 427 553 c 0,31,32
 376 609 376 609 291 598 c 0,33,34
 278 596 278 596 265 593 c 0,35,36
 215 582 215 582 150 545 c 1,37,-1
 91 501 l 1,38,-1
 115 537 l 1,39,40
 195 644 195 644 309 665 c 0,41,42
 392 679 392 679 447 658 c 0,43,44
 476 647 476 647 497 627 c 0,45,46
 533 591 533 591 542 538 c 0,47,48
 550 489 550 489 524 446 c 0,49,50
 510 424 510 424 488 404 c 1,51,-1
 460 381 l 1,52,53
 419 353 419 353 362 341 c 1,54,55
 474 337 474 337 535 268 c 2,56,-1
 543 258 l 1,57,58
 577 257 577 257 605 280 c 0,59,60
 619 292 619 292 632 310 c 2,61,-1
 687 390 l 1,62,63
 701 408 701 408 710 416 c 0,64,65
 788 492 788 492 874 476 c 0,66,67
 886 474 886 474 898 470 c 0,68,69
 966 449 966 449 1001 384 c 0,70,71
 1017 356 1017 356 1019 326 c 0,72,73
 1024 245 1024 245 990 198 c 0,74,75
 972 175 972 175 945 160 c 0,76,77
 879 124 879 124 798 160 c 0,78,79
 781 167 781 167 763 178 c 0,80,81
 739 193 739 193 724 227 c 1,82,83
 722 237 722 237 721 240 c 1,84,-1
 721 251 l 1,85,-1
 727 241 l 2,86,87
 737 222 737 222 752 211 c 0,88,89
 790 184 790 184 836 191 c 0,90,91
 846 193 846 193 857 196 c 0,92,93
 919 216 919 216 930 276 c 1,94,-1
 932 309 l 1,95,-1
 932 311 l 1,96,97
 931 346 931 346 895 376 c 0,98,99
 855 408 855 408 807 392 c 0,100,101
 785 384 785 384 760 366 c 0,102,103
 732 344 732 344 703 309 c 1,104,-1
 643 227 l 1,105,106
 601 179 601 179 566 172 c 1,107,108
 573 159 573 159 567 134 c 0,109,110
 563 119 563 119 555 101 c 0,111,112
 520 25 520 25 456 6 c 0,113,114
 435 0 435 0 416 0 c 0,0,1
522 694 m 0,115,116
 508 737 508 737 511 760 c 0,117,118
 511 764 511 764 512 767 c 0,119,120
 514 772 514 772 519 765 c 0,121,122
 522 761 522 761 526 754 c 1,123,-1
 537 731 l 2,124,125
 594 610 594 610 721 596 c 0,126,127
 794 589 794 589 862 618 c 0,128,129
 897 633 897 633 931 657 c 1,130,131
 974 690 974 690 999 723 c 1,132,-1
 1023 761 l 2,133,134
 1024 762 1024 762 1024 759 c 0,135,136
 1025 748 1025 748 1021 733 c 0,137,138
 1018 722 1018 722 1013 711 c 0,139,140
 1010 703 1010 703 1006 694 c 0,141,142
 949 575 949 575 838 535 c 0,143,144
 767 509 767 509 702 524 c 0,145,146
 668 532 668 532 637 550 c 0,147,148
 557 596 557 596 522 694 c 0,115,116
688 752 m 0,149,150
 687 765 687 765 706 774 c 0,151,152
 715 779 715 779 730 783 c 0,153,154
 770 795 770 795 801 787 c 0,155,156
 816 784 816 784 828 776 c 0,157,158
 839 770 839 770 844 761 c 1,159,160
 849 755 849 755 850 748 c 0,161,162
 855 731 855 731 839 720 c 0,163,164
 829 713 829 713 812 708 c 0,165,166
 777 698 777 698 748 703 c 1,167,-1
 722 711 l 1,168,-1
 718 713 l 2,169,170
 689 726 689 726 688 752 c 0,149,150
EndSplineSet
EndChar
StartChar: StreeSignUdatta
Encoding: 2385 2385 84
Width: 0
GlyphClass: 4
Flags: W
AnchorPoint: "Anchor-3" -116 503 mark 0
AnchorPoint: "Anchor-2" -116 503 mark 0
Fore
-89 924 m 1,0,-1
 -89 635 l 1,1,-1
 -83 615 l 1,2,3
 -76 599 -76 599 -59 599 c 0,4,5
 -47 598 -47 598 -34 603 c 0,6,7
 -27 606 -27 606 -19 611 c 0,8,9
 -10 617 -10 617 -9 618 c 0,10,11
 -25 578 -25 578 -59 567 c 0,12,13
 -92 558 -92 558 -101 558 c 0,14,15
 -152 558 -152 558 -169 609 c 2,16,-1
 -171 615 l 1,17,-1
 -171 884 l 2,18,19
 -171 901 -171 901 -134 908 c 0,20,21
 -96 916 -96 916 -89 924 c 1,0,-1
EndSplineSet
EndChar
StartChar: StressSignAnudatta
Encoding: 2386 2386 85
Width: 0
GlyphClass: 2
Flags: W
Fore
-617 -206 m 1,0,1
 -596 -194 -596 -194 -590 -180 c 2,2,-1
 -588 -175 l 2,3,4
 -584 -164 -584 -164 -562 -154 c 1,5,-1
 -12 -154 l 1,6,7
 -32 -162 -32 -162 -38 -175 c 0,8,9
 -48 -198 -48 -198 -57 -202 c 0,10,11
 -60 -203 -60 -203 -67 -205 c 1,12,13
 -371 -206 -371 -206 -617 -206 c 1,0,1
EndSplineSet
EndChar
StartChar: GraveAccent
Encoding: 2387 2387 86
Width: 0
GlyphClass: 2
Flags: W
Fore
-430 862 m 1,0,1
 -367 872 -367 872 -327 857 c 0,2,3
 -308 849 -308 849 -294 836 c 1,4,-1
 -273 811 l 1,5,-1
 -242 760 l 1,6,7
 -224 735 -224 735 -217 698 c 1,8,-1
 -266 690 l 1,9,10
 -319 809 -319 809 -421 794 c 0,11,12
 -429 793 -429 793 -437 791 c 0,13,14
 -464 784 -464 784 -487 772 c 1,15,-1
 -430 862 l 1,0,1
EndSplineSet
EndChar
StartChar: AcuteAccent
Encoding: 2388 2388 87
Width: 0
GlyphClass: 2
Flags: W
Fore
-159 867 m 0,0,1
 -116 873 -116 873 -81 822 c 2,2,-1
 -70 805 l 2,3,4
 -60 789 -60 789 -64 788 c 0,5,6
 -67 787 -67 787 -78 793 c 0,7,8
 -79 794 -79 794 -82 795 c 0,9,10
 -126 819 -126 819 -175 803 c 0,11,12
 -200 795 -200 795 -227 777 c 0,13,14
 -259 756 -259 756 -293 715 c 1,15,-1
 -344 724 l 1,16,-1
 -288 802 l 1,17,18
 -244 855 -244 855 -159 867 c 0,0,1
EndSplineSet
EndChar
StartChar: SignCandraBindu
Encoding: 2389 2389 88
Width: 0
GlyphClass: 4
Flags: W
AnchorPoint: "Anchor-3" 157 669 mark 0
AnchorPoint: "Anchor-2" 157 669 mark 0
Fore
226 977 m 1,0,1
 201 950 201 950 167 951 c 1,2,-1
 146 949 l 2,3,4
 142 948 142 948 138 946 c 128,-1,5
 134 944 134 944 128 938 c 0,6,7
 116 925 116 925 118 908 c 0,8,9
 118 906 118 906 119 904 c 0,10,11
 120 899 120 899 126 887 c 0,12,13
 141 860 141 860 170 863 c 0,14,15
 173 863 173 863 175 864 c 0,16,17
 196 869 196 869 209 888 c 1,18,19
 231 916 231 916 229 957 c 0,20,21
 229 963 229 963 228 966 c 1,22,-1
 226 977 l 1,0,1
-10 865 m 0,23,24
 -22 907 -22 907 -19 925 c 0,25,26
 -19 928 -19 928 -18 930 c 0,27,28
 -17 935 -17 935 -13 929 c 1,29,-1
 -8 919 l 1,30,-1
 0 898 l 1,31,32
 48 785 48 785 148 778 c 0,33,34
 207 773 207 773 261 803 c 0,35,36
 288 817 288 817 314 840 c 0,37,38
 340 862 340 862 359 891 c 1,39,-1
 377 925 l 1,40,-1
 378 923 l 1,41,42
 379 912 379 912 376 899 c 1,43,-1
 371 882 l 1,44,-1
 364 865 l 2,45,46
 318 754 318 754 228 722 c 0,47,48
 185 706 185 706 146 711 c 0,49,50
 133 712 133 712 121 716 c 0,51,52
 97 723 97 723 71 742 c 0,53,54
 14 784 14 784 -10 865 c 0,23,24
EndSplineSet
EndChar
StartChar: LetterQa
Encoding: 2392 2392 90
Width: 911
GlyphClass: 3
Flags: W
Fore
441 564 m 2,0,1
 441 605 441 605 470 614 c 1,2,-1
 0 614 l 1,3,4
 13 623 13 623 18 646 c 0,5,6
 21 661 21 661 31 666 c 1,7,-1
 946 666 l 1,8,9
 937 662 937 662 934 641 c 1,10,-1
 928 625 l 1,11,-1
 918 615 l 1,12,-1
 916 614 l 1,13,-1
 555 614 l 2,14,15
 523 614 523 614 522 564 c 1,16,-1
 522 369 l 1,17,18
 570 443 570 443 635 492 c 1,19,20
 675 520 675 520 732 519 c 1,21,22
 828 514 828 514 856 435 c 1,23,24
 877 381 877 381 860 315 c 0,25,26
 852 283 852 283 836 249 c 0,27,28
 795 166 795 166 741 128 c 1,29,30
 701 98 701 98 702 105 c 0,31,32
 702 107 702 107 705 110 c 0,33,34
 821 258 821 258 807 349 c 0,35,36
 807 355 807 355 805 361 c 0,37,38
 788 422 788 422 730 445 c 1,39,40
 710 455 710 455 692 454 c 1,41,42
 633 446 633 446 568 387 c 1,43,44
 532 352 532 352 522 337 c 1,45,-1
 522 105 l 2,46,47
 522 67 522 67 556 67 c 0,48,49
 581 67 581 67 597 98 c 0,50,51
 600 104 600 104 600 105 c 0,52,53
 602 83 602 83 596 64 c 0,54,55
 594 55 594 55 589 46 c 0,56,57
 583 33 583 33 571 23 c 2,58,-1
 555 10 l 1,59,-1
 532 2 l 1,60,61
 520 0 520 0 514 0 c 0,62,63
 475 -1 475 -1 456 27 c 0,64,65
 447 41 447 41 443 62 c 0,66,67
 441 82 441 82 441 91 c 2,68,-1
 441 225 l 1,69,70
 358 111 358 111 245 114 c 2,71,-1
 238 114 l 2,72,73
 148 122 148 122 92 197 c 0,74,75
 46 258 46 258 46 335 c 0,76,77
 46 416 46 416 109 473 c 1,78,79
 175 535 175 535 265 524 c 1,80,-1
 287 520 l 2,81,82
 366 503 366 503 441 434 c 1,83,-1
 441 564 l 2,0,1
305 169 m 0,84,85
 362 170 362 170 411 227 c 2,86,-1
 441 263 l 1,87,-1
 441 398 l 1,88,89
 366 478 366 478 271 477 c 0,90,91
 213 475 213 475 172 432 c 0,92,93
 133 392 133 392 134 327 c 1,94,-1
 134 322 l 1,95,96
 137 266 137 266 183 217 c 0,97,98
 230 168 230 168 305 169 c 0,84,85
360 113 m 1,99,100
 364 90 364 90 361 68 c 1,101,-1
 357 52 l 1,102,103
 352 35 352 35 343 24 c 0,104,105
 318 -9 318 -9 289 -1 c 0,106,107
 283 1 283 1 276 5 c 0,108,109
 251 21 251 21 253 52 c 0,110,111
 255 65 255 65 262 74 c 1,112,113
 276 88 276 88 300 87 c 0,114,115
 322 86 322 86 340 97 c 0,116,117
 351 103 351 103 360 113 c 1,99,100
EndSplineSet
Ligature: 0 2 'nukt' LetterKA SignNukta
EndChar
StartChar: LetterKHHA
Encoding: 2393 2393 91
Width: 952
GlyphClass: 3
Flags: W
Fore
823 564 m 1,0,-1
 823 105 l 2,1,2
 823 67 823 67 857 67 c 0,3,4
 888 67 888 67 898 98 c 0,5,6
 900 102 900 102 901 105 c 1,7,8
 902 71 902 71 890 47 c 0,9,10
 883 33 883 33 872 23 c 2,11,-1
 856 10 l 1,12,-1
 834 2 l 1,13,14
 824 0 824 0 815 0 c 0,15,16
 775 -1 775 -1 757 27 c 0,17,18
 748 41 748 41 744 62 c 0,19,20
 742 82 742 82 742 91 c 2,21,-1
 742 93 l 1,22,-1
 742 127 l 1,23,-1
 741 150 l 1,24,25
 739 155 739 155 732 154 c 2,26,-1
 722 151 l 1,27,-1
 700 141 l 1,28,-1
 653 98 l 1,29,30
 517 -1 517 -1 403 0 c 0,31,32
 247 3 247 3 172 170 c 0,33,34
 152 216 152 216 127 231 c 0,35,36
 82 258 82 258 82 261 c 1,37,38
 40 293 40 293 45 330 c 0,39,40
 45 333 45 333 46 336 c 2,41,-1
 50 348 l 1,42,43
 65 385 65 385 100 391 c 0,44,45
 104 392 104 392 125 390 c 0,46,47
 150 387 150 387 174 358 c 0,48,49
 193 336 193 336 211 336 c 0,50,51
 225 337 225 337 249 354 c 0,52,53
 316 405 316 405 314 468 c 0,54,55
 309 556 309 556 198 601 c 1,56,-1
 155 614 l 1,57,-1
 0 614 l 1,58,59
 13 623 13 623 18 646 c 0,60,61
 21 661 21 661 31 666 c 1,62,-1
 984 666 l 1,63,64
 975 662 975 662 972 641 c 1,65,-1
 966 625 l 1,66,-1
 955 615 l 1,67,-1
 954 614 l 1,68,-1
 856 614 l 2,69,70
 824 614 824 614 823 564 c 1,0,-1
594 481 m 2,71,72
 535 479 535 479 501 429 c 1,73,74
 478 400 478 400 478 360 c 0,75,76
 478 286 478 286 539 245 c 1,77,78
 573 220 573 220 616 218 c 0,79,80
 639 217 639 217 660 225 c 0,81,82
 672 230 672 230 683 238 c 0,83,84
 702 250 702 250 717 265 c 1,85,86
 734 285 734 285 742 302 c 1,87,-1
 742 400 l 1,88,89
 690 481 690 481 599 481 c 2,90,-1
 594 481 l 2,71,72
742 453 m 1,91,-1
 742 564 l 2,92,93
 742 605 742 605 771 614 c 1,94,-1
 251 613 l 1,95,96
 316 600 316 600 364 552 c 0,97,98
 408 508 408 508 404 467 c 1,99,-1
 404 463 l 1,100,101
 394 356 394 356 286 307 c 1,102,103
 238 288 238 288 213 289 c 1,104,105
 234 259 234 259 252 203 c 0,106,107
 294 82 294 82 387 68 c 0,108,109
 443 59 443 59 502 76 c 0,110,111
 529 84 529 84 557 98 c 0,112,113
 632 136 632 136 689 178 c 0,114,115
 738 215 738 215 742 223 c 1,116,-1
 742 249 l 1,117,118
 732 224 732 224 680 199 c 1,119,120
 634 175 634 175 585 176 c 1,121,122
 476 183 476 183 425 264 c 0,123,124
 396 312 396 312 398 369 c 1,125,-1
 398 373 l 1,126,127
 401 455 401 455 470 506 c 1,128,129
 517 539 517 539 580 539 c 2,130,-1
 587 539 l 2,131,132
 656 535 656 535 719 475 c 2,133,-1
 742 453 l 1,91,-1
673 45 m 1,134,135
 676 24 676 24 674 5 c 0,136,137
 672 -7 672 -7 669 -17 c 0,138,139
 666 -29 666 -29 655 -44 c 0,140,141
 630 -77 630 -77 602 -68 c 0,142,143
 595 -66 595 -66 589 -62 c 0,144,145
 564 -47 564 -47 565 -15 c 0,146,147
 566 -3 566 -3 574 6 c 1,148,149
 590 20 590 20 612 19 c 128,-1,150
 634 18 634 18 654 30 c 0,151,152
 664 36 664 36 673 45 c 1,134,135
EndSplineSet
Ligature: 0 2 'nukt' LetterKHA SignNukta
EndChar
StartChar: LetterGHHA
Encoding: 2394 2394 92
Width: 700
GlyphClass: 3
Flags: W
Fore
137 144 m 0,0,1
 167 110 167 110 210 121 c 0,2,3
 229 126 229 126 250 139 c 0,4,5
 314 180 314 180 304 297 c 0,6,7
 303 309 303 309 301 322 c 1,8,9
 222 352 222 352 174 327 c 0,10,11
 150 315 150 315 132 288 c 0,12,13
 98 236 98 236 112 189 c 0,14,15
 118 166 118 166 137 144 c 0,0,1
215 73 m 0,16,17
 168 70 168 70 131 87 c 0,18,19
 113 96 113 96 96 110 c 0,20,21
 39 158 39 158 45 233 c 0,22,23
 49 293 49 293 95 340 c 0,24,25
 138 385 138 385 225 385 c 0,26,27
 259 385 259 385 298 364 c 1,28,29
 275 455 275 455 252 504 c 0,30,31
 224 562 224 562 182 614 c 1,32,-1
 0 614 l 1,33,34
 13 623 13 623 18 646 c 0,35,36
 21 661 21 661 31 666 c 1,37,-1
 731 666 l 1,38,39
 722 662 722 662 719 641 c 1,40,-1
 713 625 l 1,41,-1
 702 615 l 1,42,-1
 701 614 l 1,43,-1
 603 614 l 2,44,45
 571 614 571 614 570 564 c 1,46,-1
 570 105 l 2,47,48
 570 67 570 67 604 67 c 0,49,50
 635 67 635 67 645 98 c 0,51,52
 647 102 647 102 648 105 c 1,53,54
 649 72 649 72 637 47 c 0,55,56
 631 34 631 34 620 23 c 1,57,-1
 603 10 l 1,58,-1
 581 2 l 2,59,60
 573 0 573 0 562 0 c 0,61,62
 522 -1 522 -1 504 26 c 0,63,64
 495 40 495 40 492 62 c 0,65,66
 489 77 489 77 489 91 c 2,67,-1
 489 564 l 2,68,69
 489 605 489 605 518 614 c 1,70,-1
 238 614 l 1,71,72
 283 562 283 562 330 475 c 0,73,74
 375 390 375 390 379 313 c 0,75,76
 383 244 383 244 362 190 c 0,77,78
 351 162 351 162 334 139 c 0,79,80
 287 79 287 79 215 73 c 0,16,17
409 47 m 1,81,82
 414 22 414 22 411 3 c 0,83,84
 408 -10 408 -10 403 -20 c 1,85,86
 399 -33 399 -33 391 -42 c 0,87,88
 366 -75 366 -75 338 -66 c 0,89,90
 331 -64 331 -64 325 -60 c 0,91,92
 300 -45 300 -45 301 -13 c 0,93,94
 302 -1 302 -1 310 8 c 0,95,96
 325 23 325 23 349 22 c 0,97,98
 371 20 371 20 391 33 c 0,99,100
 400 38 400 38 409 47 c 1,81,82
EndSplineSet
Ligature: 0 2 'nukt' LetterGA SignNukta
EndChar
StartChar: LetterZA
Encoding: 2395 2395 93
Width: 873
GlyphClass: 3
Flags: W
Fore
414 414 m 0,0,1
 465 389 465 389 535 389 c 0,2,3
 573 389 573 389 606 401 c 0,4,5
 660 420 660 420 660 455 c 2,6,-1
 660 564 l 2,7,8
 660 605 660 605 689 614 c 1,9,-1
 0 614 l 1,10,11
 13 623 13 623 18 646 c 0,12,13
 21 661 21 661 31 666 c 1,14,-1
 902 666 l 1,15,16
 893 662 893 662 890 641 c 1,17,-1
 884 625 l 1,18,-1
 873 615 l 1,19,-1
 872 614 l 1,20,-1
 774 614 l 2,21,22
 742 614 742 614 741 564 c 1,23,-1
 741 105 l 2,24,25
 741 67 741 67 775 67 c 0,26,27
 806 67 806 67 816 98 c 0,28,29
 818 102 818 102 819 105 c 1,30,31
 820 72 820 72 808 47 c 0,32,33
 802 34 802 34 791 23 c 1,34,-1
 774 10 l 1,35,-1
 752 2 l 2,36,37
 744 0 744 0 733 0 c 0,38,39
 695 -1 695 -1 678 22 c 0,40,41
 669 33 669 33 666 52 c 0,42,43
 664 66 664 66 664 79 c 2,44,-1
 664 379 l 1,45,46
 615 334 615 334 523 336 c 2,47,-1
 518 336 l 2,48,49
 457 337 457 337 397 375 c 1,50,51
 531 301 531 301 541 187 c 0,52,53
 546 137 546 137 522 96 c 0,54,55
 510 77 510 77 492 59 c 0,56,57
 429 0 429 0 340 0 c 0,58,59
 193 0 193 0 127 158 c 0,60,61
 90 244 90 244 90 365 c 0,62,63
 91 399 91 399 104 401 c 1,64,-1
 117 381 l 1,65,66
 139 220 139 220 188 141 c 0,67,68
 235 65 235 65 313 59 c 0,69,70
 380 54 380 54 420 88 c 0,71,72
 440 106 440 106 453 135 c 0,73,74
 472 180 472 180 457 223 c 0,75,76
 450 247 450 247 432 270 c 1,77,78
 406 307 406 307 330 352 c 0,79,80
 288 378 288 378 299 408 c 0,81,82
 302 415 302 415 307 422 c 0,83,84
 323 442 323 442 363 432 c 0,85,86
 385 427 385 427 414 414 c 0,0,1
517 -47 m 1,87,88
 520 -70 520 -70 517 -89 c 0,89,90
 516 -100 516 -100 513 -110 c 0,91,92
 509 -123 509 -123 500 -136 c 1,93,94
 473 -169 473 -169 445 -161 c 0,95,96
 439 -159 439 -159 433 -155 c 0,97,98
 409 -138 409 -138 410 -108 c 0,99,100
 411 -95 411 -95 419 -86 c 0,101,102
 433 -72 433 -72 457 -73 c 0,103,104
 478 -74 478 -74 496 -64 c 0,105,106
 507 -57 507 -57 517 -47 c 1,87,88
EndSplineSet
Ligature: 0 2 'nukt' LetterJA SignNukta
EndChar
StartChar: LetterDDDHA
Encoding: 2396 2396 94
Width: 655
GlyphClass: 3
Flags: W
Fore
414 614 m 1,0,-1
 0 614 l 1,1,2
 13 623 13 623 18 646 c 0,3,4
 21 661 21 661 31 666 c 1,5,-1
 693 666 l 1,6,7
 684 662 684 662 681 641 c 1,8,-1
 675 625 l 1,9,-1
 665 615 l 1,10,-1
 664 614 l 1,11,-1
 494 614 l 1,12,13
 538 595 538 595 551 551 c 0,14,15
 558 529 558 529 553 513 c 0,16,17
 551 504 551 504 545 496 c 1,18,19
 532 468 532 468 489 460 c 1,20,-1
 461 459 l 2,21,22
 455 459 455 459 372 475 c 0,23,24
 332 482 332 482 304 481 c 0,25,26
 300 480 300 480 297 480 c 2,27,-1
 274 477 l 2,28,29
 208 467 208 467 190 416 c 0,30,31
 184 396 184 396 187 381 c 0,32,33
 189 373 189 373 194 365 c 2,34,-1
 205 348 l 2,35,36
 207 345 207 345 210 343 c 0,37,38
 231 324 231 324 266 322 c 0,39,40
 361 314 361 314 481 294 c 0,41,42
 559 281 559 281 582 213 c 0,43,44
 596 168 596 168 578 122 c 0,45,46
 569 98 569 98 551 74 c 0,47,48
 498 4 498 4 389 -2 c 0,49,50
 244 -11 244 -11 104 139 c 1,51,-1
 54 197 l 1,52,53
 46 210 46 210 48 215 c 0,54,55
 49 217 49 217 51 216 c 0,56,57
 52 216 52 216 55 214 c 2,58,-1
 62 207 l 1,59,-1
 67 203 l 1,60,61
 169 99 169 99 257 70 c 2,62,-1
 262 68 l 2,63,64
 310 49 310 49 365 55 c 0,65,66
 385 57 385 57 406 63 c 0,67,68
 483 85 483 85 502 137 c 0,69,70
 507 152 507 152 505 167 c 0,71,72
 505 175 505 175 502 183 c 0,73,74
 484 246 484 246 366 261 c 1,75,-1
 246 272 l 1,76,77
 128 291 128 291 104 371 c 0,78,79
 100 385 100 385 101 403 c 0,80,81
 101 407 101 407 102 411 c 0,82,83
 119 536 119 536 282 536 c 2,84,-1
 287 536 l 2,85,86
 327 535 327 535 397 519 c 0,87,88
 464 502 464 502 478 537 c 0,89,90
 483 549 483 549 480 560 c 0,91,92
 479 566 479 566 475 572 c 0,93,94
 470 582 470 582 458 592 c 0,95,96
 441 608 441 608 414 614 c 1,0,-1
348 -44 m 1,97,98
 352 -78 352 -78 345 -104 c 0,99,100
 341 -122 341 -122 331 -133 c 0,101,102
 304 -166 304 -166 276 -158 c 0,103,104
 270 -156 270 -156 264 -152 c 0,105,106
 239 -134 239 -134 241 -104 c 0,107,108
 242 -92 242 -92 250 -83 c 0,109,110
 264 -69 264 -69 288 -70 c 0,111,112
 309 -71 309 -71 328 -60 c 0,113,114
 339 -53 339 -53 348 -44 c 1,97,98
EndSplineSet
Ligature: 0 2 'nukt' LetterDDA SignNukta
EndChar
StartChar: LetterRHA
Encoding: 2397 2397 95
Width: 606
GlyphClass: 3
Flags: W
Fore
160 304 m 0,0,1
 153 254 153 254 171 206 c 0,2,3
 181 180 181 180 197 155 c 0,4,5
 218 121 218 121 251 96 c 1,6,7
 313 53 313 53 365 57 c 0,8,9
 368 57 368 57 370 57 c 0,10,11
 375 57 375 57 378 58 c 0,12,13
 444 70 444 70 473 114 c 1,14,15
 489 136 489 136 484 160 c 0,16,17
 482 169 482 169 478 177 c 0,18,19
 468 200 468 200 443 205 c 0,20,21
 417 210 417 210 398 203 c 0,22,23
 389 200 389 200 381 193 c 0,24,25
 368 180 368 180 362 160 c 0,26,27
 355 134 355 134 363 109 c 0,28,29
 366 98 366 98 373 86 c 0,30,31
 377 77 377 77 387 65 c 0,32,33
 389 63 389 63 386 64 c 2,34,-1
 380 68 l 2,35,36
 344 91 344 91 330 135 c 0,37,38
 317 177 317 177 333 213 c 0,39,40
 340 230 340 230 353 246 c 1,41,42
 386 282 386 282 437 286 c 0,43,44
 495 291 495 291 526 261 c 0,45,46
 541 246 541 246 551 222 c 0,47,48
 565 183 565 183 557 143 c 0,49,50
 554 122 554 122 544 101 c 2,51,-1
 538 89 l 1,52,53
 492 14 492 14 384 1 c 0,54,55
 272 -13 272 -13 190 39 c 0,56,57
 149 66 149 66 116 109 c 0,58,59
 53 189 53 189 46 276 c 1,60,-1
 46 307 l 1,61,62
 54 389 54 389 124 447 c 1,63,64
 209 520 209 520 345 507 c 0,65,66
 362 506 362 506 379 503 c 0,67,68
 408 498 408 498 424 512 c 0,69,70
 432 520 432 520 436 534 c 0,71,72
 444 557 444 557 436 577 c 0,73,74
 432 587 432 587 424 596 c 0,75,76
 408 615 408 615 380 615 c 2,77,-1
 0 614 l 1,78,79
 13 623 13 623 18 646 c 0,80,81
 21 661 21 661 31 666 c 1,82,-1
 642 666 l 1,83,84
 633 662 633 662 630 641 c 1,85,-1
 624 625 l 1,86,-1
 613 615 l 1,87,-1
 612 614 l 1,88,-1
 459 615 l 1,89,90
 517 578 517 578 519 526 c 0,91,92
 520 495 520 495 498 477 c 0,93,94
 486 467 486 467 467 461 c 0,95,96
 439 451 439 451 402 454 c 0,97,98
 394 455 394 455 384 456 c 0,99,100
 294 468 294 468 236 428 c 0,101,102
 207 409 207 409 186 376 c 0,103,104
 164 339 164 339 160 304 c 0,0,1
399 -44 m 1,105,106
 404 -78 404 -78 396 -104 c 0,107,108
 392 -122 392 -122 382 -133 c 0,109,110
 355 -166 355 -166 327 -158 c 0,111,112
 321 -156 321 -156 315 -152 c 0,113,114
 290 -134 290 -134 292 -104 c 0,115,116
 294 -92 294 -92 301 -83 c 1,117,118
 315 -69 315 -69 339 -70 c 0,119,120
 360 -71 360 -71 379 -60 c 0,121,122
 390 -53 390 -53 399 -44 c 1,105,106
EndSplineSet
Ligature: 0 2 'nukt' LetterDDHA SignNukta
EndChar
StartChar: LetterFA
Encoding: 2398 2398 96
Width: 857
GlyphClass: 3
Flags: W
Fore
218 614 m 1,0,1
 99 470 99 470 119 354 c 0,2,3
 121 341 121 341 125 328 c 0,4,5
 144 259 144 259 206 228 c 1,6,7
 227 219 227 219 242 218 c 2,8,-1
 280 217 l 1,9,10
 287 218 287 218 292 219 c 0,11,12
 302 220 302 220 311 225 c 1,13,14
 343 237 343 237 391 280 c 1,15,-1
 391 564 l 2,16,17
 391 605 391 605 420 614 c 1,18,-1
 218 614 l 1,0,1
0 614 m 1,19,20
 13 623 13 623 18 646 c 0,21,22
 21 661 21 661 31 666 c 1,23,-1
 896 666 l 1,24,25
 887 662 887 662 884 641 c 1,26,-1
 878 625 l 1,27,-1
 867 615 l 1,28,-1
 866 614 l 1,29,-1
 505 614 l 2,30,31
 473 614 473 614 472 564 c 1,32,-1
 472 362 l 1,33,-1
 512 409 l 1,34,35
 597 500 597 500 663 502 c 0,36,37
 736 504 736 504 774 466 c 1,38,-1
 790 444 l 2,39,40
 798 432 798 432 803 417 c 0,41,42
 814 386 814 386 812 351 c 0,43,44
 812 346 812 346 811 341 c 0,45,46
 810 326 810 326 804 301 c 0,47,48
 790 245 790 245 698 139 c 0,49,50
 659 94 659 94 654 96 c 1,51,-1
 680 142 l 1,52,53
 745 250 745 250 740 331 c 0,54,55
 739 335 739 335 739 339 c 0,56,57
 729 435 729 435 644 441 c 2,58,-1
 631 441 l 2,59,60
 580 441 580 441 478 340 c 2,61,-1
 472 334 l 1,62,-1
 472 105 l 2,63,64
 472 67 472 67 506 67 c 0,65,66
 531 67 531 67 547 98 c 0,67,68
 550 104 550 104 550 105 c 0,69,70
 552 83 552 83 546 64 c 0,71,72
 544 55 544 55 539 46 c 0,73,74
 534 36 534 36 521 23 c 1,75,-1
 505 10 l 1,76,77
 488 0 488 0 464 0 c 0,78,79
 424 -1 424 -1 406 27 c 0,80,81
 397 41 397 41 393 62 c 0,82,83
 391 82 391 82 391 91 c 2,84,-1
 391 249 l 1,85,86
 295 142 295 142 203 148 c 2,87,-1
 197 148 l 2,88,89
 190 148 190 148 187 150 c 1,90,91
 126 159 126 159 87 212 c 0,92,93
 35 283 35 283 51 369 c 0,94,95
 55 394 55 394 65 420 c 0,96,97
 113 545 113 545 180 614 c 1,98,-1
 0 614 l 1,19,20
472 334 m 0,99,-1
268 113 m 1,100,101
 271 90 271 90 269 71 c 0,102,103
 268 61 268 61 265 52 c 0,104,105
 260 35 260 35 251 24 c 0,106,107
 224 -9 224 -9 196 -1 c 0,108,109
 190 1 190 1 184 5 c 0,110,111
 159 21 159 21 161 52 c 0,112,113
 163 65 163 65 170 74 c 1,114,115
 184 88 184 88 208 87 c 0,116,117
 229 86 229 86 247 96 c 0,118,119
 258 103 258 103 268 113 c 1,100,101
EndSplineSet
Ligature: 0 2 'nukt' LetterPHA SignNukta
EndChar
StartChar: LetterYYA
Encoding: 2399 2399 97
Width: 838
GlyphClass: 3
Flags: W
Fore
626 91 m 2,0,-1
 626 237 l 1,1,-1
 593 194 l 2,2,3
 527 106 527 106 446 80 c 0,4,5
 378 58 378 58 314 65 c 0,6,7
 284 69 284 69 256 78 c 0,8,9
 100 128 100 128 63 299 c 0,10,11
 61 307 61 307 61 312 c 0,12,13
 57 363 57 363 66 386 c 0,14,15
 70 397 70 397 78 401 c 0,16,17
 106 418 106 418 141 392 c 1,18,19
 194 357 194 357 246 367 c 0,20,21
 258 369 258 369 270 374 c 0,22,23
 296 383 296 383 312 410 c 1,24,25
 352 469 352 469 319 527 c 0,26,27
 302 556 302 556 268 585 c 1,28,29
 241 606 241 606 226 614 c 1,30,-1
 0 614 l 1,31,32
 13 623 13 623 18 646 c 0,33,34
 21 661 21 661 31 666 c 1,35,-1
 867 666 l 1,36,37
 859 662 859 662 854 641 c 1,38,39
 851 620 851 620 838 614 c 1,40,-1
 739 614 l 2,41,42
 708 614 708 614 707 564 c 1,43,-1
 707 105 l 2,44,45
 707 67 707 67 740 67 c 0,46,47
 771 67 771 67 781 98 c 0,48,49
 783 102 783 102 784 105 c 0,50,51
 781 32 781 32 735 8 c 1,52,53
 717 0 717 0 698 0 c 0,54,55
 644 0 644 0 629 63 c 0,56,57
 626 78 626 78 626 91 c 2,0,-1
626 564 m 2,58,59
 626 605 626 605 654 614 c 1,60,-1
 315 614 l 1,61,62
 397 564 397 564 418 484 c 0,63,64
 425 458 425 458 421 433 c 0,65,66
 420 420 420 420 415 407 c 0,67,68
 410 392 410 392 407 389 c 1,69,70
 376 339 376 339 315 319 c 0,71,72
 279 307 279 307 245 309 c 0,73,74
 241 309 241 309 238 309 c 0,75,76
 212 310 212 310 162 328 c 0,77,78
 157 329 157 329 156 325 c 1,79,-1
 155 316 l 1,80,-1
 157 298 l 1,81,82
 171 215 171 215 230 166 c 0,83,84
 261 139 261 139 295 129 c 1,85,86
 366 103 366 103 438 128 c 0,87,88
 472 140 472 140 507 164 c 0,89,90
 567 204 567 204 603 261 c 1,91,92
 623 297 623 297 626 309 c 1,93,-1
 626 323 l 1,94,-1
 626 564 l 2,58,59
495 30 m 1,95,96
 498 7 498 7 496 -12 c 0,97,98
 495 -22 495 -22 492 -31 c 0,99,100
 485 -49 485 -49 477 -59 c 0,101,102
 452 -91 452 -91 424 -84 c 0,103,104
 418 -82 418 -82 411 -78 c 0,105,106
 385 -62 385 -62 387 -31 c 0,107,108
 389 -18 389 -18 396 -9 c 1,109,110
 412 5 412 5 434 4 c 128,-1,111
 456 3 456 3 475 14 c 0,112,113
 485 20 485 20 495 30 c 1,95,96
EndSplineSet
Ligature: 0 2 'nukt' LetterYA SignNukta
EndChar
StartChar: LetterVocalicRR
Encoding: 2400 2400 98
Width: 1065
GlyphClass: 3
Flags: W
Fore
479 222 m 1,0,1
 460 227 460 227 406 189 c 1,2,-1
 344 141 l 2,3,4
 341 139 341 139 339 137 c 2,5,-1
 280 88 l 2,6,7
 236 53 236 53 164 49 c 1,8,-1
 126 50 l 1,9,10
 117 52 117 52 110 54 c 0,11,12
 83 61 83 61 89 66 c 0,13,14
 92 69 92 69 102 70 c 0,15,16
 108 71 108 71 117 71 c 0,17,18
 163 70 163 70 198 86 c 0,19,20
 215 94 215 94 229 106 c 0,21,22
 256 129 256 129 308 193 c 0,23,24
 341 232 341 232 406 265 c 1,25,-1
 464 298 l 2,26,27
 481 308 481 308 476 321 c 0,28,29
 474 326 474 326 470 330 c 0,30,31
 465 335 465 335 459 338 c 0,32,33
 423 354 423 354 355 421 c 0,34,35
 290 486 290 486 252 502 c 0,36,37
 229 511 229 511 209 510 c 0,38,39
 206 509 206 509 203 509 c 0,40,41
 121 500 121 500 138 428 c 0,42,43
 140 417 140 417 145 404 c 0,44,45
 161 368 161 368 179 345 c 0,46,47
 194 328 194 328 190 323 c 1,48,-1
 182 321 l 1,49,-1
 181 321 l 1,50,-1
 155 328 l 1,51,52
 100 348 100 348 67 408 c 0,53,54
 38 459 38 459 47 499 c 0,55,56
 51 515 51 515 61 529 c 0,57,58
 96 579 96 579 195 583 c 0,59,60
 241 585 241 585 293 551 c 0,61,62
 319 535 319 535 346 510 c 2,63,-1
 428 434 l 1,64,65
 455 411 455 411 479 400 c 1,66,-1
 479 564 l 2,67,68
 479 605 479 605 508 614 c 1,69,-1
 0 614 l 1,70,71
 13 623 13 623 18 646 c 0,72,73
 21 661 21 661 31 666 c 1,74,-1
 1104 666 l 1,75,76
 1095 662 1095 662 1092 641 c 1,77,-1
 1085 625 l 1,78,79
 1079 617 1079 617 1074 614 c 1,80,-1
 593 614 l 2,81,82
 561 614 561 614 560 564 c 1,83,-1
 560 367 l 1,84,-1
 629 368 l 1,85,86
 671 376 671 376 671 388 c 0,87,88
 671 390 671 390 669 392 c 0,89,90
 638 422 638 422 643 462 c 0,91,92
 644 466 644 466 645 471 c 0,93,94
 655 517 655 517 699 526 c 1,95,-1
 729 527 l 2,96,97
 730 527 730 527 732 527 c 0,98,99
 794 519 794 519 806 470 c 1,100,-1
 809 442 l 1,101,102
 807 424 807 424 790 394 c 1,103,104
 778 377 778 377 782 360 c 0,105,106
 784 352 784 352 790 344 c 0,107,108
 810 316 810 316 856 288 c 1,109,110
 877 272 877 272 872 250 c 0,111,112
 871 246 871 246 869 242 c 0,113,114
 861 221 861 221 838 210 c 0,115,116
 830 207 830 207 829 207 c 0,117,118
 795 196 795 196 772 155 c 0,119,120
 753 121 753 121 762 97 c 0,121,122
 767 84 767 84 780 75 c 0,123,124
 804 59 804 59 838 58 c 0,125,126
 874 55 874 55 935 91 c 0,127,128
 966 109 966 109 1002 137 c 0,129,130
 1021 151 1021 151 1017 142 c 0,131,132
 1014 136 1014 136 1001 122 c 0,133,134
 998 118 998 118 990 110 c 0,135,136
 914 30 914 30 823 16 c 0,137,138
 818 15 818 15 810 15 c 1,139,140
 778 -18 778 -18 780 -61 c 0,141,142
 783 -115 783 -115 860 -126 c 0,143,144
 897 -131 897 -131 953 -96 c 0,145,146
 980 -79 980 -79 1013 -52 c 0,147,148
 1020 -47 1020 -47 1021 -46 c 0,149,150
 1034 -38 1034 -38 1036 -39 c 0,151,152
 1037 -40 1037 -40 1029 -51 c 0,153,154
 1020 -63 1020 -63 1009 -74 c 0,155,156
 953 -125 953 -125 918 -146 c 0,157,158
 870 -174 870 -174 816 -170 c 0,159,160
 751 -165 751 -165 724 -110 c 0,161,162
 702 -66 702 -66 715 -21 c 0,163,164
 722 1 722 1 736 24 c 2,165,-1
 741 31 l 1,166,167
 663 71 663 71 670 135 c 0,168,169
 670 138 670 138 671 142 c 0,170,171
 680 196 680 196 736 227 c 0,172,173
 775 250 775 250 768 272 c 1,174,175
 763 283 763 283 754 289 c 1,176,-1
 708 338 l 1,177,178
 676 316 676 316 617 317 c 1,179,-1
 570 322 l 1,180,-1
 561 327 l 1,181,-1
 561 105 l 2,182,183
 561 68 561 68 594 67 c 0,184,185
 625 67 625 67 635 98 c 0,186,187
 637 102 637 102 638 105 c 1,188,189
 639 71 639 71 627 47 c 0,190,191
 620 33 620 33 609 23 c 2,192,-1
 593 10 l 1,193,-1
 570 2 l 2,194,195
 564 0 564 0 552 0 c 0,196,197
 512 -1 512 -1 494 27 c 0,198,199
 485 41 485 41 481 62 c 0,200,201
 479 82 479 82 479 91 c 2,202,-1
 479 222 l 1,0,1
EndSplineSet
Ligature: 0 2 'blws' LetterVocalicR SignVocalicR
EndChar
StartChar: LetterVocalicLL
Encoding: 2401 2401 99
Width: 855
GlyphClass: 3
Flags: W
Fore
667 463 m 0,0,1
 713 454 713 454 752 406 c 0,2,3
 795 351 795 351 787 277 c 0,4,5
 787 269 787 269 785 260 c 0,6,7
 776 197 776 197 742 197 c 1,8,-1
 722 201 l 1,9,10
 668 222 668 222 608 201 c 1,11,12
 554 180 554 180 545 138 c 0,13,14
 542 124 542 124 545 108 c 1,15,16
 563 51 563 51 656 75 c 0,17,18
 673 79 673 79 699 89 c 0,19,20
 732 102 732 102 744 99 c 0,21,22
 746 98 746 98 748 96 c 0,23,24
 751 91 751 91 739 83 c 2,25,-1
 727 76 l 2,26,27
 720 72 720 72 707 67 c 2,28,-1
 627 40 l 1,29,30
 576 17 576 17 572 -45 c 1,31,32
 573 -89 573 -89 615 -111 c 1,33,34
 651 -127 651 -127 691 -111 c 0,35,36
 712 -102 712 -102 734 -85 c 0,37,38
 749 -73 749 -73 762 -59 c 0,39,40
 798 -20 798 -20 800 -18 c 0,41,42
 811 -8 811 -8 808 -18 c 1,43,-1
 801 -37 l 1,44,-1
 797 -44 l 2,45,46
 727 -176 727 -176 634 -172 c 0,47,48
 631 -172 631 -172 629 -172 c 0,49,50
 521 -160 521 -160 516 -78 c 0,51,52
 514 -42 514 -42 528 -12 c 0,53,54
 535 5 535 5 547 20 c 0,55,56
 549 24 549 24 557 32 c 1,57,58
 493 58 493 58 477 83 c 0,59,60
 466 100 466 100 466 123 c 0,61,62
 467 177 467 177 538 218 c 0,63,64
 599 254 599 254 658 249 c 2,65,-1
 670 247 l 1,66,-1
 681 245 l 2,67,68
 705 238 705 238 712 255 c 0,69,70
 717 264 717 264 716 279 c 0,71,72
 716 294 716 294 712 307 c 0,73,74
 688 396 688 396 595 403 c 1,75,76
 578 406 578 406 555 403 c 0,77,78
 550 402 550 402 544 401 c 0,79,80
 470 388 470 388 433 296 c 0,81,82
 433 294 433 294 417 249 c 1,83,-1
 389 324 l 1,84,85
 361 384 361 384 315 398 c 0,86,87
 302 401 302 401 286 401 c 0,88,89
 207 400 207 400 164 331 c 0,90,91
 132 282 132 282 139 225 c 0,92,93
 140 214 140 214 143 203 c 0,94,95
 165 122 165 122 226 65 c 1,96,97
 261 30 261 30 304 12 c 1,98,-1
 333 2 l 1,99,100
 338 -1 338 -1 322 0 c 0,101,102
 314 0 314 0 301 2 c 0,103,104
 300 3 300 3 296 3 c 0,105,106
 178 16 178 16 106 108 c 0,107,108
 66 158 66 158 53 222 c 1,109,110
 32 312 32 312 67 373 c 0,111,112
 85 406 85 406 119 430 c 0,113,114
 180 475 180 475 250 473 c 2,115,-1
 254 473 l 1,116,-1
 259 473 l 2,117,118
 322 474 322 474 361 450 c 0,119,120
 381 437 381 437 395 416 c 1,121,-1
 419 373 l 1,122,123
 431 434 431 434 503 467 c 1,124,125
 508 471 508 471 514 472 c 1,126,127
 559 489 559 489 570 530 c 0,128,129
 572 542 572 542 572 544 c 0,130,131
 570 579 570 579 539 603 c 0,132,133
 526 612 526 612 511 614 c 1,134,-1
 0 614 l 1,135,136
 13 623 13 623 18 646 c 0,137,138
 21 661 21 661 31 666 c 1,139,-1
 899 666 l 1,140,141
 890 662 890 662 887 641 c 1,142,-1
 881 625 l 1,143,-1
 870 615 l 1,144,-1
 869 614 l 1,145,-1
 588 614 l 1,146,147
 639 588 639 588 644 539 c 0,148,149
 645 523 645 523 641 510 c 1,150,-1
 634 495 l 2,151,152
 626 476 626 476 627 475 c 0,153,154
 629 470 629 470 667 463 c 0,0,1
EndSplineSet
Ligature: 0 2 'blws' LetterVocalicL SignVocalicR
EndChar
StartChar: LuMatra
Encoding: 2402 2402 100
Width: 686
GlyphClass: 2
Flags: W
Fore
429 -93 m 0,0,1
 390 -93 390 -93 365 -66 c 0,2,3
 339 -39 339 -39 339 5 c 0,4,5
 339 61 339 61 388 126 c 0,6,7
 411 157 411 157 437 208 c 1,8,9
 440 229 440 229 421 237 c 1,10,-1
 398 241 l 1,11,-1
 392 241 l 2,12,13
 343 241 343 241 328 162 c 1,14,-1
 300 162 l 1,15,16
 286 253 286 253 234 254 c 0,17,18
 203 255 203 255 192 240 c 1,19,-1
 186 226 l 1,20,-1
 185 219 l 1,21,22
 183 189 183 189 198 168 c 0,23,24
 205 158 205 158 216 150 c 0,25,26
 229 140 229 140 226 132 c 0,27,28
 225 130 225 130 223 128 c 0,29,30
 213 118 213 118 199 118 c 0,31,32
 178 118 178 118 156 142 c 0,33,34
 123 179 123 179 128 219 c 1,35,-1
 130 229 l 1,36,37
 133 268 133 268 153 292 c 0,38,39
 172 316 172 316 213 323 c 1,40,-1
 229 323 l 1,41,42
 292 315 292 315 311 260 c 1,43,44
 339 309 339 309 376 316 c 1,45,46
 398 322 398 322 409 322 c 0,47,48
 443 322 443 322 467 296 c 0,49,50
 493 269 493 269 494 232 c 0,51,52
 495 200 495 200 471 156 c 0,53,54
 460 136 460 136 444 113 c 0,55,56
 394 42 394 42 396 13 c 0,57,58
 397 -22 397 -22 461 -17 c 0,59,60
 466 -17 466 -17 472 -16 c 0,61,62
 547 0 547 0 543 119 c 0,63,64
 543 122 543 122 543 126 c 0,65,66
 543 171 543 171 522 233 c 1,67,68
 505 296 505 296 503 292 c 1,69,70
 524 305 524 305 549 313 c 1,71,72
 561 295 561 295 575 246 c 0,73,74
 590 195 590 195 593 137 c 1,75,76
 595 127 595 127 595 96 c 1,77,78
 585 -28 585 -28 528 -63 c 1,79,80
 479 -98 479 -98 435 -94 c 0,81,82
 432 -94 432 -94 429 -93 c 0,0,1
EndSplineSet
EndChar
StartChar: DANDA
Encoding: 2404 2404 101
Width: 614
GlyphClass: 2
Flags: W
Fore
312 126 m 2,0,1
 312 87 312 87 346 87 c 0,2,3
 377 87 377 87 387 119 c 0,4,5
 389 123 389 123 390 126 c 1,6,7
 391 91 391 91 379 67 c 0,8,9
 372 53 372 53 361 43 c 0,10,11
 340 23 340 23 304 20 c 1,12,13
 264 19 264 19 246 49 c 0,14,15
 237 62 237 62 233 83 c 0,16,17
 231 101 231 101 231 112 c 2,18,-1
 231 765 l 2,19,20
 231 794 231 794 264 805 c 0,21,22
 295 815 295 815 304 821 c 1,23,24
 309 826 309 826 312 833 c 1,25,-1
 312 126 l 2,0,1
EndSplineSet
EndChar
StartChar: DoubleDANDA
Encoding: 2405 2405 102
Width: 832
GlyphClass: 2
Flags: W
Fore
635 126 m 2,0,1
 635 87 635 87 669 87 c 0,2,3
 698 87 698 87 710 119 c 0,4,5
 712 123 712 123 713 126 c 1,6,7
 714 91 714 91 702 67 c 0,8,9
 695 53 695 53 684 43 c 0,10,11
 663 23 663 23 627 20 c 1,12,13
 587 19 587 19 569 47 c 0,14,15
 560 62 560 62 556 83 c 0,16,17
 554 101 554 101 554 112 c 2,18,-1
 554 765 l 2,19,20
 554 794 554 794 587 805 c 0,21,22
 619 815 619 815 627 821 c 0,23,24
 632 826 632 826 635 833 c 1,25,-1
 635 126 l 2,0,1
312 126 m 2,26,27
 312 87 312 87 346 87 c 0,28,29
 377 87 377 87 387 119 c 0,30,31
 389 123 389 123 390 126 c 1,32,33
 391 91 391 91 379 67 c 0,34,35
 372 53 372 53 361 43 c 0,36,37
 340 23 340 23 304 20 c 1,38,39
 264 19 264 19 246 49 c 0,40,41
 237 62 237 62 233 83 c 0,42,43
 231 101 231 101 231 112 c 2,44,-1
 231 765 l 2,45,46
 231 794 231 794 264 805 c 0,47,48
 295 815 295 815 304 821 c 1,49,50
 309 826 309 826 312 833 c 1,51,-1
 312 126 l 2,26,27
EndSplineSet
EndChar
StartChar: DigitZero
Encoding: 2406 2406 103
Width: 571
GlyphClass: 2
Flags: W
Fore
291 461 m 0,0,1
 243 462 243 462 204 438 c 0,2,3
 184 426 184 426 167 407 c 1,4,5
 129 368 129 368 129 319 c 0,6,7
 129 224 129 224 210 183 c 1,8,9
 255 162 255 162 309 165 c 0,10,11
 379 170 379 170 420 231 c 1,12,13
 442 268 442 268 444 311 c 0,14,15
 445 361 445 361 417 398 c 0,16,17
 405 413 405 413 389 426 c 0,18,19
 386 428 386 428 382 431 c 0,20,21
 342 459 342 459 291 461 c 0,0,1
294 509 m 0,22,23
 364 510 364 510 418 482 c 0,24,25
 445 468 445 468 468 447 c 0,26,27
 525 397 525 397 527 324 c 0,28,29
 529 258 529 258 493 209 c 0,30,31
 476 186 476 186 451 167 c 2,32,-1
 443 161 l 2,33,34
 392 124 392 124 328 114 c 0,35,36
 260 102 260 102 199 126 c 0,37,38
 168 138 168 138 138 159 c 0,39,40
 54 218 54 218 45 306 c 1,41,-1
 44 334 l 1,42,43
 49 415 49 415 139 468 c 0,44,45
 208 507 208 507 294 509 c 0,22,23
EndSplineSet
EndChar
StartChar: DigitOne
Encoding: 2407 2407 104
Width: 526
GlyphClass: 2
Flags: W
Fore
302 409 m 1,0,1
 236 368 236 368 192 380 c 0,2,3
 178 383 178 383 166 392 c 0,4,5
 135 416 135 416 140 455 c 1,6,-1
 142 465 l 1,7,8
 157 518 157 518 213 539 c 0,9,10
 233 546 233 546 254 547 c 0,11,12
 301 550 301 550 333 525 c 0,13,14
 349 513 349 513 362 494 c 0,15,16
 399 440 399 440 390 343 c 0,17,18
 389 323 389 323 385 301 c 0,19,20
 362 174 362 174 293 96 c 0,21,22
 239 35 239 35 143 0 c 1,23,24
 302 0 302 0 408 154 c 1,25,26
 461 235 461 235 476 364 c 0,27,28
 486 454 486 454 462 511 c 0,29,30
 451 540 451 540 430 561 c 0,31,32
 361 632 361 632 243 614 c 0,33,34
 219 611 219 611 194 604 c 0,35,36
 130 587 130 587 92 550 c 1,37,38
 47 502 47 502 50 429 c 1,39,-1
 50 423 l 1,40,41
 55 354 55 354 121 319 c 0,42,43
 165 297 165 297 211 304 c 0,44,45
 231 307 231 307 252 315 c 0,46,47
 299 336 299 336 324 382 c 0,48,49
 346 423 346 423 337 431 c 1,50,51
 330 429 330 429 302 409 c 1,0,1
EndSplineSet
EndChar
StartChar: DigitTwo
Encoding: 2408 2408 105
Width: 626
GlyphClass: 2
Flags: W
Fore
275 207 m 1,0,1
 282 208 282 208 269 231 c 0,2,3
 243 278 243 278 190 274 c 0,4,5
 188 273 188 273 185 273 c 0,6,7
 180 273 180 273 177 272 c 0,8,9
 152 268 152 268 147 242 c 1,10,11
 145 222 145 222 158 209 c 0,12,13
 165 203 165 203 176 198 c 0,14,15
 201 186 201 186 236 194 c 0,16,17
 254 198 254 198 275 207 c 1,0,1
504 498 m 0,18,19
 551 423 551 423 523 349 c 0,20,21
 509 312 509 312 476 274 c 0,22,23
 440 233 440 233 390 200 c 1,24,25
 370 185 370 185 352 176 c 0,26,27
 344 171 344 171 352 153 c 1,28,-1
 364 130 l 1,29,30
 397 74 397 74 455 55 c 1,31,32
 521 36 521 36 581 100 c 0,33,34
 588 108 588 108 586 104 c 0,35,36
 583 100 583 100 572 88 c 1,37,38
 516 17 516 17 451 3 c 0,39,40
 421 -4 421 -4 395 6 c 0,41,42
 381 12 381 12 368 22 c 0,43,44
 338 44 338 44 305 123 c 0,45,46
 291 156 291 156 285 156 c 1,47,48
 216 125 216 125 156 135 c 0,49,50
 131 139 131 139 108 150 c 0,51,52
 51 176 51 176 45 221 c 1,53,-1
 45 238 l 1,54,55
 53 296 53 296 111 318 c 0,56,57
 156 336 156 336 200 325 c 0,58,59
 223 318 223 318 247 304 c 0,60,61
 285 282 285 282 315 238 c 0,62,63
 323 227 323 227 340 238 c 0,64,65
 348 243 348 243 360 254 c 0,66,67
 413 303 413 303 423 369 c 0,68,69
 430 407 430 407 418 439 c 0,70,71
 412 456 412 456 401 472 c 0,72,73
 344 555 344 555 261 550 c 2,74,-1
 255 550 l 2,75,76
 196 546 196 546 166 506 c 0,77,78
 146 479 146 479 155 458 c 0,79,80
 160 446 160 446 173 436 c 0,81,82
 183 427 183 427 204 419 c 0,83,84
 206 418 206 418 199 415 c 2,85,-1
 185 411 l 2,86,87
 138 396 138 396 108 410 c 0,88,89
 92 417 92 417 81 432 c 0,90,91
 76 439 76 439 71 451 c 0,92,93
 54 488 54 488 77 523 c 0,94,95
 89 542 89 542 112 559 c 0,96,97
 180 611 180 611 283 612 c 0,98,99
 372 613 372 613 433 571 c 0,100,101
 464 550 464 550 489 517 c 1,102,103
 499 507 499 507 504 498 c 0,18,19
EndSplineSet
EndChar
StartChar: DigitThree
Encoding: 2409 2409 106
Width: 645
GlyphClass: 2
Flags: W
Fore
296 48 m 1,0,1
 247 141 247 141 194 134 c 0,2,3
 191 134 191 134 188 133 c 2,4,-1
 182 131 l 2,5,6
 148 117 148 117 156 92 c 0,7,8
 157 88 157 88 159 84 c 0,9,10
 166 70 166 70 184 57 c 1,11,12
 219 36 219 36 267 40 c 0,13,14
 273 40 273 40 279 41 c 0,15,16
 296 44 296 44 296 48 c 1,0,1
193 519 m 1,17,18
 171 482 171 482 197 457 c 0,19,20
 210 444 210 444 236 434 c 0,21,22
 240 433 240 433 240 432 c 1,23,24
 183 408 183 408 148 417 c 0,25,26
 129 422 129 422 116 436 c 0,27,28
 90 462 90 462 97 499 c 0,29,30
 99 509 99 509 103 519 c 0,31,32
 128 581 128 581 203 603 c 0,33,34
 240 614 240 614 289 613 c 2,35,-1
 295 613 l 2,36,37
 446 607 446 607 502 523 c 0,38,39
 532 476 532 476 523 426 c 0,40,41
 519 408 519 408 511 390 c 0,42,43
 489 344 489 344 437 316 c 0,44,45
 413 303 413 303 381 297 c 1,46,47
 455 297 455 297 508 263 c 0,48,49
 534 247 534 247 544 227 c 1,50,51
 582 137 582 137 505 71 c 0,52,53
 466 39 466 39 398 11 c 2,54,-1
 393 9 l 1,55,56
 422 -43 422 -43 478 -47 c 0,57,58
 513 -50 513 -50 555 -28 c 0,59,60
 576 -17 576 -17 599 0 c 0,61,62
 602 2 602 2 598 -3 c 0,63,64
 596 -7 596 -7 591 -14 c 0,65,66
 571 -43 571 -43 538 -68 c 1,67,68
 496 -96 496 -96 449 -104 c 0,69,70
 404 -112 404 -112 364 -74 c 0,71,72
 345 -55 345 -55 327 -26 c 1,73,74
 320 -12 320 -12 317 -12 c 0,75,76
 223 -22 223 -22 156 1 c 0,77,78
 121 13 121 13 94 33 c 0,79,80
 38 72 38 72 45 121 c 1,81,-1
 47 129 l 1,82,83
 52 145 52 145 61 158 c 0,84,85
 106 216 106 216 179 200 c 0,86,87
 197 196 197 196 217 188 c 0,88,89
 293 157 293 157 341 89 c 0,90,91
 351 74 351 74 357 62 c 0,92,93
 360 56 360 56 375 65 c 0,94,95
 383 71 383 71 394 80 c 0,96,97
 450 127 450 127 450 176 c 0,98,99
 450 211 450 211 414 239 c 1,100,101
 374 266 374 266 328 279 c 1,102,-1
 275 286 l 1,103,-1
 264 288 l 1,104,105
 247 296 247 296 251 305 c 0,106,107
 253 309 253 309 258 313 c 0,108,109
 262 317 262 317 266 317 c 1,110,111
 419 359 419 359 419 434 c 0,112,113
 419 464 419 464 401 500 c 0,114,115
 378 548 378 548 308 559 c 0,116,117
 263 566 263 566 232 553 c 0,118,119
 216 547 216 547 204 535 c 1,120,-1
 193 519 l 1,17,18
EndSplineSet
EndChar
StartChar: DigitFour
Encoding: 2410 2410 107
Width: 632
GlyphClass: 2
Flags: W
Fore
266 278 m 1,0,1
 189 240 189 240 168 190 c 0,2,3
 152 151 152 151 182 115 c 0,4,5
 198 96 198 96 225 78 c 0,6,7
 258 57 258 57 309 62 c 0,8,9
 322 64 322 64 336 67 c 0,10,11
 410 81 410 81 423 124 c 0,12,13
 430 145 430 145 419 169 c 0,14,15
 413 182 413 182 403 195 c 0,16,17
 362 248 362 248 288 271 c 2,18,-1
 266 278 l 1,0,1
325 565 m 1,19,20
 294 592 294 592 253 584 c 0,21,22
 240 581 240 581 225 574 c 0,23,24
 181 554 181 554 163 513 c 0,25,26
 143 467 143 467 169 422 c 0,27,28
 182 400 182 400 206 378 c 0,29,30
 236 349 236 349 289 326 c 0,31,32
 300 321 300 321 329 333 c 0,33,34
 347 340 347 340 370 352 c 0,35,36
 466 406 466 406 502 478 c 0,37,38
 534 545 534 545 493 606 c 0,39,40
 473 636 473 636 434 666 c 1,41,42
 525 654 525 654 565 582 c 0,43,44
 593 533 593 533 584 488 c 0,45,46
 581 474 581 474 575 461 c 0,47,48
 525 354 525 354 353 306 c 2,49,-1
 348 304 l 1,50,51
 483 275 483 275 515 204 c 0,52,53
 531 168 531 168 517 125 c 0,54,55
 509 103 509 103 495 80 c 0,56,57
 447 6 447 6 323 0 c 0,58,59
 248 -3 248 -3 186 18 c 0,60,61
 153 29 153 29 124 46 c 0,62,63
 41 96 41 96 49 166 c 0,64,65
 49 170 49 170 50 174 c 0,66,67
 64 243 64 243 151 279 c 0,68,69
 177 290 177 290 209 297 c 1,70,71
 22 386 22 386 50 492 c 0,72,73
 52 503 52 503 57 513 c 0,74,75
 76 553 76 553 120 588 c 0,76,77
 144 606 144 606 200 615 c 0,78,79
 263 625 263 625 297 600 c 0,80,81
 315 587 315 587 325 565 c 1,19,20
EndSplineSet
EndChar
StartChar: DigitFive
Encoding: 2411 2411 108
Width: 579
GlyphClass: 2
Flags: W
Fore
397 262 m 1,0,1
 446 305 446 305 449 371 c 0,2,3
 449 385 449 385 444 402 c 0,4,5
 433 440 433 440 413 430 c 0,6,7
 409 428 409 428 403 423 c 1,8,-1
 390 406 l 1,9,10
 374 377 374 377 375 351 c 0,11,12
 376 305 376 305 394 268 c 2,13,-1
 397 262 l 1,0,1
278 591 m 2,14,15
 193 562 193 562 153 487 c 1,16,17
 130 449 130 449 128 401 c 0,18,19
 124 334 124 334 155 292 c 0,20,21
 171 270 171 270 196 254 c 0,22,23
 246 221 246 221 325 227 c 2,24,-1
 347 229 l 1,25,26
 289 304 289 304 302 382 c 0,27,28
 305 396 305 396 310 411 c 0,29,30
 334 475 334 475 386 498 c 0,31,32
 411 508 411 508 435 506 c 0,33,34
 439 506 439 506 443 505 c 0,35,36
 538 488 538 488 533 394 c 0,37,38
 532 390 532 390 532 386 c 0,39,40
 526 313 526 313 476 248 c 1,41,42
 454 217 454 217 434 212 c 1,43,44
 441 199 441 199 485 133 c 1,45,46
 521 83 521 83 518 42 c 1,47,48
 510 -29 510 -29 417 -44 c 0,49,50
 397 -48 397 -48 375 -49 c 0,51,52
 330 -53 330 -53 279 -28 c 0,53,54
 253 -15 253 -15 225 6 c 0,55,56
 210 17 210 17 202 27 c 0,57,58
 201 28 201 28 204 27 c 0,59,60
 254 7 254 7 276 2 c 0,61,62
 307 -4 307 -4 336 -2 c 0,63,64
 344 -2 344 -2 351 -1 c 2,65,-1
 382 6 l 1,66,67
 445 30 445 30 429 92 c 0,68,69
 426 107 426 107 418 123 c 0,70,71
 406 149 406 149 376 187 c 1,72,-1
 322 178 l 1,73,74
 214 169 214 169 147 209 c 0,75,76
 113 229 113 229 89 262 c 0,77,78
 52 315 52 315 45 388 c 0,79,80
 39 446 39 446 76 497 c 0,81,82
 95 524 95 524 124 548 c 0,83,84
 196 608 196 608 278 614 c 1,85,86
 324 614 324 614 309 604 c 0,87,88
 303 600 303 600 286 594 c 2,89,-1
 278 591 l 2,14,15
EndSplineSet
EndChar
StartChar: DigitSix
Encoding: 2412 2412 109
Width: 602
GlyphClass: 2
Flags: W
Fore
347 48 m 1,0,1
 396 141 396 141 449 134 c 0,2,3
 452 134 452 134 455 133 c 2,4,-1
 461 131 l 2,5,6
 495 117 495 117 487 92 c 0,7,8
 486 88 486 88 484 84 c 0,9,10
 477 70 477 70 459 57 c 1,11,12
 424 36 424 36 377 40 c 0,13,14
 371 40 371 40 365 41 c 2,15,-1
 348 46 l 1,16,17
 346 48 346 48 347 48 c 1,0,1
451 519 m 1,18,19
 470 486 470 486 445 460 c 1,20,-1
 426 444 l 1,21,-1
 408 434 l 1,22,-1
 403 432 l 1,23,24
 460 408 460 408 495 417 c 0,25,26
 514 422 514 422 527 436 c 0,27,28
 553 462 553 462 546 499 c 0,29,30
 544 509 544 509 540 519 c 0,31,32
 522 564 522 564 465 593 c 1,33,34
 417 615 417 615 354 613 c 2,35,-1
 348 613 l 2,36,37
 198 607 198 607 142 523 c 0,38,39
 111 477 111 477 120 426 c 0,40,41
 124 408 124 408 132 390 c 0,42,43
 167 315 167 315 253 299 c 2,44,-1
 261 297 l 1,45,-1
 262 297 l 2,46,47
 188 297 188 297 135 263 c 1,48,-1
 114 247 l 1,49,50
 103 233 103 233 99 227 c 1,51,52
 61 139 61 139 138 73 c 0,53,54
 177 40 177 40 244 12 c 0,55,56
 248 10 248 10 250 9 c 1,57,58
 221 -43 221 -43 165 -47 c 0,59,60
 125 -50 125 -50 86 -29 c 0,61,62
 65 -18 65 -18 44 0 c 1,63,-1
 66 -30 l 1,64,65
 119 -94 119 -94 195 -104 c 1,66,67
 238 -112 238 -112 278 -75 c 0,68,69
 298 -56 298 -56 316 -26 c 0,70,71
 324 -12 324 -12 326 -12 c 0,72,73
 402 -23 402 -23 462 3 c 0,74,75
 491 16 491 16 516 37 c 0,76,77
 559 73 559 73 559 123 c 0,78,79
 559 134 559 134 553 145 c 1,80,81
 510 204 510 204 444 192 c 0,82,83
 435 191 435 191 426 188 c 0,84,85
 358 169 358 169 302 89 c 0,86,87
 292 74 292 74 286 62 c 1,88,-1
 251 79 l 2,89,90
 193 107 193 107 194 175 c 0,91,92
 195 221 195 221 217 238 c 0,93,94
 288 293 288 293 340 290 c 2,95,-1
 393 288 l 1,96,97
 398 289 398 289 401 290 c 0,98,99
 419 297 419 297 415 307 c 0,100,101
 413 311 413 311 408 315 c 128,-1,102
 403 319 403 319 399 319 c 0,103,104
 225 361 225 361 225 435 c 0,105,106
 225 467 225 467 242 500 c 0,107,108
 265 548 265 548 335 559 c 0,109,110
 380 566 380 566 411 553 c 0,111,112
 427 547 427 547 439 535 c 1,113,114
 443 529 443 529 451 519 c 1,18,19
EndSplineSet
EndChar
StartChar: DigitSeven
Encoding: 2413 2413 110
Width: 707
GlyphClass: 2
Flags: W
Fore
515 173 m 2,0,1
 471 163 471 163 438 181 c 0,2,3
 421 191 421 191 406 208 c 0,4,5
 378 239 378 239 376 282 c 0,6,7
 374 326 374 326 398 359 c 0,8,9
 409 375 409 375 428 390 c 0,10,11
 467 421 467 421 518 420 c 0,12,13
 592 417 592 417 634 354 c 0,14,15
 662 312 662 312 659 263 c 0,16,17
 659 261 659 261 659 258 c 0,18,19
 652 137 652 137 557 62 c 0,20,21
 478 1 478 1 379 0 c 0,22,23
 285 -2 285 -2 210 35 c 0,24,25
 173 53 173 53 141 80 c 0,26,27
 50 160 50 160 44 283 c 0,28,29
 40 372 40 372 93 448 c 0,30,31
 120 487 120 487 161 522 c 0,32,33
 234 584 234 584 323 610 c 1,34,35
 336 615 336 615 344 613 c 0,36,37
 348 613 348 613 351 610 c 1,38,-1
 352 606 l 1,39,40
 351 602 351 602 339 592 c 1,41,42
 235 515 235 515 187 447 c 0,43,44
 130 365 130 365 132 276 c 0,45,46
 136 180 136 180 218 114 c 0,47,48
 290 57 290 57 377 60 c 2,49,-1
 381 60 l 2,50,51
 476 65 476 65 529 137 c 1,52,53
 567 186 567 186 569 250 c 0,54,55
 570 276 570 276 555 299 c 0,56,57
 548 311 548 311 537 322 c 0,58,59
 516 341 516 341 498 338 c 2,60,-1
 493 337 l 2,61,62
 439 320 439 320 439 273 c 0,63,64
 439 232 439 232 476 209 c 0,65,66
 496 196 496 196 524 197 c 0,67,68
 535 198 535 198 543 195 c 2,69,-1
 549 193 l 1,70,71
 556 187 556 187 543 181 c 0,72,73
 538 179 538 179 527 176 c 2,74,-1
 515 173 l 2,0,1
EndSplineSet
EndChar
StartChar: DigitEight
Encoding: 2414 2414 111
Width: 563
GlyphClass: 2
Flags: W
Fore
469 153 m 1,0,1
 512 205 512 205 515 190 c 1,2,-1
 515 181 l 1,3,-1
 504 143 l 1,4,5
 464 58 464 58 372 19 c 0,6,7
 324 0 324 0 266 0 c 0,8,9
 164 0 164 0 97 76 c 0,10,11
 41 141 41 141 45 232 c 0,12,13
 45 235 45 235 45 239 c 0,14,15
 57 450 57 450 295 564 c 0,16,17
 342 586 342 586 376 598 c 0,18,19
 432 618 432 618 439 610 c 1,20,21
 443 607 443 607 423 593 c 0,22,23
 411 585 411 585 392 574 c 0,24,25
 183 458 183 458 154 282 c 0,26,27
 150 261 150 261 150 234 c 1,28,29
 144 196 144 196 163 160 c 0,30,31
 172 142 172 142 186 125 c 0,32,33
 239 63 239 63 319 74 c 0,34,35
 328 76 328 76 338 78 c 0,36,37
 400 93 400 93 469 153 c 1,0,1
EndSplineSet
EndChar
StartChar: DigitNine
Encoding: 2415 2415 112
Width: 622
GlyphClass: 2
Flags: W
Fore
575 -30 m 0,0,1
 575 28 575 28 498 62 c 1,2,-1
 427 90 l 1,3,4
 304 132 304 132 263 158 c 0,5,6
 149 227 149 227 143 356 c 0,7,8
 140 413 140 413 162 459 c 0,9,10
 172 480 172 480 188 499 c 0,11,12
 239 561 239 561 317 546 c 0,13,14
 332 543 332 543 349 537 c 0,15,16
 392 520 392 520 402 473 c 0,17,18
 410 439 410 439 396 415 c 0,19,20
 389 403 389 403 378 394 c 0,21,22
 349 372 349 372 302 380 c 0,23,24
 281 383 281 383 255 393 c 1,25,-1
 215 412 l 1,26,27
 202 415 202 415 219 397 c 0,28,29
 228 386 228 386 247 370 c 0,30,31
 249 369 249 369 253 365 c 0,32,33
 298 326 298 326 363 332 c 0,34,35
 369 332 369 332 375 333 c 0,36,37
 449 344 449 344 477 399 c 1,38,39
 488 424 488 424 488 451 c 0,40,41
 488 518 488 518 423 568 c 1,42,43
 367 614 367 614 296 614 c 0,44,45
 182 614 182 614 108 530 c 0,46,47
 48 463 48 463 44 375 c 0,48,49
 43 353 43 353 46 328 c 1,50,-1
 49 308 l 1,51,52
 76 178 76 178 233 102 c 0,53,54
 265 87 265 87 387 42 c 0,55,56
 475 9 475 9 488 -18 c 0,57,58
 498 -39 498 -39 482 -63 c 0,59,60
 471 -82 471 -82 450 -89 c 1,61,62
 496 -101 496 -101 528 -87 c 0,63,64
 544 -81 544 -81 558 -67 c 1,65,66
 575 -47 575 -47 575 -30 c 0,0,1
EndSplineSet
EndChar
StartChar: DevAbbreviationSign
Encoding: 2416 2416 113
Width: 530
GlyphClass: 2
Flags: W
Fore
268 640 m 0,0,1
 201 640 201 640 155 588 c 1,2,-1
 136 563 l 1,3,4
 121 538 121 538 121 508 c 0,5,6
 121 412 121 412 208 379 c 0,7,8
 244 365 244 365 286 365 c 0,9,10
 346 365 346 365 385 423 c 0,11,12
 409 461 409 461 409 501 c 0,13,14
 409 572 409 572 351 613 c 0,15,16
 315 640 315 640 268 640 c 0,0,1
271 684 m 0,17,18
 368 684 368 684 432 626 c 1,19,-1
 454 602 l 1,20,21
 483 561 483 561 483 512 c 0,22,23
 483 414 483 414 400 356 c 0,24,25
 358 328 358 328 302 317 c 0,26,27
 238 306 238 306 182 330 c 0,28,29
 153 343 153 343 127 364 c 1,30,31
 50 433 50 433 46 522 c 1,32,33
 46 596 46 596 130 646 c 0,34,35
 193 684 193 684 271 684 c 0,17,18
EndSplineSet
EndChar
StartChar: uni0971
Encoding: 2417 2417 114
Width: 318
GlyphClass: 3
Flags: W
Fore
307 876 m 1,0,1
 283 849 283 849 248 850 c 0,2,3
 230 851 230 851 219 845 c 0,4,5
 214 842 214 842 209 837 c 0,6,7
 196 822 196 822 200 804 c 1,8,-1
 207 785 l 1,9,10
 224 758 224 758 251 762 c 0,11,12
 254 762 254 762 256 763 c 0,13,14
 276 768 276 768 290 786 c 0,15,16
 313 816 313 816 310 856 c 0,17,18
 310 860 310 860 309 864 c 1,19,-1
 307 875 l 1,20,-1
 307 876 l 1,0,1
26 933 m 2,21,-1
 35 932 l 2,22,23
 124 916 124 916 176 734 c 1,24,-1
 195 659 l 1,25,-1
 52 659 l 1,26,27
 7 692 7 692 -29 724 c 0,28,29
 -108 794 -108 794 -115 799 c 0,30,31
 -167 835 -167 835 -229 826 c 0,32,33
 -241 824 -241 824 -254 820 c 0,34,35
 -257 819 -257 819 -261 819 c 0,36,37
 -268 819 -268 819 -259 827 c 0,38,39
 -255 830 -255 830 -248 836 c 1,40,41
 -200 867 -200 867 -162 866 c 1,42,43
 -101 861 -101 861 -30 811 c 1,44,-1
 28 764 l 1,45,46
 84 715 84 715 104 710 c 1,47,-1
 96 732 l 1,48,49
 77 799 77 799 71 813 c 0,50,51
 32 906 32 906 -30 900 c 0,52,53
 -33 899 -33 899 -35 899 c 2,54,-1
 -71 889 l 2,55,56
 -79 887 -79 887 -80 888 c 0,57,58
 -83 889 -83 889 -77 894 c 0,59,60
 -73 897 -73 897 -65 902 c 0,61,62
 -13 934 -13 934 26 933 c 2,21,-1
85 564 m 2,63,64
 85 605 85 605 114 614 c 1,65,-1
 0 614 l 1,66,67
 13 623 13 623 18 646 c 0,68,69
 20 663 20 663 31 666 c 1,70,-1
 347 666 l 1,71,72
 339 661 339 661 336 643 c 1,73,74
 335 624 335 624 317 614 c 1,75,-1
 199 614 l 2,76,77
 167 614 167 614 166 564 c 1,78,-1
 166 105 l 2,79,80
 166 67 166 67 200 67 c 0,81,82
 223 67 223 67 241 98 c 0,83,84
 244 104 244 104 244 105 c 0,85,86
 245 56 245 56 221 29 c 0,87,88
 209 15 209 15 191 7 c 0,89,90
 179 2 179 2 158 0 c 0,91,92
 118 -1 118 -1 100 27 c 0,93,94
 91 41 91 41 87 62 c 0,95,96
 85 82 85 82 85 91 c 2,97,-1
 85 564 l 2,63,64
EndSplineSet
Ligature: 0 2 'abvs' SignAO SignRu
EndChar
StartChar: uni0972
Encoding: 2418 2418 115
Width: 277
GlyphClass: 3
Flags: W
Fore
225 887 m 1,0,1
 200 860 200 860 166 861 c 0,2,3
 148 862 148 862 137 856 c 0,4,5
 132 853 132 853 127 848 c 0,6,7
 114 834 114 834 118 816 c 0,8,9
 119 807 119 807 125 797 c 0,10,11
 141 770 141 770 168 773 c 0,12,13
 171 773 171 773 174 774 c 0,14,15
 193 779 193 779 208 798 c 0,16,17
 231 826 231 826 228 868 c 0,18,19
 228 872 228 872 227 876 c 1,20,-1
 225 887 l 1,0,1
85 564 m 2,21,22
 85 605 85 605 114 614 c 1,23,-1
 0 614 l 1,24,25
 13 623 13 623 18 646 c 0,26,27
 20 663 20 663 31 666 c 1,28,-1
 306 666 l 1,29,30
 298 661 298 661 295 643 c 1,31,32
 294 624 294 624 276 614 c 1,33,-1
 199 614 l 2,34,35
 167 614 167 614 166 564 c 1,36,-1
 166 105 l 2,37,38
 166 67 166 67 200 67 c 0,39,40
 223 67 223 67 241 98 c 0,41,42
 243 102 243 102 244 105 c 1,43,44
 243 32 243 32 191 7 c 0,45,46
 179 2 179 2 158 0 c 0,47,48
 118 -1 118 -1 100 27 c 0,49,50
 91 41 91 41 87 62 c 0,51,52
 85 82 85 82 85 91 c 2,53,-1
 85 564 l 2,21,22
78 666 m 1,54,55
 48 692 48 692 -5 793 c 0,56,57
 -12 806 -12 806 -18 819 c 0,58,59
 -60 917 -60 917 -120 905 c 0,60,61
 -126 904 -126 904 -131 902 c 2,62,-1
 -151 895 l 2,63,64
 -159 893 -159 893 -161 894 c 0,65,66
 -162 895 -162 895 -157 900 c 0,67,68
 -130 922 -130 922 -86 935 c 0,69,70
 -66 940 -66 940 -54 939 c 0,71,72
 3 934 3 934 48 836 c 0,73,74
 50 831 50 831 50 830 c 0,75,76
 114 689 114 689 173 666 c 1,77,-1
 78 666 l 1,54,55
EndSplineSet
Ligature: 0 2 'abvs' SignO SignRu
EndChar
StartChar: uni0973
Encoding: 2419 2419 116
Width: 240
GlyphClass: 3
Flags: W
Fore
665 913 m 1,0,1
 638 887 638 887 605 888 c 0,2,3
 588 889 588 889 577 883 c 1,4,-1
 566 874 l 1,5,6
 553 860 553 860 557 842 c 0,7,8
 558 833 558 833 564 823 c 0,9,10
 582 796 582 796 608 800 c 0,11,12
 611 800 611 800 613 801 c 0,13,14
 631 806 631 806 647 824 c 0,15,16
 671 853 671 853 668 894 c 0,17,18
 668 898 668 898 667 902 c 1,19,-1
 665 913 l 1,0,1
45 564 m 2,20,21
 45 605 45 605 74 614 c 1,22,-1
 0 614 l 1,23,24
 13 623 13 623 18 646 c 0,25,26
 21 661 21 661 31 666 c 1,27,-1
 283 666 l 1,28,29
 273 662 273 662 270 641 c 1,30,-1
 264 625 l 1,31,-1
 254 615 l 1,32,-1
 253 614 l 1,33,-1
 159 614 l 2,34,35
 127 614 127 614 126 564 c 1,36,-1
 126 105 l 2,37,38
 126 67 126 67 160 67 c 0,39,40
 183 67 183 67 201 98 c 0,41,42
 203 102 203 102 204 105 c 1,43,44
 205 72 205 72 193 47 c 0,45,46
 187 34 187 34 176 23 c 2,47,-1
 161 9 l 1,48,49
 141 -1 141 -1 118 0 c 1,50,51
 78 -1 78 -1 60 27 c 0,52,53
 51 41 51 41 47 62 c 0,54,55
 45 82 45 82 45 91 c 2,56,-1
 45 564 l 2,20,21
68 662 m 1,57,58
 14 690 14 690 2 754 c 0,59,60
 -7 802 -7 802 12 838 c 0,61,62
 22 856 22 856 39 871 c 0,63,64
 82 909 82 909 160 911 c 0,65,66
 239 913 239 913 377 857 c 0,67,68
 446 829 446 829 530 787 c 2,69,-1
 729 686 l 1,70,71
 770 668 770 668 793 662 c 1,72,-1
 698 662 l 1,73,74
 617 682 617 682 446 754 c 0,75,76
 305 815 305 815 231 821 c 1,77,-1
 197 822 l 1,78,79
 98 817 98 817 89 764 c 0,80,81
 85 736 85 736 103 710 c 0,82,83
 111 698 111 698 125 685 c 0,84,85
 141 670 141 670 163 662 c 1,86,-1
 68 662 l 1,57,58
EndSplineSet
Ligature: 0 2 'abvs' SignI SignRu
EndChar
